<mxfile host="app.diagrams.net" modified="2023-08-19T20:18:23.757Z" agent="Mozilla/5.0 (Windows NT 10.0; Win64; x64; rv:109.0) Gecko/20100101 Firefox/116.0" etag="ZayM0yRDw8cu5AIy9nsL" version="21.6.8" type="device">
  <diagram name="Strona-1" id="dMVNizHPvJN8CCyft0p9">
    <mxGraphModel dx="2577" dy="897" grid="1" gridSize="10" guides="1" tooltips="1" connect="1" arrows="1" fold="1" page="1" pageScale="1" pageWidth="827" pageHeight="1169" math="0" shadow="0">
      <root>
        <mxCell id="0" />
        <mxCell id="1" parent="0" />
        <mxCell id="3AthHkXCR67KAWAovLi--5" value="" style="edgeStyle=orthogonalEdgeStyle;rounded=0;orthogonalLoop=1;jettySize=auto;html=1;" parent="1" source="3AthHkXCR67KAWAovLi--1" target="3AthHkXCR67KAWAovLi--4" edge="1">
          <mxGeometry relative="1" as="geometry" />
        </mxCell>
        <mxCell id="3AthHkXCR67KAWAovLi--1" value="Pyrodust" style="rounded=0;whiteSpace=wrap;html=1;" parent="1" vertex="1">
          <mxGeometry x="294" y="170" width="120" height="60" as="geometry" />
        </mxCell>
        <mxCell id="3AthHkXCR67KAWAovLi--15" style="edgeStyle=orthogonalEdgeStyle;rounded=0;orthogonalLoop=1;jettySize=auto;html=1;exitX=0;exitY=0.25;exitDx=0;exitDy=0;entryX=0.5;entryY=1;entryDx=0;entryDy=0;" parent="1" source="3AthHkXCR67KAWAovLi--3" target="3AthHkXCR67KAWAovLi--10" edge="1">
          <mxGeometry relative="1" as="geometry" />
        </mxCell>
        <mxCell id="3AthHkXCR67KAWAovLi--95" value="" style="edgeStyle=orthogonalEdgeStyle;rounded=0;orthogonalLoop=1;jettySize=auto;html=1;" parent="1" source="3AthHkXCR67KAWAovLi--3" target="3AthHkXCR67KAWAovLi--94" edge="1">
          <mxGeometry relative="1" as="geometry" />
        </mxCell>
        <mxCell id="Fcrjs0fXRwcgXbqQfPj4-1" style="edgeStyle=orthogonalEdgeStyle;rounded=0;orthogonalLoop=1;jettySize=auto;html=1;exitX=0;exitY=0.5;exitDx=0;exitDy=0;entryX=1;entryY=0.75;entryDx=0;entryDy=0;" parent="1" source="3AthHkXCR67KAWAovLi--3" target="3AthHkXCR67KAWAovLi--67" edge="1">
          <mxGeometry relative="1" as="geometry">
            <Array as="points">
              <mxPoint x="60" y="400" />
              <mxPoint x="60" y="340" />
              <mxPoint x="-100" y="340" />
              <mxPoint x="-100" y="297" />
            </Array>
          </mxGeometry>
        </mxCell>
        <mxCell id="3AthHkXCR67KAWAovLi--3" value="Compacted Pyrophenium" style="rounded=0;whiteSpace=wrap;html=1;fillColor=#f5f5f5;fontColor=#333333;strokeColor=#666666;" parent="1" vertex="1">
          <mxGeometry x="294" y="370" width="120" height="60" as="geometry" />
        </mxCell>
        <mxCell id="3AthHkXCR67KAWAovLi--6" value="" style="edgeStyle=orthogonalEdgeStyle;rounded=0;orthogonalLoop=1;jettySize=auto;html=1;" parent="1" source="3AthHkXCR67KAWAovLi--4" target="3AthHkXCR67KAWAovLi--3" edge="1">
          <mxGeometry relative="1" as="geometry" />
        </mxCell>
        <mxCell id="3AthHkXCR67KAWAovLi--4" value="Pyrophenium Compactor" style="shape=process;whiteSpace=wrap;html=1;backgroundOutline=1;fillColor=#ffe6cc;strokeColor=#d79b00;" parent="1" vertex="1">
          <mxGeometry x="294" y="270" width="120" height="60" as="geometry" />
        </mxCell>
        <mxCell id="3AthHkXCR67KAWAovLi--8" value="" style="edgeStyle=orthogonalEdgeStyle;rounded=0;orthogonalLoop=1;jettySize=auto;html=1;" parent="1" source="3AthHkXCR67KAWAovLi--7" target="3AthHkXCR67KAWAovLi--1" edge="1">
          <mxGeometry relative="1" as="geometry" />
        </mxCell>
        <mxCell id="3AthHkXCR67KAWAovLi--7" value="Skrobarka" style="shape=trapezoid;perimeter=trapezoidPerimeter;whiteSpace=wrap;html=1;fixedSize=1;fillColor=#d5e8d4;strokeColor=#82b366;" parent="1" vertex="1">
          <mxGeometry x="294" y="50" width="120" height="60" as="geometry" />
        </mxCell>
        <mxCell id="3AthHkXCR67KAWAovLi--11" value="" style="edgeStyle=orthogonalEdgeStyle;rounded=0;orthogonalLoop=1;jettySize=auto;html=1;" parent="1" source="3AthHkXCR67KAWAovLi--10" target="3AthHkXCR67KAWAovLi--4" edge="1">
          <mxGeometry relative="1" as="geometry" />
        </mxCell>
        <mxCell id="3AthHkXCR67KAWAovLi--10" value="&lt;div&gt;Methane Heater&lt;/div&gt;&lt;div&gt;4 heat&lt;br&gt;&lt;/div&gt;" style="shape=step;perimeter=stepPerimeter;whiteSpace=wrap;html=1;fixedSize=1;fillColor=#f8cecc;strokeColor=#b85450;" parent="1" vertex="1">
          <mxGeometry x="100" y="270" width="120" height="60" as="geometry" />
        </mxCell>
        <mxCell id="3AthHkXCR67KAWAovLi--14" value="" style="edgeStyle=orthogonalEdgeStyle;rounded=0;orthogonalLoop=1;jettySize=auto;html=1;" parent="1" source="3AthHkXCR67KAWAovLi--12" target="3AthHkXCR67KAWAovLi--13" edge="1">
          <mxGeometry relative="1" as="geometry" />
        </mxCell>
        <mxCell id="3AthHkXCR67KAWAovLi--19" style="edgeStyle=orthogonalEdgeStyle;rounded=0;orthogonalLoop=1;jettySize=auto;html=1;exitX=1;exitY=0.5;exitDx=0;exitDy=0;" parent="1" source="3AthHkXCR67KAWAovLi--12" target="3AthHkXCR67KAWAovLi--18" edge="1">
          <mxGeometry relative="1" as="geometry" />
        </mxCell>
        <mxCell id="3AthHkXCR67KAWAovLi--51" style="edgeStyle=orthogonalEdgeStyle;rounded=0;orthogonalLoop=1;jettySize=auto;html=1;exitX=1;exitY=0.5;exitDx=0;exitDy=0;" parent="1" source="3AthHkXCR67KAWAovLi--12" target="3AthHkXCR67KAWAovLi--50" edge="1">
          <mxGeometry relative="1" as="geometry" />
        </mxCell>
        <mxCell id="3AthHkXCR67KAWAovLi--87" style="edgeStyle=orthogonalEdgeStyle;rounded=0;orthogonalLoop=1;jettySize=auto;html=1;exitX=1;exitY=0.25;exitDx=0;exitDy=0;" parent="1" source="3AthHkXCR67KAWAovLi--12" target="3AthHkXCR67KAWAovLi--86" edge="1">
          <mxGeometry relative="1" as="geometry" />
        </mxCell>
        <mxCell id="3AthHkXCR67KAWAovLi--93" style="edgeStyle=orthogonalEdgeStyle;rounded=0;orthogonalLoop=1;jettySize=auto;html=1;exitX=0;exitY=0.25;exitDx=0;exitDy=0;entryX=1;entryY=0.25;entryDx=0;entryDy=0;" parent="1" source="3AthHkXCR67KAWAovLi--12" target="3AthHkXCR67KAWAovLi--7" edge="1">
          <mxGeometry relative="1" as="geometry" />
        </mxCell>
        <mxCell id="3AthHkXCR67KAWAovLi--12" value="&lt;div&gt;Stroke Drill&lt;/div&gt;" style="shape=trapezoid;perimeter=trapezoidPerimeter;whiteSpace=wrap;html=1;fixedSize=1;fillColor=#d5e8d4;strokeColor=#82b366;" parent="1" vertex="1">
          <mxGeometry x="740" y="50" width="120" height="60" as="geometry" />
        </mxCell>
        <mxCell id="pbiRxgmzWkfBwBTZQI0s-10" style="edgeStyle=orthogonalEdgeStyle;rounded=0;orthogonalLoop=1;jettySize=auto;html=1;exitX=0.75;exitY=1;exitDx=0;exitDy=0;entryX=0;entryY=0.25;entryDx=0;entryDy=0;" parent="1" source="3AthHkXCR67KAWAovLi--13" target="pbiRxgmzWkfBwBTZQI0s-9" edge="1">
          <mxGeometry relative="1" as="geometry" />
        </mxCell>
        <mxCell id="3AthHkXCR67KAWAovLi--13" value="Palladium" style="rounded=0;whiteSpace=wrap;html=1;" parent="1" vertex="1">
          <mxGeometry x="740" y="170" width="120" height="60" as="geometry" />
        </mxCell>
        <mxCell id="3AthHkXCR67KAWAovLi--17" value="" style="edgeStyle=orthogonalEdgeStyle;rounded=0;orthogonalLoop=1;jettySize=auto;html=1;entryX=0.5;entryY=0;entryDx=0;entryDy=0;" parent="1" source="3AthHkXCR67KAWAovLi--16" target="3AthHkXCR67KAWAovLi--37" edge="1">
          <mxGeometry relative="1" as="geometry">
            <mxPoint x="140" y="220" as="targetPoint" />
          </mxGeometry>
        </mxCell>
        <mxCell id="3AthHkXCR67KAWAovLi--53" style="edgeStyle=orthogonalEdgeStyle;rounded=0;orthogonalLoop=1;jettySize=auto;html=1;exitX=0;exitY=0.5;exitDx=0;exitDy=0;entryX=0.5;entryY=0;entryDx=0;entryDy=0;" parent="1" source="3AthHkXCR67KAWAovLi--16" target="3AthHkXCR67KAWAovLi--52" edge="1">
          <mxGeometry relative="1" as="geometry" />
        </mxCell>
        <mxCell id="3AthHkXCR67KAWAovLi--16" value="Methane Collector" style="shape=trapezoid;perimeter=trapezoidPerimeter;whiteSpace=wrap;html=1;fixedSize=1;fillColor=#dae8fc;strokeColor=#6c8ebf;" parent="1" vertex="1">
          <mxGeometry x="100" y="50" width="120" height="60" as="geometry" />
        </mxCell>
        <mxCell id="3AthHkXCR67KAWAovLi--40" value="" style="edgeStyle=orthogonalEdgeStyle;rounded=0;orthogonalLoop=1;jettySize=auto;html=1;" parent="1" source="3AthHkXCR67KAWAovLi--18" target="3AthHkXCR67KAWAovLi--39" edge="1">
          <mxGeometry relative="1" as="geometry" />
        </mxCell>
        <mxCell id="pbiRxgmzWkfBwBTZQI0s-17" style="edgeStyle=orthogonalEdgeStyle;rounded=0;orthogonalLoop=1;jettySize=auto;html=1;exitX=1;exitY=0.75;exitDx=0;exitDy=0;entryX=-0.004;entryY=0.619;entryDx=0;entryDy=0;entryPerimeter=0;" parent="1" source="3AthHkXCR67KAWAovLi--18" target="pbiRxgmzWkfBwBTZQI0s-9" edge="1">
          <mxGeometry relative="1" as="geometry">
            <Array as="points">
              <mxPoint x="710" y="215" />
              <mxPoint x="710" y="537" />
            </Array>
          </mxGeometry>
        </mxCell>
        <mxCell id="3AthHkXCR67KAWAovLi--18" value="&lt;div&gt;Silica&lt;/div&gt;" style="rounded=0;whiteSpace=wrap;html=1;" parent="1" vertex="1">
          <mxGeometry x="560" y="170" width="120" height="60" as="geometry" />
        </mxCell>
        <mxCell id="3AthHkXCR67KAWAovLi--23" value="" style="edgeStyle=orthogonalEdgeStyle;rounded=0;orthogonalLoop=1;jettySize=auto;html=1;" parent="1" source="3AthHkXCR67KAWAovLi--21" target="3AthHkXCR67KAWAovLi--22" edge="1">
          <mxGeometry relative="1" as="geometry" />
        </mxCell>
        <mxCell id="3AthHkXCR67KAWAovLi--25" value="" style="edgeStyle=orthogonalEdgeStyle;rounded=0;orthogonalLoop=1;jettySize=auto;html=1;" parent="1" source="3AthHkXCR67KAWAovLi--21" target="3AthHkXCR67KAWAovLi--24" edge="1">
          <mxGeometry relative="1" as="geometry" />
        </mxCell>
        <mxCell id="3AthHkXCR67KAWAovLi--21" value="Pump" style="shape=trapezoid;perimeter=trapezoidPerimeter;whiteSpace=wrap;html=1;fixedSize=1;fillColor=#dae8fc;strokeColor=#6c8ebf;" parent="1" vertex="1">
          <mxGeometry x="1679" y="70" width="120" height="60" as="geometry" />
        </mxCell>
        <mxCell id="3AthHkXCR67KAWAovLi--74" style="edgeStyle=orthogonalEdgeStyle;rounded=0;orthogonalLoop=1;jettySize=auto;html=1;exitX=0.25;exitY=0;exitDx=0;exitDy=0;entryX=0;entryY=0.25;entryDx=0;entryDy=0;" parent="1" source="3AthHkXCR67KAWAovLi--22" target="3AthHkXCR67KAWAovLi--67" edge="1">
          <mxGeometry relative="1" as="geometry">
            <Array as="points">
              <mxPoint x="1540" y="110" />
              <mxPoint x="1540" y="20" />
              <mxPoint x="-290" y="20" />
              <mxPoint x="-290" y="263" />
            </Array>
          </mxGeometry>
        </mxCell>
        <mxCell id="3AthHkXCR67KAWAovLi--22" value="Water" style="whiteSpace=wrap;html=1;fillColor=#E6F3FA;" parent="1" vertex="1">
          <mxGeometry x="1510" y="160" width="120" height="60" as="geometry" />
        </mxCell>
        <mxCell id="3AthHkXCR67KAWAovLi--64" style="edgeStyle=orthogonalEdgeStyle;rounded=0;orthogonalLoop=1;jettySize=auto;html=1;exitX=0.5;exitY=1;exitDx=0;exitDy=0;entryX=1;entryY=0.5;entryDx=0;entryDy=0;" parent="1" source="3AthHkXCR67KAWAovLi--24" target="3AthHkXCR67KAWAovLi--60" edge="1">
          <mxGeometry relative="1" as="geometry" />
        </mxCell>
        <mxCell id="3AthHkXCR67KAWAovLi--24" value="Waste Water" style="whiteSpace=wrap;html=1;fillColor=#E6F3FA;" parent="1" vertex="1">
          <mxGeometry x="1863.5" y="70" width="120" height="60" as="geometry" />
        </mxCell>
        <mxCell id="3AthHkXCR67KAWAovLi--34" style="edgeStyle=orthogonalEdgeStyle;rounded=0;orthogonalLoop=1;jettySize=auto;html=1;" parent="1" source="3AthHkXCR67KAWAovLi--26" target="3AthHkXCR67KAWAovLi--28" edge="1">
          <mxGeometry relative="1" as="geometry" />
        </mxCell>
        <mxCell id="3AthHkXCR67KAWAovLi--35" value="" style="edgeStyle=orthogonalEdgeStyle;rounded=0;orthogonalLoop=1;jettySize=auto;html=1;" parent="1" source="3AthHkXCR67KAWAovLi--26" target="3AthHkXCR67KAWAovLi--30" edge="1">
          <mxGeometry relative="1" as="geometry" />
        </mxCell>
        <mxCell id="iJsYBSRhtJNTG5tVJpyb-2" style="edgeStyle=orthogonalEdgeStyle;rounded=0;orthogonalLoop=1;jettySize=auto;html=1;exitX=0;exitY=0.5;exitDx=0;exitDy=0;entryX=0.5;entryY=0;entryDx=0;entryDy=0;" parent="1" source="3AthHkXCR67KAWAovLi--26" target="iJsYBSRhtJNTG5tVJpyb-1" edge="1">
          <mxGeometry relative="1" as="geometry" />
        </mxCell>
        <mxCell id="3AthHkXCR67KAWAovLi--26" value="Recyclinator" style="shape=process;whiteSpace=wrap;html=1;backgroundOutline=1;fillColor=#ffe6cc;strokeColor=#d79b00;" parent="1" vertex="1">
          <mxGeometry x="1751.75" y="370" width="120" height="60" as="geometry" />
        </mxCell>
        <mxCell id="3AthHkXCR67KAWAovLi--28" value="Silica" style="rounded=0;whiteSpace=wrap;html=1;" parent="1" vertex="1">
          <mxGeometry x="1911.75" y="490" width="120" height="60" as="geometry" />
        </mxCell>
        <mxCell id="3AthHkXCR67KAWAovLi--30" value="Palladium" style="rounded=0;whiteSpace=wrap;html=1;" parent="1" vertex="1">
          <mxGeometry x="1751.75" y="490" width="120" height="60" as="geometry" />
        </mxCell>
        <mxCell id="3AthHkXCR67KAWAovLi--38" style="edgeStyle=orthogonalEdgeStyle;rounded=0;orthogonalLoop=1;jettySize=auto;html=1;" parent="1" source="3AthHkXCR67KAWAovLi--37" target="3AthHkXCR67KAWAovLi--10" edge="1">
          <mxGeometry relative="1" as="geometry" />
        </mxCell>
        <mxCell id="3L-2WKxO310W-JA4WiVi-6" style="edgeStyle=orthogonalEdgeStyle;rounded=0;orthogonalLoop=1;jettySize=auto;html=1;exitX=0;exitY=0.5;exitDx=0;exitDy=0;entryX=0.25;entryY=0;entryDx=0;entryDy=0;" edge="1" parent="1" source="3AthHkXCR67KAWAovLi--37" target="iJsYBSRhtJNTG5tVJpyb-25">
          <mxGeometry relative="1" as="geometry" />
        </mxCell>
        <mxCell id="3AthHkXCR67KAWAovLi--37" value="Methane" style="whiteSpace=wrap;html=1;fillColor=#E6F3FA;" parent="1" vertex="1">
          <mxGeometry x="100" y="170" width="120" height="60" as="geometry" />
        </mxCell>
        <mxCell id="3AthHkXCR67KAWAovLi--42" value="" style="edgeStyle=orthogonalEdgeStyle;rounded=0;orthogonalLoop=1;jettySize=auto;html=1;" parent="1" source="3AthHkXCR67KAWAovLi--39" target="3AthHkXCR67KAWAovLi--41" edge="1">
          <mxGeometry relative="1" as="geometry" />
        </mxCell>
        <mxCell id="3AthHkXCR67KAWAovLi--39" value="Siliglass Smelter" style="shape=process;whiteSpace=wrap;html=1;backgroundOutline=1;fillColor=#ffe6cc;strokeColor=#d79b00;" parent="1" vertex="1">
          <mxGeometry x="560" y="270" width="120" height="60" as="geometry" />
        </mxCell>
        <mxCell id="pbiRxgmzWkfBwBTZQI0s-12" style="edgeStyle=orthogonalEdgeStyle;rounded=0;orthogonalLoop=1;jettySize=auto;html=1;exitX=0;exitY=0.5;exitDx=0;exitDy=0;entryX=0.5;entryY=0;entryDx=0;entryDy=0;" parent="1" source="3AthHkXCR67KAWAovLi--41" target="3AthHkXCR67KAWAovLi--43" edge="1">
          <mxGeometry relative="1" as="geometry" />
        </mxCell>
        <mxCell id="3AthHkXCR67KAWAovLi--41" value="Siliglass" style="rounded=0;whiteSpace=wrap;html=1;fillColor=#f5f5f5;strokeColor=#666666;fontColor=#333333;" parent="1" vertex="1">
          <mxGeometry x="560" y="370" width="120" height="60" as="geometry" />
        </mxCell>
        <mxCell id="3AthHkXCR67KAWAovLi--49" style="edgeStyle=orthogonalEdgeStyle;rounded=0;orthogonalLoop=1;jettySize=auto;html=1;exitX=0.5;exitY=1;exitDx=0;exitDy=0;" parent="1" source="3AthHkXCR67KAWAovLi--43" target="3AthHkXCR67KAWAovLi--48" edge="1">
          <mxGeometry relative="1" as="geometry" />
        </mxCell>
        <mxCell id="3AthHkXCR67KAWAovLi--43" value="Armor Press Mk1" style="shape=process;whiteSpace=wrap;html=1;backgroundOutline=1;fillColor=#ffe6cc;strokeColor=#d79b00;" parent="1" vertex="1">
          <mxGeometry x="480" y="530" width="120" height="60" as="geometry" />
        </mxCell>
        <mxCell id="3AthHkXCR67KAWAovLi--48" value="Armor Plate Mk1" style="rounded=0;whiteSpace=wrap;html=1;fillColor=#f5f5f5;fontColor=#333333;strokeColor=#666666;" parent="1" vertex="1">
          <mxGeometry x="480" y="640" width="120" height="60" as="geometry" />
        </mxCell>
        <mxCell id="3AthHkXCR67KAWAovLi--97" style="edgeStyle=orthogonalEdgeStyle;rounded=0;orthogonalLoop=1;jettySize=auto;html=1;exitX=0.25;exitY=1;exitDx=0;exitDy=0;entryX=0.75;entryY=0;entryDx=0;entryDy=0;" parent="1" source="3AthHkXCR67KAWAovLi--50" target="3AthHkXCR67KAWAovLi--94" edge="1">
          <mxGeometry relative="1" as="geometry">
            <Array as="points">
              <mxPoint x="950" y="460" />
              <mxPoint x="384" y="460" />
            </Array>
          </mxGeometry>
        </mxCell>
        <mxCell id="3AthHkXCR67KAWAovLi--50" value="Resonance Crystal" style="rounded=0;whiteSpace=wrap;html=1;" parent="1" vertex="1">
          <mxGeometry x="920" y="170" width="120" height="60" as="geometry" />
        </mxCell>
        <mxCell id="3AthHkXCR67KAWAovLi--57" value="" style="edgeStyle=orthogonalEdgeStyle;rounded=0;orthogonalLoop=1;jettySize=auto;html=1;" parent="1" source="3AthHkXCR67KAWAovLi--52" target="3AthHkXCR67KAWAovLi--56" edge="1">
          <mxGeometry relative="1" as="geometry" />
        </mxCell>
        <mxCell id="3AthHkXCR67KAWAovLi--68" value="" style="edgeStyle=orthogonalEdgeStyle;rounded=0;orthogonalLoop=1;jettySize=auto;html=1;" parent="1" source="3AthHkXCR67KAWAovLi--52" target="3AthHkXCR67KAWAovLi--67" edge="1">
          <mxGeometry relative="1" as="geometry" />
        </mxCell>
        <mxCell id="3AthHkXCR67KAWAovLi--52" value="Methane Burner" style="shape=hexagon;perimeter=hexagonPerimeter2;whiteSpace=wrap;html=1;fixedSize=1;fillColor=#ffe6cc;strokeColor=#d79b00;" parent="1" vertex="1">
          <mxGeometry x="-260" y="120" width="120" height="80" as="geometry" />
        </mxCell>
        <mxCell id="3AthHkXCR67KAWAovLi--56" value="&lt;div&gt;180 power&lt;/div&gt;" style="triangle;whiteSpace=wrap;html=1;fillColor=#f8cecc;strokeColor=#b85450;" parent="1" vertex="1">
          <mxGeometry x="-80" y="120" width="80" height="80" as="geometry" />
        </mxCell>
        <mxCell id="iJsYBSRhtJNTG5tVJpyb-8" value="" style="edgeStyle=orthogonalEdgeStyle;rounded=0;orthogonalLoop=1;jettySize=auto;html=1;" parent="1" source="3AthHkXCR67KAWAovLi--58" target="3AthHkXCR67KAWAovLi--26" edge="1">
          <mxGeometry relative="1" as="geometry" />
        </mxCell>
        <mxCell id="iJsYBSRhtJNTG5tVJpyb-15" value="" style="edgeStyle=orthogonalEdgeStyle;rounded=0;orthogonalLoop=1;jettySize=auto;html=1;" parent="1" source="3AthHkXCR67KAWAovLi--58" target="iJsYBSRhtJNTG5tVJpyb-14" edge="1">
          <mxGeometry relative="1" as="geometry" />
        </mxCell>
        <mxCell id="3AthHkXCR67KAWAovLi--58" value="Waste" style="rounded=0;whiteSpace=wrap;html=1;fillColor=#f5f5f5;fontColor=#333333;strokeColor=#666666;" parent="1" vertex="1">
          <mxGeometry x="1751.75" y="270" width="120" height="60" as="geometry" />
        </mxCell>
        <mxCell id="3AthHkXCR67KAWAovLi--65" style="edgeStyle=orthogonalEdgeStyle;rounded=0;orthogonalLoop=1;jettySize=auto;html=1;exitX=0;exitY=0.5;exitDx=0;exitDy=0;entryX=1;entryY=0.5;entryDx=0;entryDy=0;" parent="1" source="3AthHkXCR67KAWAovLi--60" target="3AthHkXCR67KAWAovLi--22" edge="1">
          <mxGeometry relative="1" as="geometry" />
        </mxCell>
        <mxCell id="iJsYBSRhtJNTG5tVJpyb-6" style="edgeStyle=orthogonalEdgeStyle;rounded=0;orthogonalLoop=1;jettySize=auto;html=1;exitX=0.5;exitY=1;exitDx=0;exitDy=0;entryX=0.5;entryY=0;entryDx=0;entryDy=0;" parent="1" source="3AthHkXCR67KAWAovLi--60" target="3AthHkXCR67KAWAovLi--58" edge="1">
          <mxGeometry relative="1" as="geometry" />
        </mxCell>
        <mxCell id="3AthHkXCR67KAWAovLi--60" value="Water Filter" style="shape=process;whiteSpace=wrap;html=1;backgroundOutline=1;fillColor=#ffe6cc;strokeColor=#d79b00;" parent="1" vertex="1">
          <mxGeometry x="1751.75" y="160" width="120" height="60" as="geometry" />
        </mxCell>
        <mxCell id="3AthHkXCR67KAWAovLi--70" value="" style="edgeStyle=orthogonalEdgeStyle;rounded=0;orthogonalLoop=1;jettySize=auto;html=1;" parent="1" source="3AthHkXCR67KAWAovLi--67" target="3AthHkXCR67KAWAovLi--69" edge="1">
          <mxGeometry relative="1" as="geometry" />
        </mxCell>
        <mxCell id="3AthHkXCR67KAWAovLi--67" value="Hydrothermal Plant" style="shape=hexagon;perimeter=hexagonPerimeter2;whiteSpace=wrap;html=1;fixedSize=1;fillColor=#ffe6cc;strokeColor=#d79b00;" parent="1" vertex="1">
          <mxGeometry x="-260" y="240" width="120" height="80" as="geometry" />
        </mxCell>
        <mxCell id="3AthHkXCR67KAWAovLi--69" value="&lt;div&gt;480 power&lt;/div&gt;" style="triangle;whiteSpace=wrap;html=1;fillColor=#f8cecc;strokeColor=#b85450;" parent="1" vertex="1">
          <mxGeometry x="-80" y="240" width="80" height="80" as="geometry" />
        </mxCell>
        <mxCell id="3AthHkXCR67KAWAovLi--78" value="" style="edgeStyle=orthogonalEdgeStyle;rounded=0;orthogonalLoop=1;jettySize=auto;html=1;" parent="1" source="3AthHkXCR67KAWAovLi--75" target="3AthHkXCR67KAWAovLi--77" edge="1">
          <mxGeometry relative="1" as="geometry" />
        </mxCell>
        <mxCell id="3AthHkXCR67KAWAovLi--75" value="Resoplasma Generator" style="shape=hexagon;perimeter=hexagonPerimeter2;whiteSpace=wrap;html=1;fixedSize=1;fillColor=#ffe6cc;strokeColor=#d79b00;" parent="1" vertex="1">
          <mxGeometry x="-260" y="480" width="120" height="80" as="geometry" />
        </mxCell>
        <mxCell id="3AthHkXCR67KAWAovLi--77" value="&lt;div&gt;6000 power&lt;/div&gt;" style="triangle;whiteSpace=wrap;html=1;fillColor=#f8cecc;strokeColor=#b85450;" parent="1" vertex="1">
          <mxGeometry x="-80" y="480" width="80" height="80" as="geometry" />
        </mxCell>
        <mxCell id="3AthHkXCR67KAWAovLi--82" value="" style="edgeStyle=orthogonalEdgeStyle;rounded=0;orthogonalLoop=1;jettySize=auto;html=1;" parent="1" source="3AthHkXCR67KAWAovLi--83" target="3AthHkXCR67KAWAovLi--84" edge="1">
          <mxGeometry relative="1" as="geometry" />
        </mxCell>
        <mxCell id="3AthHkXCR67KAWAovLi--83" value="Arc Reactor" style="shape=hexagon;perimeter=hexagonPerimeter2;whiteSpace=wrap;html=1;fixedSize=1;fillColor=#ffe6cc;strokeColor=#d79b00;" parent="1" vertex="1">
          <mxGeometry x="-260" y="600" width="120" height="80" as="geometry" />
        </mxCell>
        <mxCell id="3AthHkXCR67KAWAovLi--84" value="36000 power" style="triangle;whiteSpace=wrap;html=1;fillColor=#f8cecc;strokeColor=#b85450;" parent="1" vertex="1">
          <mxGeometry x="-80" y="600" width="80" height="80" as="geometry" />
        </mxCell>
        <mxCell id="3AthHkXCR67KAWAovLi--89" value="" style="edgeStyle=orthogonalEdgeStyle;rounded=0;orthogonalLoop=1;jettySize=auto;html=1;" parent="1" source="3AthHkXCR67KAWAovLi--86" target="3AthHkXCR67KAWAovLi--88" edge="1">
          <mxGeometry relative="1" as="geometry" />
        </mxCell>
        <mxCell id="3AthHkXCR67KAWAovLi--86" value="Pressure Drill" style="shape=trapezoid;perimeter=trapezoidPerimeter;whiteSpace=wrap;html=1;fixedSize=1;fillColor=#d5e8d4;strokeColor=#82b366;" parent="1" vertex="1">
          <mxGeometry x="1120" y="170" width="120" height="60" as="geometry" />
        </mxCell>
        <mxCell id="3AthHkXCR67KAWAovLi--88" value="Magnetite" style="rounded=0;whiteSpace=wrap;html=1;" parent="1" vertex="1">
          <mxGeometry x="1120" y="280" width="120" height="60" as="geometry" />
        </mxCell>
        <mxCell id="3AthHkXCR67KAWAovLi--99" value="" style="edgeStyle=orthogonalEdgeStyle;rounded=0;orthogonalLoop=1;jettySize=auto;html=1;" parent="1" source="3AthHkXCR67KAWAovLi--94" target="3AthHkXCR67KAWAovLi--98" edge="1">
          <mxGeometry relative="1" as="geometry" />
        </mxCell>
        <mxCell id="3AthHkXCR67KAWAovLi--94" value="Thermoplast Furnace" style="shape=process;whiteSpace=wrap;html=1;backgroundOutline=1;fillColor=#ffe6cc;strokeColor=#d79b00;" parent="1" vertex="1">
          <mxGeometry x="294" y="490" width="120" height="60" as="geometry" />
        </mxCell>
        <mxCell id="3AthHkXCR67KAWAovLi--98" value="Thermoplast" style="rounded=0;whiteSpace=wrap;html=1;fillColor=#f5f5f5;fontColor=#333333;strokeColor=#666666;" parent="1" vertex="1">
          <mxGeometry x="294" y="600" width="120" height="60" as="geometry" />
        </mxCell>
        <mxCell id="44hGZPee7ro0TU98YWaO-2" value="" style="edgeStyle=orthogonalEdgeStyle;rounded=0;orthogonalLoop=1;jettySize=auto;html=1;" parent="1" source="Fcrjs0fXRwcgXbqQfPj4-2" target="Fcrjs0fXRwcgXbqQfPj4-6" edge="1">
          <mxGeometry relative="1" as="geometry" />
        </mxCell>
        <mxCell id="44hGZPee7ro0TU98YWaO-7" value="" style="edgeStyle=orthogonalEdgeStyle;rounded=0;orthogonalLoop=1;jettySize=auto;html=1;" parent="1" source="Fcrjs0fXRwcgXbqQfPj4-2" target="44hGZPee7ro0TU98YWaO-1" edge="1">
          <mxGeometry relative="1" as="geometry" />
        </mxCell>
        <mxCell id="44hGZPee7ro0TU98YWaO-8" value="" style="edgeStyle=orthogonalEdgeStyle;rounded=0;orthogonalLoop=1;jettySize=auto;html=1;" parent="1" source="Fcrjs0fXRwcgXbqQfPj4-2" target="Fcrjs0fXRwcgXbqQfPj4-7" edge="1">
          <mxGeometry relative="1" as="geometry" />
        </mxCell>
        <mxCell id="Fcrjs0fXRwcgXbqQfPj4-2" value="Penetrate" style="shape=parallelogram;perimeter=parallelogramPerimeter;whiteSpace=wrap;html=1;fixedSize=1;fillColor=#f5f5f5;strokeColor=#666666;fontColor=#333333;" parent="1" vertex="1">
          <mxGeometry x="2540" y="60" width="120" height="60" as="geometry" />
        </mxCell>
        <mxCell id="Fcrjs0fXRwcgXbqQfPj4-3" value="Pulverize" style="shape=parallelogram;perimeter=parallelogramPerimeter;whiteSpace=wrap;html=1;fixedSize=1;fillColor=#f8cecc;strokeColor=#b85450;" parent="1" vertex="1">
          <mxGeometry x="2720" y="420" width="120" height="60" as="geometry" />
        </mxCell>
        <mxCell id="44hGZPee7ro0TU98YWaO-6" value="" style="edgeStyle=orthogonalEdgeStyle;rounded=0;orthogonalLoop=1;jettySize=auto;html=1;" parent="1" source="Fcrjs0fXRwcgXbqQfPj4-4" target="Fcrjs0fXRwcgXbqQfPj4-3" edge="1">
          <mxGeometry relative="1" as="geometry" />
        </mxCell>
        <mxCell id="Fcrjs0fXRwcgXbqQfPj4-4" value="Torment" style="shape=parallelogram;perimeter=parallelogramPerimeter;whiteSpace=wrap;html=1;fixedSize=1;fillColor=#f8cecc;strokeColor=#b85450;" parent="1" vertex="1">
          <mxGeometry x="2720" y="300" width="120" height="60" as="geometry" />
        </mxCell>
        <mxCell id="44hGZPee7ro0TU98YWaO-5" value="" style="edgeStyle=orthogonalEdgeStyle;rounded=0;orthogonalLoop=1;jettySize=auto;html=1;" parent="1" source="Fcrjs0fXRwcgXbqQfPj4-5" target="Fcrjs0fXRwcgXbqQfPj4-4" edge="1">
          <mxGeometry relative="1" as="geometry" />
        </mxCell>
        <mxCell id="Fcrjs0fXRwcgXbqQfPj4-5" value="Cleaver" style="shape=parallelogram;perimeter=parallelogramPerimeter;whiteSpace=wrap;html=1;fixedSize=1;fillColor=#f8cecc;strokeColor=#b85450;" parent="1" vertex="1">
          <mxGeometry x="2720" y="180" width="120" height="60" as="geometry" />
        </mxCell>
        <mxCell id="Fcrjs0fXRwcgXbqQfPj4-6" value="Crossfire" style="shape=parallelogram;perimeter=parallelogramPerimeter;whiteSpace=wrap;html=1;fixedSize=1;fillColor=#f5f5f5;strokeColor=#666666;fontColor=#333333;" parent="1" vertex="1">
          <mxGeometry x="2540" y="180" width="120" height="60" as="geometry" />
        </mxCell>
        <mxCell id="44hGZPee7ro0TU98YWaO-3" value="" style="edgeStyle=orthogonalEdgeStyle;rounded=0;orthogonalLoop=1;jettySize=auto;html=1;" parent="1" source="Fcrjs0fXRwcgXbqQfPj4-7" target="Fcrjs0fXRwcgXbqQfPj4-8" edge="1">
          <mxGeometry relative="1" as="geometry" />
        </mxCell>
        <mxCell id="Fcrjs0fXRwcgXbqQfPj4-7" value="Blaze" style="shape=parallelogram;perimeter=parallelogramPerimeter;whiteSpace=wrap;html=1;fixedSize=1;fillColor=#ffe6cc;strokeColor=#d79b00;" parent="1" vertex="1">
          <mxGeometry x="2361" y="60" width="120" height="60" as="geometry" />
        </mxCell>
        <mxCell id="Fcrjs0fXRwcgXbqQfPj4-8" value="Inferius" style="shape=parallelogram;perimeter=parallelogramPerimeter;whiteSpace=wrap;html=1;fixedSize=1;fillColor=#ffe6cc;strokeColor=#d79b00;" parent="1" vertex="1">
          <mxGeometry x="2361" y="180" width="120" height="60" as="geometry" />
        </mxCell>
        <mxCell id="44hGZPee7ro0TU98YWaO-4" value="" style="edgeStyle=orthogonalEdgeStyle;rounded=0;orthogonalLoop=1;jettySize=auto;html=1;" parent="1" source="44hGZPee7ro0TU98YWaO-1" target="Fcrjs0fXRwcgXbqQfPj4-5" edge="1">
          <mxGeometry relative="1" as="geometry" />
        </mxCell>
        <mxCell id="44hGZPee7ro0TU98YWaO-1" value="Kurbash" style="shape=parallelogram;perimeter=parallelogramPerimeter;whiteSpace=wrap;html=1;fixedSize=1;fillColor=#f8cecc;strokeColor=#b85450;" parent="1" vertex="1">
          <mxGeometry x="2720" y="60" width="120" height="60" as="geometry" />
        </mxCell>
        <mxCell id="iJsYBSRhtJNTG5tVJpyb-1" value="Magnetite" style="rounded=0;whiteSpace=wrap;html=1;" parent="1" vertex="1">
          <mxGeometry x="1588.25" y="490" width="120" height="60" as="geometry" />
        </mxCell>
        <mxCell id="iJsYBSRhtJNTG5tVJpyb-17" value="" style="edgeStyle=orthogonalEdgeStyle;rounded=0;orthogonalLoop=1;jettySize=auto;html=1;" parent="1" source="iJsYBSRhtJNTG5tVJpyb-14" target="iJsYBSRhtJNTG5tVJpyb-16" edge="1">
          <mxGeometry relative="1" as="geometry" />
        </mxCell>
        <mxCell id="iJsYBSRhtJNTG5tVJpyb-14" value="Waste Burner" style="shape=hexagon;perimeter=hexagonPerimeter2;whiteSpace=wrap;html=1;fixedSize=1;fillColor=#ffe6cc;strokeColor=#d79b00;" parent="1" vertex="1">
          <mxGeometry x="1930" y="260" width="120" height="80" as="geometry" />
        </mxCell>
        <mxCell id="iJsYBSRhtJNTG5tVJpyb-16" value="&lt;div&gt;80 Power&lt;/div&gt;" style="triangle;whiteSpace=wrap;html=1;fillColor=#f8cecc;strokeColor=#b85450;" parent="1" vertex="1">
          <mxGeometry x="2110" y="260" width="80" height="80" as="geometry" />
        </mxCell>
        <mxCell id="iJsYBSRhtJNTG5tVJpyb-20" value="Hollow Crater" style="swimlane;whiteSpace=wrap;html=1;startSize=20;strokeWidth=1;fillColor=#d5e8d4;strokeColor=#82b366;gradientColor=none;swimlaneFillColor=default;" parent="1" vertex="1">
          <mxGeometry x="-790" y="50" width="440" height="170" as="geometry">
            <mxRectangle x="-810" y="60" width="120" height="30" as="alternateBounds" />
          </mxGeometry>
        </mxCell>
        <mxCell id="iJsYBSRhtJNTG5tVJpyb-23" value="&lt;p align=&quot;center&quot; style=&quot;line-height: 100%;&quot;&gt;&lt;/p&gt;&lt;div align=&quot;center&quot; style=&quot;font-size: 11px; line-height: 90%;&quot;&gt;&lt;font style=&quot;font-size: 11px;&quot;&gt;Player&#39;s core was damaged, emergency landing initiated, landing area: hollow crater.&lt;/font&gt;&lt;/div&gt;&lt;div align=&quot;center&quot; style=&quot;font-size: 11px; line-height: 90%;&quot;&gt;&lt;font style=&quot;font-size: 11px;&quot;&gt;&lt;br&gt;&lt;/font&gt;&lt;/div&gt;&lt;div align=&quot;center&quot; style=&quot;font-size: 11px; line-height: 90%;&quot;&gt;&lt;font style=&quot;font-size: 11px;&quot;&gt;Fortunately, core landed in a water, player needs to build another core to launch into more resource-rich sectors.&lt;/font&gt;&lt;/div&gt;&lt;div align=&quot;center&quot; style=&quot;font-size: 11px; line-height: 90%;&quot;&gt;&lt;font style=&quot;font-size: 11px;&quot;&gt;&lt;font style=&quot;font-size: 11px;&quot;&gt;&lt;br&gt;&lt;/font&gt;&lt;/font&gt;&lt;/div&gt;&lt;div align=&quot;center&quot; style=&quot;font-size: 11px; line-height: 90%;&quot;&gt;&lt;font style=&quot;font-size: 11px;&quot;&gt;&lt;font style=&quot;font-size: 11px;&quot;&gt;Researchable: metal conveyor, router, junction, metal drill, penetrate, &lt;br&gt;&lt;/font&gt;&lt;/font&gt;&lt;/div&gt;&lt;p align=&quot;center&quot;&gt;&lt;/p&gt;" style="text;html=1;strokeColor=#82b366;fillColor=#d5e8d4;align=center;verticalAlign=middle;whiteSpace=wrap;rounded=0;strokeWidth=1;" parent="iJsYBSRhtJNTG5tVJpyb-20" vertex="1">
          <mxGeometry y="20" width="210" height="150" as="geometry" />
        </mxCell>
        <mxCell id="pbiRxgmzWkfBwBTZQI0s-7" value="" style="shape=image;verticalLabelPosition=bottom;labelBackgroundColor=default;verticalAlign=top;aspect=fixed;imageAspect=0;image=data:image/png,iVBORw0KGgoAAAANSUhEUgAAA3cAAAJ0CAYAAACx0NoMAAAgAElEQVR4Xuy9C7Aty1keNvux9t5rP8/Z55wrCeOKhSRwghGWMcgggwxxKg6BJCYRsV0UNtgOEkIlEoJLSVHlcspOVEUVsYqHqfAQYB6lgBWMVS4gOEhIXFlCCMRbgBAY0L2659x97j77tfY7/9e9euZfvdbM9LzWmlnra3x8dc7qnun+uufxTf/f/y1FUXQrf1iIABEgAkSACBABIkAEiAARIAJEoMMILJHcdXj22HUiQASIABEgAkSACBABIkAEiMAQAZI7LgUiQASIABEgAkSACBABIkAEiMAcIEByNweTyCEQASJABIgAESACRIAIEAEiQARI7rgGiAARIAJEgAgQASJABIgAESACc4AAyd0cTCKHQASIABEgAkSACBABIkAEiAARILnjGiACRIAIEAEiQASIABEgAkSACMwBAiR3czCJHAIRIAJEgAgQASJABIgAESACRIDkjmuACBABIkAEiAARIAJEgAgQASIwBwiQ3M3BJHIIRIAIEAEiQASIABEgAkSACBABkjuuASJABIgAESACRIAIEAEiQASIwBwgQHI3B5PIIRABIkAEiAARIAJEgAgQASJABEjuuAaIABEgAkSACBABIkAEiAARIAJzgADJ3RxMIodABIgAESACRIAIEAEiQASIABEgueMaIAJEgAgQASJABIgAESACRIAIzAECJHdzMIkcAhEgAkSACBABIkAEiAARIAJEgOSOa4AIEAEiQASIABEgAkSACBABIjAHCJDczcEkcghEgAi0A4Hl5eW4I7e3txH+sBABIkAEiAARIAJEYFoIkNxNC2mehwgQgblGYGlpKdrsb0X4L8r19VV0Njib6zFzcESACBABIkAEiEC7ECC5a9d8sDdEgAh0FAGQuq3N7ZjcXV2B3J12dDTsNhEgAkSACBABItBFBEjuujhr7DMRIAKtQ4DkrnVTwg4RASJABIgAEVg4BEjuFm7KOWAiQATqQmBlZUV26qzObhlhmZtb8l/79ysJyzw9S3bubm6uo5ubm7pOzeMQASJABIgAESACRGAMAZI7LgoiQASIQEkE+hub0erqqmmNnbvtrdGwTE3uzi/Oowv5w0IEiAARIAJEgAgQgaYQILlrClkelwgQgblHgORu7qeYAyQCRIAIEAEi0CkESO46NV3sLBEgAm1CgOSuTbPBvhABIkAEiAARIAIkd1wDc4sAPMfW1tbi8SF7If6wEIGyCKyurEYrwzBMHGNzoy9hmT1zOJtQRTR3Q6+7S2TLVJo7hGXijyuXlxfU4JWdCLYjAkSACBABIkAEJiJAcseFMbcIQAuFBBeunJ8PovNzap7mdsKnMLC1tfVoXf64stn3NHeeFcKpskLA2tPkDjYJ/NgwhUnjKYgAESACRIAILBACJHcLNNmLNlSSu0Wb8ebHS3LXPMY8AxEgAkSACBABIlAeAZK78tixZcsRILlr+QR1sHskdx2cNHaZCBABIkAEiMACIUByt0CTPe9DheZpQzRQ+C9Kr9eL+hI254oJi5PQzOTvg+j6+tr81W+Lf9d15x07jm8yAvCx02GY+N9r6yosU1khwN8OmrulZbv+EHI5aoVwIWGZyfo7OzuTOpem7u3tbTSQtYn/shABIkAEiAARIAJEoCwCJHdlkWO71iFgfMa24TNmTaTzdu5OT09izZPfFi/dp6eJAXXrBssOTQUBrCFkxHQF5G49hdyF+NxpzR2In9PcgdSdnB6T3E1lVnkSIkAEiAARIALziwDJ3fzO7cKNjORu4aa88QGT3DUOMU9ABIgAESACRIAI1IgAyV2NYPJQ00cAu3TDKEyzY2d37mxYHFLUb26mh2ViZ86FxfltTUid7Oy5gp0VhsxNf35ncUZnZWDWkFgf6NDevJ27td5avP5ubm6iC7E7cMW3QhjfuTuRNXZjqnO9zWLmeU4iQASIABEgAt1HgOSu+3O40CPAizd2V1DwUr61lZC7PM0dPMguL63myW/rk7sLeJTRRmHu1xo+DGz2RTfndJvygaDf78fjNuQuxQoBZO7g4PlYx4nwzTt37o6SO7WGzgZn0aXS3J3IxwQcA+X6Wjzy5HcWIkAEiAARIAJEgAgUQYDkrgharNs6BLAzp02km9Lc0SOvdVPfSIesEbne/RWvRJWUJ5vcXUcPHz2KboZJetbXN6L9/f2E3Hk+d/DA05q745NEc4d/hw8eCxEgAkSACBABIkAEiiBAclcELdZtHQIkd62bkk53iOSu09PHzhMBIkAEiAARWHgESO4Wfgl0C4Dl5ZVoZcVmw0TZlNTzLixzsuZuK65rd9+SVPRFNHe+jYJGDdnrnXavW2iyt0AAdgewMUCx5A52BsOMq6K5G9u5U9kyI+VcAJ3cmeg4nTZzZXXFWHOMFCsHNcXX3B2rbJlm507Chl25vrmOQzY5a0SACBABIkAEiAARSEOA5I5ro1MIQMeEcDdXsnfukFAli9yFWyFkhWXiZf74+IgJVzq1kpLOwuog+UAgdhpKt2nsNDKsEA4ODuIPBv6unx9aub29E+3s7ASTu1GPvPMIuk8WIkAEiAARIAJEgAhkIUByx/XRKQRI7jo1XZ3oLMldJ6aJnSQCRIAIEAEiQAQCECC5CwCJVdqDAMlde+ZiXnpCcjcvM8lxEAEiQASIABEgAiR3XAOtRgAWBWtra3EfEZIJgueKr7mDFYLzKbuWrIUXF4nPGELsYI/gCnzstM+dbot/1z53WZq7m5vb6MRkOnRp7G/EYiE5b6sBDuwccIPeEQVhqBjfvPj+VSF3x0dH4mVn7TRwM0XmVmej8B+99NOi//zLvzxG+Nd/5cPRr//qryTrTzR1I9kyPc0dwzIDFyerEQEiQASIABEgAjECJHdcDK1GwGielG4ue+fOmZjbZBgD8Ql7/vlH8fh2dnaj3d29VHKnbRTGyR2SsUzWPPmaO9t2vtLYawKE8Z4oItLqBRTQuSrkbnA2iAmaf6oveO1ro7e+7Tvif/6R7//e6Efe/n0kdwFzwipEgAgQASJABIhAOQRI7srhxlZTQoDkbkpA55yG5M4CZHzu1M4xyV071id7QQSIABEgAkSACFgESO64ElqNAMldO6aH5I7krh0rkb0gAkSACBABIkAEshAgueP6aBUC0CvBG2x52RqCQcMEuwNXfM1dv78V6+hubm6iJ0+exNo3HMvpxNAevztdHP6+tbUjej6rwcM5//rf+NKov2l9yT7xp38S/eJ73h2f1/fI06D5mrvLS3iUncRVLi4uO6fBg8aut5poHfv9vvzdYgUcT0Sv6DR319dX0XmH0vRnjc353DnfO/NxoZ+sP4T6DgaJVyIwchpP/0JiWGarbi3sDBEgAkSACBCBhUCA5G4hprk7g8TLtda+5e/cwcTckg4kUHn48JPmvyhoC/LnCgia9gq7d+9+bDK9tbUV/fdf9dXR1va2qf7xj30setdPvjOI3FnNXZJQxdfcZXnktXVm1hB+KH9cAcFxXnBmvCaBjHXw9v3c2jom16+ssZn1t7kdJ0Xxyd2RJFCBp6ErekfTHzfJXdtXAvtHBIgAESACRGD+ECC5m7857fSISO7aMX0kd27neHTnjuSuHeuTvSACRIAIEAEiQAQmI0Byx5XRKgSqkLubm+vo0aOH8c7dyspqvDOHQcIW4fIyyXi5t3cntlnYlkya/+D1Xx9t7+4aPP7o4x+PfvpdPxVj8+Twhejw8HAiVgj1hBUCwhVRsJOVZaOAHa+22QgAd5fCH2PArh0Iniv+zt3JyUl0M7R+8Hfu2ja+ImNDOOaWZGd1WCAc9f6Dp2IcLsX2AH9cOZI1cXE+2fbiVZ/7edE3/a/fEtd91//zryL8cQVWB7RCaNXth50hAkSACBABItB5BEjuOj+F8zWAKuTOhUc6kqXJikNJkyrop6AXQ8EL/L98xzujB8MX+U8+98nol3/pAzG4H/r3749+6QP/PoXcwefuKJjcnamX+rbM3qpHhI3lhE/upA6KsUIQTeEImZUxuXIhHng6/HXWYywyNujnNLn7cy97WfSlf/Mr4iF82steHr1U/rjyj7/5f44+8IvvmzjElZWVaE1l1lwGgR5qSdGA5G7WK4PnJwJEgAgQASIwfwiQ3M3fnHZ6RHWQu9BdMSQ9cTsnIHc/9q9+Knrw1IsMfs8Jufvwhz4YY/mBp38x+uD7n04hdzeFNHfWPN2SyrYUo0/cUIlrvJT/m/LbiOauQ4bbRcZm1t9Worl76ctfEX35614XT9PLX/Hp0ctf8Rnx39/y5m+Inn7Pe4KmcW1tTchekqSG5C4INlYiAkSACBABIkAECiBAclcALFZtHgGSu+YxnnSGIgTI7JCS3BkYSe5ms155ViJABIgAESACRGAyAiR3XBmtQgDkDnYHLqQyLFumDRdEubqymTJREDboMmdOGiRCB6HTQ9kRzd0b3/xN0e7envk7wunu3r0bN/u5n/3p6N/9zE/Hf/8zf/bPSlbPHfP3SwlD/N3f+e1Yi2WzZSZWCOfn5xEyZrpyegqtldVtIeGk+9/TnghgK4GC5rQ2s6i3c5emubsRcncm2TLlvxZz0RgOkrBMjFeHZV5J6GvobmoTGBQhrv7O3X/8Fz4r+rtf9/q4W8eSLfPk6Dj++zv+5Q9Gv/vbv23+jlDWV//VL4xNzp9/+DD6tV/9cFwXer6xsMxhWHBMmB2m8u/Y2XMFa6Rtu71NzBWPSQSIABEgAkSACFRDgOSuGn5s3TAC+eQO4YLWCmFJXp61jYJNbJK8IBfp6mu+8LXRW7/tbXGTH/nBt0c/+kNvj//+Zf/NV4j26mXm70gu8o4f/qHoROwQUMbJ3UDIXZLIRYdlIhmLtVGwRGlaxfq5paf8h96uiBWCT+60792ZEL9ZEpMq5O7Vr/mr0T9+67fG0/L27/6u6O3f/S8mTtO9+w+i7/mxd4h+84H5HVq8f/KWb47rGpKv/ACB2UhClQ7bS0xr3fI8RIAIEAEiQASIQDYCJHdcIa1GgOSumekhuVOZQJWe0N+5I7lrZv3xqESACBABIkAEiEAzCJDcNYMrj1oTAiR3NQHpHYbkjuSumZXFoxIBIkAEiAARIAKzRIDkbpbo89xjCIB0IKtgornrRZubSgsmejxom1zZFE8yF5aJ0EaEviUhjqPebUXg/pQ/86nRF772i+Mm0JDpkLqjJ0/E38yGWi6vLEd37twVPdWy+fujh89Fv/YridYKers0zd2NaKzgkYfwTJTr6xuj4aujwAJgRbR0kwrS8gM76MBQDInO0NzB3uBG+oYiTY0HnpujSZq7kfBDWD8obRnGVzQMFRYFvV6SafJaQm7dMf3xoV+oG68hwWFsbHoNqZ07aC0/7zWvMbpPlJd/+mdEr/s7XxWfIissc0M88f6zL/0vo/5wvaKPWjf3B7//e9HHf+/34mOZbJlDXKAPPRGdpsPFxzRrvHWsFR6DCBABIkAEiAARmA8ESO7mYx7nZhRVsmUiecrDh5+Mk6jYJCFbtWDzhX/ti6Mv+uIviY/1f//oD0e/99GPmr9v7+xEX/t1b5CkLDbBysc/9rHoXT/5zrjuOLlLrBB8zZ3V65XTCfoDBQHTujn9ux9+aMhdhhXCwcFBTFCXxb/t/r37EXzcUAwRUck/QOzGyN3Q+sF45KlMm6GT4+vmcPw0L70qu5Jb29vR3/qar43wX5SnxBrjL/3lzwsid/5YXvHn/3z0uq/+6vifP/De90YfeN9747/TCiF09lmPCBABIkAEiAARCEWA5C4UKdabCgIkdyR3kxYayV06mZ3KhcmTEAEiQASIABEgAp1AgOSuE9O0OJ0kuSO5I7mbvBuatlO5OHcHjpQIEAEiQASIABHIQ4DkLg+hOf4duqS1NWsjgDIYDDJ94aYBRRVyB93S0dET42+HgmMtL9vQQZRer2f0fGXGu3fnTrS3dydu+99+5d+KXvaKTzd/R3jii1/ykjhM8cO//KHo2976z+K60wrLRD82NqxWDGWtlx2WuZWhuRsMzsx6cGVFcITVBMqt/J/1D7T2DcB1a8uGMaJkpfy/EW0hrCOctuxaNGc6hNMdA3O3YfwOJ2sC/XOcXyRrt0pY5p27+9E//bZ/Ht3d3zdd+ehv/Vb0I9//ffHYnn3mmeiTz3wi/nvW/4D27sFTT8VVziR09UyF3DIsMwhGViICRIAIEAEiQAQKIEByVwCseauKxCQucQTGpv3XZjXWKuTOGEFneMbZ8SbJWKyZ+FWpocIDD154k8oH3/909E++5S2K7PgJVZrR3PmZRdeEvGdq7jJ87o7ErPv4+CgeQ18lHfF1c1hD+0MylEfuzBwF+LnlETSf3Gkvvby2WR5++/fuRW/73h+I7t2/b8b+9HveHb3lzW8qtUb8RviwsLaefFwguasFVh6ECBABIkAEiAARUAiQ3C3wciC5I7lLspKOZpQkuSO5W+BbI4dOBIgAESACRKCzCJDcdXbqinccL/LuZR6tseMyvpN1GR/YhTdOOpN/LOzIFE1vn3bcbclUOBKOJ+GDrviE1LdCyNq5Q/hgr5dYA5yfX5QOQ9U7dwhRfO7ZZ+NjfeRXPxx9x//5rXGfzS6T2CG4ondITQp8bycLIZGhBRYBrsASYsQ2QrJlImPmpAIrhP5GX9kFSFtJ5e/KieyAYofNFYRIroilAArmGTtlbr4xJ7CCcCUrLDNr506vKcw/wkbTyOfYzp2yFchr6+/c3X/wlGRVtWPf2d2NvuGb/lG0u7tn/v7hD30w+rZ/9k9DpyOzHnfuaoGRByECRIAIEAEiQAQyECC5W6DlYa0B0j3joAm6vLTkzoTeKdLhw4QXek0c0LZsiKM+dpNhmUhIoZNSbKhQw6LLQJO7x2IT8M3f+Mbo8fPPm8PgHIeHLyiyg7BM64mHkkXuihBkE34oWjdHgEBes+bXH6Mm+quiqeuvJXq9CyG+us+6rlsf7nirQpgdOcK/lSV3IJuOQIK0anLXE+KK313x7RbOzs6iS7GRQMlraz4QKNL7pV/xFdGfe9nL7dwIqX3HD/yACe9FgbdfXYlMSO6KXmWsTwSIABEgAkSACBRFgOSuKGIdru9rsrLCMq1+7Sh1N66pkM4myR12z/SLOoiQM0AvOq2a3B0IqXvzG/5hdPD8I3MY61V3khARY2I+mdz5PndF+lEUq6xjTyJ3FxdhZupYVxv9hBiWJ3eYD7s7mOfDl+Wll9fW7Nwp7eWXv+510Utf/gpz3mPRGn7/d35ndCwm9XUXkru6EeXxiAARIAJEgAgQAR8BkrsFWhMkdyR3acud5I7kboFuhRwqESACRIAIEIG5RYDkbm6n1g4MO1MSvRf/7xFNVobmLsk8aW0F/JKl15NNP7N7VaYU3Y0qorlDn3S/emIVAPuAMmVWO3cIW1xethMKbZnVJ9q/j2nuzPwmO2qZ4xTt3+1VMtfQAt7eWKuDvFJl5+765jq6HO4Q2p1UtXOXkc1zbHdwRHO3FG1ntB06OMTD+tzP/4LoKbGyQBlIeOcv/NzPmf/WXbhzVzeiPB4RIAJEgAgQASLgI0ByN8droihR0lqwKmGZeW2zIC/a5yLkrs6pnhW5Azl3oaT5WIWTO5CZg+eeiyGCnjLNRsHHsQq508farELuJMGL03waXEraPNS5Rvxjkdw1iS6PTQSIABEgAkSACAABkrs5Xgf5L//pPnd5BK2KXo/kLt3nLm85ktxZhLJ0fSR3eauIvxMBIkAEiAARIALzigDJ3bzOLJg7djAK2Apw5y58MXDnLsGKO3dh64Y7d2E4sRYRIAJEgAgQASJQHgGSu/LYtbJlr7cmOjLrfWb8viRVvtNo5WmyLLmzWrkb0VtZK4Timju/7bWkk7+8TM+8WKXPyOgInzlXnD9e05MzLXIH4uR0aBiTDUN1urRJ85t4AsLWYsSeQmno4HO3JZ5uzifvQrJ5Hj1O7BtWxBohVI9Yhdzh/GuyZs3YvLBMWCEsyxpG0do8/B1rWeNy6mnustpifWoPx1WjY0z8AutaOzgm7ClcuZFrSdwg47+bPl9dmb8b6xG5/lAHBf8OexFXMH69zuvqI49DBIgAESACRIAIzBcCJHfzNZ/GxLqsJkuTu/yEKuEhndYaIHlR9SGv0ufnxX7AmX4nvm/1v6j7fZ4WuRs3bdfzi4QqMPq247XkPSF3T54cRkdHSUr/pWshFsh2IwXE7b4kEXEE7uriMjo7SkzLi1wWVcidyeA69F7cVL6Dvp3BYDCIHj8+iLu1vb0T7ezsTCRKeW2L6AmL4ODXrYKLIXeiI2QhAkSACBABIkAEiEARBEjuiqDVgbpViBLJXfgEk9wlWFUhMSR3yc7dsdkpt+Sb5C78WmRNIkAEiAARIAJEIEGA5G7OVgPJHawBuHOHZc2dO2sR4e/6ceduzm56HA4RIAJEgAgQASIQI0By1/HFAL3a2lqi6+n3t0TnE6bJ+szP+uzoM1/5yhiB973756NP/OmfmL9b3dxRjuYu8VDL0utdXkI/dBKf50JCALUGrwohPT4+VsdaCtaJVZ32l37ay6Kd3T1zmOvrq+gTf/LHsSbKhqEm4z0/H5jsjq6MJq65iTAGt2ODMMmNjQRX309wfH53Yk0lcD0+PorPA82X1pItifYxGkooof0yGrDhTpHRh60k66gIPkV27ixeiUbS7NxJOCZKv9+PehJaatcfcDmKtXEg7NABunIjGjSnT8O/QVvq9G15bZfEJ9Bp+YqMs2jdIriYMGju3BWFmPWJwMwQgFUMfEdRcP0Ozs/i++nMOsUTEwEiQAQEAZK7ji+DKpqszxPz5ld/wWtiBN71k++MPv6xjw0fVo50ZCVUmUzufL2er7nzyU4Vcgct30jSkBnMZ5KV1O4UVSF3huwo3Vz+/CY7ldAeQoPoitmhUibmSzApH5I5m8AjIZU4b39IsopCWITE+MfW5E4nVAF5e/joUXQzJIJ+/84vzqML+ePK3bv7MSnOa1t0fGXrF8GF5K4symxHBGaDAO6XLqmTfz+dTY94ViJABIiARYDkruMrIf/lPz3hBsldPZNPcrcabfQTop/lQUdyp3ZwlfE6yV091yKPQgSmhQDJ3bSQ5nmIABEoigDJXVHEZlwfRAJ/XPHD9nSqfITaIVzNadBgkYAwTlde+aq/FH32qz4n/vuHP/TB6LlnP2n+jh2TZ5/9RGr69b07d6Ld3Ttx20cPPymhl2fm77BPgI2CSzePnbXRMMVzCVMcxG03NvoqvX+eN9/GyG5UF3fusMM2kgJfYWV2ewSPZH5Hd99GdzmRLVPv3CGj5PNx215vXUJ2k/n2d+6QjTEJB5Xzql2+Ist8WdaVPs+VhKnq3dRTRWLM2pKQS1fSd+5uZBfyealrQzgR/qT7h7DeC2WvsbOzG/cBxz88fCE+j9+2yNiq1OXOXRX02JYItAsB/9k7Tu5OYhkDAiS0jZDf1h+Zvie2a9TsDREgAl1EgOSuY7MGT64N0Sa5ghfedaXRGid3OzEZBKE6OEhe/jckBX1fEYn/+r97XfSyl73cHBqeWz/xYz8anYgebFL53L/y+dHnvvqvxD/923/zr6M//IM/MH83ISqi1wsld5qs5huvd5/cOYwSrBIirLHA7/k7swm5A6E6OUm0fv6xNLmzEyfKu6Html+3yGUBMufsKNAOhBMfFVwB6b8c+ieatSH6S0cq08gdfj89OVWau+SDhjuuOwb+PpC1De0jCsaCFy83pipjK4KDX5fkrgp6bEsE2oUAwtz1RywTRq40d9qn8tpYmdiPnSh+Wz2yW9G3n6p7YrtGzd4QASLQRQRI7jo2a772CMROJ+DI3tnJ1mR95d/5qugVn/EZBhGQhHf88A+lkrsiIZ15mjs9BYtC7hKCMppQxV+ORcldlp/gOLmrZ/H7afuzPOhM+KGn9XMJVbTmzpE7TeCyeotdSLdbaPwON0F6xwlhPSMOOwrJXRhOrEUEuoCAn2XXv19lJUTKytBLvV4XZp99JALdQoDkrlvzZcIXdeILkrvuJVQZ+WorIaw6WybJXZJ9Djt3JHcdu0Gxu0RgThEguZvTieWwiMAcIkBy17FJrULukOji8PBxPOJVSTuPP64gc+aLX/IS81ekq3/03HOx5g4apj/4/d+P6/4XX/bl0d/4sv8q/vu/+5mfjv74P/yR+fvl5WX0u7/zW+a/KOPZI0c1d3oKoA+0OjK764L+6eyR+DcXSuj6GUoAmpzq1VWk6bd99jeMbHbQRGOo++FnFvX76Gsq8YIBuwR7nlHNndU2nqYOs6mdu2vRxV1eXMTn7YnOT4cv2c7anxGCdHwmWTrlvygYy9pQB1pl5w76O5dZExOANOXcuSu+4oGZCzUz1xcsJ5RGsvgR2YIIdBMB/1qw2YfX48Eg4kBny9QRCSaa4Sy5F/ttR54BsB1S90RYvGi7mG6ix14TASIwSwRI7maJfolzVyF3eS//ujvbOzvR137dG6Id+S/Kb//mb0Q/+H3/V1zl9d/w5uj13/CN8d9NMpbnbDIWP6QzzxpAn3c8LHOU3PnG3H3oHhRBLQFp5SZOY+hIJhKi3Lt3Pz5uNrnDzl0ixPc744dljmLVDnLn9znLpsDPCqnbViF3lSexgQN0MSwzz3KiAZh4SCLQSgTGnrUFyd2pInf42KSJ4Qi5o8dlK+efnSICXUaA5K5js0dydxgdHT2JZ43kbjShyix27kjuJt9ESO46dnNld4mAQoDkjsuBCBCBriJActexmSO5I7lzS7YtYZkkdyR3HbuNsrtEIBcBkrtciFiBCBCBliJActfSiUnrFrzrtCYGCVWgy3JFZ8tcXpasgcrnznrtLMd1Eaap/cj0OaGb+guf9UrxxbOaPFgo/NZv/Hpc5ZV/8VXRZ332q+K/v/rzXxO96CUvNn8fSOr7n/m374p976Dd+8iv/HJcNytMEf1DnzFOFGgPLpSeC/ofrVttm2EAACAASURBVEdASKarO6upRKghQk9dWCb0Fbu7u6njhR5tednq5jAeeAJqTyQ9Dqu5S+ZX/4bzQUepNYd6fn08mtLc+efB/ECr5Qr8FbUtAfCZpIfDPDtfO4j0ltVandXcVjmvGE2MzKvVuNqEMSgI24KNhFkH8IYU+xGnRcS/67Auvx/w+atDC4d5MJrHWOO6GrnspTgnQmzxx5W6zlsFV7YlAk0gkHctmBB5uXe5oq0Q4ut3KAg3Eggdlum11f3Pu/Zhq+DuE3njxrNwTO+c0ghdvZBruw2a9bxx8XciQASKIUByVwyv1tXOT5W/FRM6PzkJiAH+1FHe+m1vi17zha81hwJ5e/p9742TiHz8Yx+L3vWT74xPk0fuRo25s+0b6uh73ccw3m2bm6njtV6EljSD1NlsmYmxt+5PFrkDiXoo5vGO7Jovzf2t1OFMi9z5HdA2BXj5uH//QZwURtc9ODiI10xb7AyqrI0qFhH+y2EWplX66ONs1q7oWF0x9whF7vRcVjkv2xKBtiGQdy0Y3ZxP7oYfa3wtsbl+xZ7FFb+tHrtvD+Nf+76GOQs3++xJfwaMnff4iOSubQuR/SECNSBAclcDiLM8BMndLNGffG6Su1FcSO4sHkX8/0ju2ndds0fzjQDJ3XzPL0dHBBYJAZK7js82yV37JpDkjuQOCHDnrn3XJntEBNIQILnj2iACRGBeECC56/hMtoXcvfTTXhbt7O4ZNHd2d6I3vOkbRXdm//7sM5+I3v/0e2Okf/PXPhL95q//2kTkoSN68uRJrCfCA9f5uqEBNGWz1tjlLRmMAdokV/r9voRL9uO/H0sozMWF9QDEWKDPSxvTmegX8WdSgUxqeXk19tUDVk7LN7H+lYR+apPAvIHU9DvwcLoO6NBsGKn1udNlRXSIWjOo572mrkz1MBiz1sVBTwh9jSvQljpNq9HdnMASw+JyKRrOs8HkecfvRq8noV8oaDM4P0sNr8I5equiq5tQzAvt1lasbzQfJsS/yxVfc1fkvFMFmycjAiUQQLjkyorVweZdC76dAbTSzssV92/szLv7uLl+1X3bbwtNcnxPxPU7GKRe++YaVPKJ84tBHIqPPuPZMuoLm1y/WZDcwF9P6b2vrq5T/VhLQMsmRIAIzBABkrsZgl/HqdtC7vRY7t2/H33vD/1YdP/BA/PP8L+DD54rH3j6F6MPvv/picMvqiOrA8O6j4HkKtrAdmdnNya6ONfzzz+Sh7l9cQeBefDgRRM1aPjd9/XTfbUvI4kVQt44ZqW50/0ynoCn0BiOk7u+MgXOG0sXfy/i/+drdvzx+iQrDVO0MwbKSivkr6Fts4asy3xRcpd13i7OEfu8WAjoe47xWM24FnyCpjXCy3Ifvy/epu6D1FhCFc/nDglSNLnTibH8az9L9zruC1tec2f9aBOd4GKtBI6WCMwXAiR3HZ9Pkrv2TSDJXfqckNwlCYzu3t2PNiTbLUpeQgaSu/Zd5+xR9xEguUsSqpDcdX89cwREwCFActfxtYC0x/gy7wpMvV2ol9vZcaEifiaty8urOKzEvWDWkRb5zt270f/2f3xrdHd/33Tr4HmxUfjNJAzz1z/ykeg3PvKrE5FH6NqjRw/jsBOEzGxsJCGNXZiua/kq63bm0F9kL0PomyuHh4cmBTUKwijv3LkrX3wTiwo9RoTqnUqK/EkFIYyY70m2AhPrzygs01pw2J0hS+4QfjieHXRDLB9ciFQX5rloHy8kVNfNO9relevE2VzkkTuNIdqO79xNxhR1seOg7xG637CbwNosv3OXnBebsWlZX4ti5dfHWh8uodxDAcs67mO5J2KFmSDgXwtZnfDXpN9Wk7u8awEWRNrK5OjoSWzTg2fs3t6dOCwT4di43l3x2/phmTfXEro+DFUf27nzwjJ1gqrE69TtvPdGMjVnY2PDMl3ouDmvetbwOprJ8uZJiUAtCJDc1QJjew6i0+z7Pne93miqfOz66Zc+aATSfO+KjBAPUBBM/UJ/o8LwemIDgL5MKuYld8QawD60uleSsEP4t+mXepBV95IA3cPZWaK18seJ+Un3LSqGzazCMjf6G7E3I7RlZ6fQh02yfig2nq6tCYRiaf+/HdHouLnNI3eWoCW6OVyrl9dWtwlvPEuYx0Nd8Tva4VqfVMwLrdhnLIknJkpvpTeiD8W6HWgrhIzzmh3rDJ1glfnqm2vG2ofklSKp4/OOxd/bh0BWmLHfW39N+m2hV3P34rxrAUQIzyZXNtbR1vmVyn1crA/cNYjrDR/tXPHb6n6CGN6TkE73Edb3uPR1r7h/Ot87E5a5sxM/a/HcxQe/kGI+tHnkDs8iV+q0SgrpD+sQASJQHwIkd/Vh2YojaRPzvHh830MN8fZ1kLs8IGwo6eSXzYTcTX5RzTt2G3+Hr58md3j4ap87K2pPezEHVpNNzIuOdabkTvlBnZ4kL0FFx9Dl+mPkTl7KjIG4lBByp3Vz8NDSCVWOM9aQrxXSGJp7xKanucvwucs6r58dtM65KqLHJLmrE/n2HasYubsypMsVv60xIh/em/KuhaOjIyF3R/Gx9Jr0w81xz94fRq6ggd/WJ3fa+3OSz532mtS79ksmkct2TAyL+9wlHqt+WKb1o63HB7d9q4g9IgLzjQDJ3ZzNL8ld+yaU5E527kjuzNf2kZ07krvgi5XkLhiqua9Icpd82CG5m/vlzgESgVIIkNyVgq09jZCdS6fRt2GZLrWz/ao3miY50X65HQM3mmvE/QemyvfPC50ZQgxDCvqLkNG0gpTMMym6/+heqMgnp7P4Ioo/rvR6SL9tw3mA94Wktk7DHTt8oeFoY90wgpPkX5cwvsD5rRN/E5apyB3CVHPXmXR1GrvIdY4z71g+uVuTECpk2XNFX8d52fZ8zd1xSgZSHNvs3KVly5TrcLsv94jh9ejrbPK0fvq8ZudOLBri+wmsH0R7VKZAi7oi9wlX7G735FBu//hm507tOOjMhGX6wjazRQBrEJo1V9YQ+ZGynv2e+msSa0jfT4vs3CGy5VQ00PF9XMKdYd+S3MfP4/vaioRraq047nmX8mdSwXUPnXoclgntm7qOMAZYK7hirn153qIglNSEZQ6vX4wN7wAhBaHxWgLha+5sWOYgPhSey01pakP6yzpEgAiEI0ByF45VK2tWyZbpp9nX4YJ5g/VDK4uEdPo7WfpcRdP75/Uz+HchE0uaVMoLxe3q5CQnwcecdUUh64bQzbhochfaFZCMeQvf9MndQF6c8FEEBWT/xU+9JDiVem3kzkv/Ds3cw0fPxdO0J16Ve7t3Rl8slb+eT+70S2mV8Mis8Lm8NZSVOj6vLX9vHwIgZNi5dSUrzNjvvf+RxP+9CLm7OId2ejJBm3TerHBQ/5m3uZUkxsrrsw6NNjt3Qu6SpGlVyN2oFYIflolkK/P2wa19q509IgL1IEByVw+OMzsKyV1N0JPc1QTk+GFI7iwmJHfhS4zkLhyrea9Jcjc6wyR3877iOT4iUB0BkrvqGM70CCR3NcFPclcTkCR3aUCS3IUvMZK7cKzmvSbJHcndvK9xjo8I1I0AyV3diE75eAjncvotnLqI5g56GK2JsXqbsAFYzVRS2er6wlLZX19fx+FoOBtStWu9Uah2L6ynGbUkZHFJD7gmzd0tsMjQFGb1GzjolPcIgwkOhZGxjIRhmikKnNDKYKYfYKLmbrh2zHiHGSNtaK/TliwZPck8FZ/cGZ3qcH6gL7u3n6RDx3Wp5x2eWZfKN0t7AppMmyU1d2iLUEynpcF5L4dhl8B+a3NzRMMzGCCU1Gpi/fP64WTmOhfdnSvov7vf4H5h5j1F1+rrBHX4XN6aMKnjleZO73TgegCWuZrPvJPw98YQ8NeGyQCpwzILau5G9GtyzenraiQsU55fq2LRI66cZmzmvCpzLPolanG1ni9TNaXm+h2GXKMBtHn6Oe2DB4sY9zyF3jTd/kY8LlWmXBOWubs74q93FRg6imuvJ89ep8m32TJ9K4REc6fvz7htIQM0r6PGLgMemAhUQoDkrhJ87Ws8rWyZWRkgi6Ji+2wF89O0QmjMGqCCXs+msk70JYW8hkBWRWfXtuKTO522X79AHRwcxAJ+o71UKfrbNqYy/fHJnT6GMUEWfZv+yKF/P3zyQnT45DD+pwf3nxIdUj+5ZkpaIYCAPfvcMzFhg4k8iKMrvrYWmqNQcudjNGq+nD2/vq4KL/dFEqqkpY73U9aXmUe2aRYB/9r3SVZWgiC/Z2OG4EgSonwbsz4ajJFKJCZSFj6Ds0H4h7cMyPJsFPymY1YIe8l9A8/lw8cHQRMEErl/Hx+UbFKYcXI3aoWgNXf2OX1EcheENCsRgekjQHI3fcwbPSPJXTi8JHfhWFWpSXJn0SO5Uyncc8g7yV2VK67bbUnuRj3ySO66vZ7ZeyIwCwRI7maBeoPnJLkLB5fkLhyrKjVJ7kjugAB37qpcRYvTluSO5G5xVjtHSgSaQYDkrhlcp3bUnuhW1tZ68fn6/a2oJ7oBlCXRLG1tbceecvCx07qddQm/wh9XcCztv3Z2Bi3OZM0WNAXa8wahHS52v+jgfS0O+lH2WEXO3Ri5s+AX6Upc91q0F5c3Nj0+CkKDECqXVkwYZjxFo752pTrQQKNQcnciHlJXl8nYszQqDXSz9kNCR+NCGHFwUbSmXk9+WCZCx144fBz3yeiA1JrSmldoE+/sJT5Z/kBOz05GfLP833GfcAXn0aGh0MzdKN3c7s5e7DGG8WHO3D3i8vpSfO7OUnEcCSfDzt3WVqquclxz1w/2e8zS3Pl9hu5Rh+nVvgh4wCAEMN/uPmftcJK1kae5wxrVzyncN5xuzoQaqjVp1oYKy+z3+1FvJXl+6s764aAD0aZCc+pKb3VUKx400JRK+j4B3R/G7wq0bto/Es/0nnhkomA9w6vOaVkx9rWN9bCuyOMC/nm4L9lnjdgoqPNaK4TJmjvo4k9MKHiYDEBrdcM6x1pEgAhUQYDkrgp6LWhbJFumjalPTIbH28IA3T40pql9O5OXTydyn6bPXaPkruTauBJidyqm5q6YrIGKgI8c1s/wWfKcTTcLJXd1aViaHk/o8U1yEiE8IcUnd77fnPmIM0w8g+NleeT55/P1evp3XG/wEEv7mOIncsnS+vn6Jr8fPrnblpfUtPNWSqji6ap0AgpzX1P6RGNyLQkqWGaLANag01RiTei1kad9803qUT8hd6OG4D65y9Jy+uTu6OjI6Mxc0X2uEz2cF/dMV/zz3r27Lwbp9nd8eHn46FF0M0xyhEQsO6LBCykgZkdCDB1Bw3NmT47tyji5S57TRTV39MgLmRHWIQL1IUByVx+WMzkSyV152EnuymNXpCXJXT5aJHejGJHc5a+ZeapBcpfMJsndPK1sjoUIzAYBkrvZ4F76rPiqqb9229DKJAxDWyHghREhHC7sys+GNSks04Vk4cscMjVOI9Uxwl0QHoWCvvYl/XTnwzJLzvCVfIkdXJ7HrfElFrs2acUQ1JaXnoQN63BfnYp+FdkZh1+hF3nnzg9F88MysaPeG+6qY7qRhtzZDCDN+lMPXhRjbMJBrxILAtgkIIRqUsEOB+4DadebtTNIQmXv7N6N7zc4jw7d9nfu/HsV6iIMDAWhpAg9C925w9jTMon640KfdRp67IK685rMhBJKalPP2yQ3OuTN2sHM3j6k5Zd05e75awP3fNwLJq0NzL3LDIvfUU9nTsV8x+GB8nzE9eDWFXa2Li6T3fMiO3c4jgt/xHnPJOpF2ypoO5LKgKgDLK+M2uH4593Z2Y2tEhAdcHj4QhyWCWuD7Z2doO74Niir8pzRbbPCMtF2MMD7QdjzB9fYpZoHbcEU1FlWIgJEoBACJHeF4Jp9ZTzY8CB0ZSyrnLww4QaPYl8Yd2LN3aXomRACGbeFX5AK+Ts4eD7WFKDt5pylovdnr407d7NfYfX3AC/XjrzjBf3evfsTPZ8WmdyZl6XzROMKMry+loRmZc3Kslyre3t3YvIDvB89/zBugpfjrA8EWceGJkm/WOPYab6LPrnzd99MWGb8EUfuTaIPTiNs/n0N48G5Qwp0gbCVcEWHg+Kl8kTugbFOUMim1gni5R/EmaVZBHyTeqN9G368MM8ttTb88EiERkJnFlLw4RNhjK4Yaxlfc6c+muhjQif2wguJ7hVh0eh30wXXCD54uuKfV99PTVi1vA84T1D43vXWJ2sIx55/8LnDh+GhlteEKKv3A2vDk0gENEHDdYsPyaEfXHRYprkGM6xbmsaXxycCi4AAyV3HZhkPOoSwxATN897Z3E7E1tgF25a/h+7cPf/8o/ihMk3t26ymgORuOsjrLIl4Gbh//wHJnQe9/Yp+GpMO328uk9x5Hnl5er0is46Xbm3krImSf5xccqfNl6Gryvh45JO7h4+eCyZ3IHZ7u3cmkrs843WSuyKro3xdn9yNmIl7ayNP+5bVC3y83N9PJ3dZPncgd4+VZ5zf5/Kjz27p60D982ZlncWu36pKsJZ1JjzjexI1kW5inu5zZ3SR6t0iDwt65OUhxN+JQL0IkNzVi2fjRyO5qw9ikrv6sMw6EsldPs4kd6MYkdzlr5ku1yC5S589krsur2z2nQi0AwGSu3bMQ2YvoLdxifUNufPDMlWoCFIZa52AxFzEmfKT/2VPhxh7F8KJv7/wwgsSkmTDMPBlbk3CwqahfZvVFJDcTQd5aOxcNrelZYQR9eN1tWzCD22o06KHZcISxKUlh7WI1thlzZS9VhP7EGhbYH/gCnYBnZ6p6Iz7O3cXFxex1s8/ltm5k9BLV0yyJ3Vv0rt+Rg8soXdYD5OKr33Dl3+nm8sbA3ZroIdyBWGrLvTsFincBRun+UEInO6z2bmTcDRX/EyMeefm75MRwBrVa3DNWxtmB22oucOa2O5LxIleG0oHeXFxGV3KOgwpK8g8OWINgLWgWhp55WSN5ZXoVs+V9QGew1rrF3L+MnWgpdXj8887cj811/56fD8FZiurK/FpEbWTdo0V3bkzOt9hVs4kKijM8gdZuqH5N2gb3Wti34C/p4V6l8GPbYgAEbC3OarHW7wSihq66jAT3IgfSaile7H2Q1REeR4tycu1K/YGnCRPaDEstXSN5K4WGAsdxDzYJcGH0zzpNbnI5K4QiF7lKrt+eef1yV1W/TFy54WMF7FC8O0biiSvqGLf4Guy9K5zHlb8PR2B3IiTDCuEKuGR/i7Y9vZOtKMSjhwcHIzoyvQI/D53cX5Bbld6yTNej6EoufPb1hWW6Vs0dRFn9pkItA0Bkru2zYjXH5K75iaI5K45bNOOTHJXP+Ykd6OYktzVv8aqHpHkriqC5dqT3JXDja2IQNcRILlr+QyS3DU3QSR3zWFLcgeD4XAT8yozQXJHcldl/UyjLcndNFAePwfJ3Wxw51mJwKwRILmb9QxMOD80c9DcoEAvsiUph13GSz9zmJ9uHJoYePuYIgG3xgNoeA4QxRUJxYyL0qLg39YkcxYeBqaphM/hWHPl+SRjWhLNTVyg41B/BbZpCoJreVGnN89wWQlupyqzY94lhJA6p6ex+orLiWvS6ENSZyDvLO37fWrkTtC8lnBqt5Rxz4DOro5i/cjCjuRn+PR30HRope+x5Z/BetUlXn2rEj7u7oF5vYGNhPNVRF3TVjR+5r4m1z98/9x9zfjcqbTz1ttLae4EV+eJl3de/q4fLaIFgz/ncPGY55bO8pyhuYPuFLpHN0f47/V14qcG/zk9v1m44xrUnofLoknT6ftx3LRnHOwFtMYOWjatG4S2te3PBOjt9HihcXYaPNwvDDZDPSN+W5V3D1d8nzuNM65FeOgWs0JINHewsnAeeSacWzS1ruDviyQP4X2DCDSBAMldE6hWPCasDtxDxaQcNkbk9g1r7CHp6Vq0hsDf9fP1B3439596KtqQZBfmJUhu+PYGPEeSTHmQj5A7BYBJSiEvI2kJZMwDZ+jRVXF6O98cLzQHTw6CX2z2xHdsvTfZH0qvSb3uOw+SDGBa5K5JrHyClnUu+OE9uP9UXMXXzeE355kH8vbsc8/ECRr848KXz5CDEiXLvmHMCiGH3JU4PZsIAlUiTvBx8uGjRCtep/bNt7oocs9B0qK19WRNdlEjDJsE2CXYZ/xNdKRIFvTPeyOegPjQkfjc6YXt2yzlLXprhZBG7iQBlOj9XfE/sOQdm78TASIwjgDJXQtXBcldQ5NCclcLsCR3YTCS3L0QHT45jMEiuQtbN/NQi+SunbNIctfOeWGviEDdCJDc1Y1oDccjuasBxEmHILmrBViSuzAYSe5I7sJWyvzVIrlr55yS3LVzXtgrIlA3AiR3dSM6PN66eMSl6QIQknQ+9JObdHrEsbvwQBPbbjR3Kiwzw+cOmoA4tFBCKi8vRYszDK3Ef7M0Ate3os8b1jVpkhGm6DRQcvpbrddrCLdaDwuN3bUOKx3V2Olz+WGZ8NSCF48rCFnRnl0I0Wy73qJWLNXB6iR3ek3qdV+l71izqz3oJyeLxeAj5fyaqpwnr+08kDszPxK+FVRweam65j6kBHvm3uLCvM1PSv/rnQB6p1CPTYTt4R7pCq5NPb+3uHcNFYk38LmD5m6ovTVp2JU3H0PCgmY6qBK0ce4SxHNpzJ9VdHeuQI8XSxFw/RqvNnv9Gt2cPMfqKFifWAOubPRFDzzUmecd36xJ5b3XxbBM/5pcWkk0teZ+payQ1kWDjz+TirmOjo/kOgq7N8B/1+n5TNsTaTu8F/hWCP41OBBN7DTu13nzz9+JQJcQILlraLayYvnztG+6S1W+gOLmeXpyGqyb055O/nnxkna7mv4y1hCM1Q4rD5ElJcTPOphP7mDYeniUhJRtiuGyfoE0RrKBD7Zqg2hf6zrJXROja4t+ch7IXZH5uRZSNVAaHV83h99QBwVzhHtkKIHL6ge0edq7zPeqW8JHqeFLOV7uj49PVDIH6n2KzHHZulWyZeJ5CSLVRClC7vzzd5Hc+e8Wq+u9+BrEB02d2GRLPAHxZzK5u44OoIt0ydtyJgdaPnwgRbHXoE6okn0NWr1ePeS+iTXEYxKBNiJActfQrJDcNQRskcOS3BVBK7guyV0YVCR3o0lRSO7C1s081iK5a9+s4sMKyV375oU9IgJ1IEByVweKwy/R+is0QlB02mR9GpN+W4UCYYdNZ6U0KeGHEWV+WGZvtSfhLTajJYpvhbCmbBSMncF5uJ1B5ssXdu4khCMuofnR0/BNzcKJeK2cSQnN4CnRN6E7dzijma/huU16ZjVHyPLnMv2hLnfu6smWWdPlN7IDhHBMk6I7vobEGmBoLYLzTSvz6eKRu2u5LhIbgVW5V+F+5Qp2wxESi4J7JULXy+7c6ZB3nGNLwr7i80iK+kvZWY8Ldu6G9yvsGiDc2u26+2nYza5fSoZAHG9Rd+urXqdtJXc9yR45YpsRGKIJPLq+c4drYnUtCV/HrvqZWvvInL2hJCB6DSAc80iSJYVeD9s7OxKWaTONWpulxOrChmUmVgj+NYh3JdhOuBJ6zqprlu2JQJcRILmrafbWYEkgf1wBAdMvNvo0CH84OzuL/2k8PXNfdAD2pciGR27FfjIgIJu+5k5pFx4/Poh9mtAW4YRlX6CyoDH6O6U/KARj1o6a0fYlWo2x4xbYjSvSJxPCeoZwLavHMKFe27vxIXwMSe7aRe7gDekIHB7+Lxw+jrVimMtdsWNwheSuyJXRvrog7nu7e0qX7H0NknuT87VLLmD7v3y9D14a9Ye2LM0d1hWI4VzZw0xpettK7uBx6EKFsa7u378fe8zmQdN5cucNEBYJK0L2XIHXIN5NJpVYthH4DoBrzIVWAuc7+/djz13kBTiTZ68r/jWowzJ5DeatSv5OBCwCJHc1rQSf3IGApQm1/V2hLO+dOn3uahqqOcwtbuplE6xkZK00x4aYPt1NPNWrrsr48MJmEi04cidEHf5saYXkrl3kDgTOGeriBeDxYdI/XJt6Lknuqlwps2/ryF2qgTLIHT4QTShF9T76ENb7M0kEMXskutOD9pI7RTpkzdy/B9Ixee34aM8juUM2TVcQyZPnc4ckMyHlRPncLUsUxb4i0eM7dzhvQio1ueM1GII26xABkrva1gDJXQEoSe4KgNW+qm3U3JHctW+dNNUjkrumkG3uuCR3zWFb15Gxc0dyVxeaPA4RmC0C3LkriT+0cKvqC9+ahEbqsEyzcwcN14QCzd1I+m0JfUAIhCvLclwXBriM0EqEZQ6/kOEhibTRrqx75x0MkJFuqGuRSispfSg57KSZ7NzdltTdLWF3TKWj9vuSZbmQ17bsuHwdAML8tja348P5uz0jaftlOE5LVPb8XWpndjkljCY0Rb5Jc97UOhwCN0LuRFd1pNJ043rC7/H1JetWh+2BrDYRardomrtprWGTDXVNbFrSdvdxr4TmckJBG7zEutCAvDTs+hCJXk/bqyQ1kDkwNGU77h+N3ZsLTESRPhc4rKkKaYGbIkPuMix8xiJdlK7aPC4Csx4X7aOJwHDPS3mmQU4RKmO4EZuduu4b2jYiz7Ko6BhD6/vkDvKRK6V1GzmOXEgbkv0yFCtYLLjnhdHbisWCa5unubuWuU/snJxm1l6DuCaZSTN0hllvkRAguSs520W+RPqnMGGZg9P4n/3U3VmWBIbcBT4ki1ohlIRiLpvh5UsTAoSVQJPnCsL8sFtrHzAiEJeXhLoe9HMJaMOD0uTOnw/femRathYkd81MOuYX98gy1xsI1Us+9VNjYpUXEjZK7rLDMot45Jn7uPLmawap/KMW6XP+0ZIaVSx8QDgfIs3+kHT5z9oi/ShS1w/Nz2ublRE7r63+3bduwX0Dz5NpF5/c1Xn+nnyExkc2R8iKWCFsbkLiYsNF/bBM/+NMnX3msYhAlxEguSs5eyR3JYHrSDOSu45M1LCbJHfdmq8qvSW5q4LeempRVQAAIABJREFUaFuSuwQPkrvRsMz6VlkUkdzViSaPRQTyESC5y8doYg2Su5LAdaQZyV1HJorkrlsTVUNvSe5qAHF4CJI7kjuHAHfu6ruueCQiMGsESO4CZ8CFTjihR572rajmbiQ7lIQcuThyeHbhXC4+nWGZgRNWsZpP7pDRVKeFhhbSFd+zC9qCUO1NxW4ubHOjWVLeddpDDXoqnakWYU7Qubrie0M2lfnUaGdkLbiCfoTqFBd2YgMGLkqn6FpC2ycr38YPsGLun0MNnly2PaXXQ+Y+6JZdySI7SabNyWcuQpS6GJaJcMmLi7BwwaJhmcAjzn4KjZ2cS9uZ3mZotAOWTFAVXK947mJ9hRToiFMztuYcABk5nY4e5z2/GMRhxrivuZB/HAZ67ml4u2HOrB7VFuiS9d9DMHF1EILpwjDxb7j/at3caFimyFSUzx36EV+v0nY0LPNGMtYmWa39sEz8nRq8IjPFuvOKAMld4MwWfVgVtULQxAHJVtJuUCR3gRNWsZpP7vyEKloXibp39/ZHUvHPQjNRccidao4XK03gDo8OjTGueSkx3pDbqWJ/v21T5M4HFC84i5R4py0LatXT+2ivuo2NfnRP0t+7YgnaYGLXrd4HL5YJYdcV553cFdE3FX1eahx9+x/ce2E7ME+ljdl9fXzxUWSlF2YLMdZWEpKtyh9XrJ2BNSL3ryN/XZkkcZKsxZVxzV1yDRZJiDRP64djIQJ5CJDc5SE0/L3ow4rkLhDYllYjuWvpxAy7RXLX7vlpU+9I7tJnowghJbmrb1WT3KUTNJK7+tYZj7S4CJDcBc49yV0gUHNSjeSu3RNJctfu+WlT70juSO7atB7RF5I7kru2rUn2Z74QILnLmM/1tQ1JmW3DEpbEA2ergN8cQn8uUzxijIfaVuKhZvRcyucONgmZYZkZPnej5xU/KPH3CvWima+lXW00eeRu1BvtNoKPjxOJIG2ztqtAKB41eNXmw2/tk7uBhNLFGMtdTevx8toyLLPeuWnb0TS5Q9/0tYgQS/13+Jzhz6RyI7qvk5OjVAuGIrtgXdTcFd25wz0w1J9V441769ERcLbhr7gX91YTn8q2ra9J/UGfs7w9rfTChinCDLBnUv1bHbfRbON5MiwIUdQeugjvrkODB21hlj6tt75m/CRDitFAq7rwx4NPnit+WCbeU9wYoHvV5xnfuduKQ/D9azAvLHMwOOOzN2QCWWfuECC5y5hS7WPj6wDGEqqI55kW5h8cHKRqN3Cz3t/fj8/s+9wVIncZ583THs3daq5xQHnkTp/KT6ENMTx88Fzx9Xo1dnNhD1VFN1elbRXAqbmrgl75tj6500fCy+GZvGi7srOzG+3uJtfu6HXukjlQc5c3G+bZ098aTQSmP0p6zy19vFn53OWNqcjv/vPDb5ulEZ6WLyeeWyBgaQlk1oz2LUk2lDV+JE+B3YErvnbVkjtLWH2vOv9Dx2Ry53zuRq/BPHKnz1tk/liXCHQdAZI7kruur+FG+k9y1wistR20CkGr0rbKAEjuqqBXvi3JXTp2RXYbi+7ckdyl73qR3CU74CR35e9tbEkE0hAguVPI2BS8SYr7voSVuNAKvOwjLNP9jjCKvmRac8W+MCaZpRBWkpY2GiEIOzs7cdurq+uRVO1nEkqgQxp0CEbejuGTJ4dxiKefop+XQTgCRckd5syFESEUdmd7V83v1cj8hveCNdMQqELQqrStMiMkd1XQK9/WJ3c6fb3ZJVE7d8jMtyn3+cnl1tzTXUp3v04RotTrrUr4Z9p5yo+1aMsifS5C7mAVAxydZQyuuaznpe43Qu8OD1+Iw/ZWpO2Gyp5YdIx11fflDf460L8bWwF5Z0gr2FFyz3ik/Qc2rv21hF0izNyVTdnxxLuIK1XCyHWfXVhm2Z07WCW4gr6vyJp2ZXznLglDRR8Gg/P4OvKvBX/nDu9aDst4t3Hok5G3c3d2JjhfuhBXsaaRkF8WIrAICJDcqVlGOJ2ObYf2wsbCD9Ory8PY3WR8S4Lj4yOTJtuVjfX+SKp2vZhMaufzs/iftre3o+3thOxpKwTcjE7kBuVuynnkbuTmLTfAs1OQjjDfnkVY8KFjLELu/GNWaRvav0WvV4WgVWlbBXeSuyrolW+ryZ0JF9xK7uPQRZ+dJfdi2Gk4S41J1/WDBy+Kddj+71k2Cn5du1uR6K7Lj65ayyJ9tlglIaxZZ7Y4byfPS9FV9UXD7or/vNTHQluQGafXqzbC+lpn3TecD64jaFhDT46epJ4cFhzayiWrl3Xery6vL4MJTlZYJsbZ29iICaklWSfxMIzURBFUrBuXgwDPR0P8h+RwfOdONIaKzD/85DPyHmPXHXIgvPhTPjWCTQOKXZP6vLAysZY4KDos07xLidaP70P1XRM8UnsRILlTc+OTO21nYDR3yjvLJ3fYqcMDyxWt1/On34+pB7HTO3ma3Jn49NPkhpRH7vS50Pb05JQ3sxLXXxWCVqVtia4uZJMqLzxV2lYBm+SuCnrl2/rkDh/T3Es47sWnwxdHnAEvpGnkDi+W9ZE7SbqUukNYfqxFWxYhd0V27szz0uBsd3dWPXLnPy91v9uqFS9K7hB6mVay3g/8NnXer7BbiIQtIaUauUsnWWNrw3zoSHaxTQIZRe6eexbkzhI47OK+5FOF3Ml/UcZJZfp5fa1fCAasQwS6igDJnZo5kruuLuP6+12FoFVpW/9I5vOIVV54qrStgibJXRX0yrcluUvHjuQufF2R3CVY5e/ckdyFryzWJAL1I0BypzDFrtjqig3DRNmUsEyktUexXxOhIRh+icTXJhUHf3l5IV98k9S/SMWeZkGAbGBaj9cTDd7aWnJekxJ5KP2zmRhP4lAKf8dQUl1JScIuQVCdfcM87txhTKFfHo3uYThfRS+dOgkadCdanzDSF5k6WCWwZCPga1huJcTmpmS4McndfK82XGv6eluX8DFk87P3caTWx73ZYoD7yfV1spNhMtuqFO74uwvjwhqEJi/tvl7UcqYN4WFF+lxk524Z1kESlul27uQBFt2KttwVPCsvRb84qZgQR3mOFelbEys6756DZ0TcR+8+7j/j/f5Bd491WKZkndfv86hlj4Qx1rRzZ66dJD2BvZbUYHwtpw6PNLkAJLOmw84Py8Q7F+yiXDmVUEpYK9jrV3IfSL4CF9KZFw6KXXl3PeN6Q8hmG667MvPONkSgCAIkdxloVbFCGJwNMj1k9Gnhc6dDge7e3Y825IXEvXwcqzjxvHBQv+28hWUW2f0AsXOaySIXBepWIXd5qax1X/CggUCeD5zsGfLnAx88TpXWYlZhTkXWVZG1W+S4rDuKwIq8GOKPKyBkTt+EpEfQRrvkR8aTMiM80r4cJincs3zusmwU/DmC/9bzzz+a+dQV6bP/Ip3VebyE67DMgegaD557Lm7iR8nMHIgJHci758DuBuNAAYl6fHgw8hEW96Q6iv9+oM/rPz/ynlt1kTtcP0fqOkIY5Z68t7iSZYXgY5Ln+Yjr031k96/fvIQqtEKoYwXyGF1EgOSO5K5T67bICzLJXaemNrOzeS9aJHfzM9dVR0JyF44gyV06Vnn3HJK75CMJyV34NceaRGAaCJDckdxNY53Vdg6Su9qg7NSB8l60SO46NZ2NdpbkLhxekjuSuzQEshKqcOcu/BpjTSIwCwRI7lpA7q6vr0d0VytGMzIMaHfx6UMRnh/LD08g7d2i29rYdklXHLe9idMRz2KxlTmn0cQoTRr0dqEhjL7mDgQhVIOXF96SNRbMB0ioK8Bf2SeONDVzJCnCnf4A48N6YBlFwJ8PhCrhjyvQ0WX5SumjUXPXvdWVpWHGxXXr7pcyNKNJUh5ceBHVujmEvLvrDXVdyBdQsZq75NrF/3b3VxwDYWBpUk/ozELXoK/1m9WMFOkztNzQSoUUo29SNjy38py6VrhiPp02POR4s6iTd8/BGtKyM4zZ6c7wnAm1OoA28W//va+JtiS7KMrHP/b70U/9xI/HQ/bfD/R5/ecHnpVa4gFd3/JK4kdnwjIDvd4wP3qOkBvA95uLLwY84NRDDmN3dgUYSFZ4ZF5Ypr1+LRzjYZnIdptuwaCv31msIZ6TCMwKAZK7DOSnpbnzu3A2SHQeSARw/979+CY7GAyix48P4ia+diGrrfHXEy1glwoeRPDmqaPghcKZ0ucdrwq584/tayb07zjP3b39+KGJ8UKDxzKKQJ3zQXLXvdXVk0RXqcQJ5G413TAaPliOsOXbGcCfK/loUASpLBsF/zh4oW2LiXma9YPfZ3iz3ZNnUUgBIXn0zDPxhyoz3po0aCHnr6NO3j1HP2ur2Dfcu/8g+p4fe0d0/8ED0+2n3/Pu6C1vflPqEEae8d7zA3OpLRjM7ttQF4gDFiF3fgf6Srvq/4bjapK1JfZO+OOKJXeTn+P5utekrbUzSMJB8zR3dawDHoMIdBEBkruMWSO5m/2SJrmb/Ry0oQd5L1pF+khyVwStdtQluWtmHooQUpI72dVVERkkd8maJLlr5vrkUYlAWQRI7kjuyq6dqbQjuZsKzK0/Ccld66eo0Q6S3DUDL8ldOq559xySO5K7Zq5KHpUIVEeA5K6F5G7Um0Z0Hlq/JSFIK8urca+hmYi9hORfs9riYdVbXau+amo+AsaXpqODiiFUY5fXLatVSFQSCNFK0+DlPdjzzqV/h04A2shJBX3qS7hTrLmbUVim0R6Jbi2tYI5CtRpFsAmtW+d8TGvnztdP1rmWQ3Fraz1ch2a9eV5Zaf1dgk+d0tWN1kt8QSe1H7snKu2XX99ohTKugyw8s65zv53vRzareSrSZ9QN1QNjWldvk1DZtoy3CM7Qr2kvPujXdYgjwudjPGTACPsvU4qGZfrr+RLreShKg9ZU38fN+4HSn1YJy9T+epjPDfEBds8t4z+rtPFXyCOgtOObW2JnoOxJNE7wsDs9SXRzPoa6LZ6j2o4kLywTliOha7bM3LENEWgrAiR3GTMzq7DMUWIAE3PEmFtyUES7YA3Qy7Wd5oIt4r1TZ7+ydgPqJBNZfTaGvb21VpA79COt4EWG5K7Y6qtz17nYmdtfG+QOHpShRtW3SAqRSu7CxwuCcqJ8Q/2WRsMsL/Es4wjgRfrs7DQIGszr9lq64XvQQWZcKc+vtK57YlFyV/j9QH1AqULu9HmNxlASwKRdv4PzgWhXE30/PPDSrivUO1R5BPxp123pczfji4Kn7wwCJHckdzNfrCR3JHd5i7BOsj21nbsakwHl4dO130nuujZjyCRKcrelDO9J7kjuuncVs8eLggDJnZppE7an0vn2+5txiANeLnFjd7/jqzPC6VyxL4xJWMbFhaQcvr6pvI6w+3YmoQX4YoWCkKGNjC/LsFBwoYdJ2+Gun0llnXyVNqmb0/J6V+55+AFmRe5M+nxJWe2Knvs6yUQeEjo8zYa3jK6bacyRP170AWGFroyGAo2PqIk+6vnww7pM/wJTevu9JbnLW5HN/D4ynwjLlBDI0WTy3nnVvfh2ZTTVetkemnui7D6lrdc1Sffey9jBLnveeWh3LaHZyNYcUjDXm73EckLiBs3/61JBON/g/CzuMp67+vmJ3+u47/k7d7/6yx+K/vlb//dUqD75iWfM7jPK+PuBPOPFWid5qMGhINm6q3Pnro+wzJTd9EsJtcQfV7Z2djLDMk+OjlLHq9tivBcXFzHueWGZyJR7eemsTcafrV1aj+wrESiCAMmdQsu3FcDNCyQOxYQh9LfidNzGm0XInyvHx0cmRa8ryCwWmna/yITl1d3ob4z46/gPH32jvzi/MDfKWZdZkTs9buCCME3tf6XDFI3/ldI+1oUZ5udUHkBOk7cuL5e7O3vx4Zs6r99/n9yhTyenSQjW3s5uhOtjUjHaFPUgrwMbP1zVpvh+Eh8aOKX1J+/8JHd5CDXze2ZSFO+UxrdO+XM10yMedWoIiFZqqYaPnVPr74QT4R50rp6X+Lgb6mWX1W+f3OGjVZZO7Fv+p2+M3v/eX5h4SD8UHPc67VVXF7nLmwffAB1WCJcpz8+e9HFT7Yj6x9Zt8Zza378v3n32QzqeOyBwriDEU1uZaH89YJMVkp03Jv5OBLqEAMmdmi2f3IG8uZu30RBsJmEIPrk7ki9PIHiuaL3eNBeET+6yzk1yl6Djh4lNa+fO10ViDe61gNydyMMYBM8V9CmNTDXhzTeZ3B3G/fGv1SLXGMldEbTqq0tyVx+WnTvSHJA736+0rme8T+7y5vYtb/4G8cJ7TxC5A7HTH5lnRe7wPMnyudPhrv7AdFuYsu/fF3I3TF5jd+7CyJ31yDuqZbc1b474OxGYNQIkdyR3s16D1lhVhQDOokMkd8smsYsrJHfVVyETqoxiSHJXfU119ggkd6lTR3LXM5KXtEJy19mrnh2fIQIkdwp87MatSmieK5sSlrmqwzLlBuQ0Wv7O3aVkE4TOzhWkRQ7NBFfn/C9LKJMLscf5oRFI68esdu6MrkyROYT11aFdqILjLMkdwn3c+BFuoknWMnSgKpV1nvYtCwOdytqv52v98EUUIaGuQIvkvpb6bQulORfdDeZ7Uhnpn1cPabZ1CDGuy7IhUYu2c2fmR2lLs9aIf20WuabyzjN2T8zIfnmLm1gN2TGL9J91G0RA7vlL2g4G+rsW6L2LjNiEyMt9MeSe+NSLXxx9zue9Oq77ex/9aPT7H/2d+O/4DXVQtkWP9jWv/3rzX5Tnnn02+uUPfiC1az/+Iz88cixdEdevvr/iOTuLZ6sfloldzxtljaD7jGeetpjwBw6rB/e+YN5pNpJ3mvGdOwmdVVk6T0Va4OYMOCBkcxZ4FFlnrEsE6kCA5C4DxTZYIRSdZG2sipvm/Xv3R2Lu9fFmRe6gXUt7wS863rrqz4rc+f1vMv02SCMI1KRiNW3pYY96Xfnt/VDSrDkxgnj5EDLpAav7BxL7+PAgTppSxAIkb00sGrkDqQrV/1bZbQSBdBrlvDnA77dIQBXocxdyPNbpEAKivxshex3qekhXv+C1r43e+rbviKu+/bu/K3r7d/+L+O9vfdu3R1/w2r828VBPv+fd0Vve/KaQ00yuo64p3LeRkM0VJIUp6+NYpEM+uSvS1q/bW1+PNXa0QqiCJNsuEgIkdxmzTXLXzKVAcpeOK8mdJZ8kd/VdeyR39WHJI9WEAMkdyV3gUiK5CwSK1YiAQoDkjuRu6hcEyR3JHXfupnfZkdxND2ueKRABkjuSu8ClQnIXCBSrEQGSu7A10MWdO+z8xPHpMkyEZjoNHnRKm5uJfYMfltnr9aS+3TnBy/elaAibiE9vLbmT8Tt94q3oQ+Dr5Ar0ZmkhjWGrKawWdqy05YJxLVRhNgiBxMv6pIJ5z0qhrcMerQUD/L6sl52VwCRGVDiHTqGt15V/bnQvVF9qNBPiwzSpPkJDdbiu8WEcngwhf2U1dn5/pxWW6evXfO/AsBVRvBaw1WsE2IXOT9GwTB3uibWaeY2Ihs5o6eKLijGZxWd3TlrgXqN870yIZsc0eFkz8eJP+ZToC77otXGVvTt3or07d+O/4zfUmVSKhmWOPC9w7Q9tAnBshMDjjyur5n1gcmh+nSuLYZl1osljEYHiCHDnLgOzLpI7PRw/zT6Sq+zv78dVfHKnbRTMy/9Jutlv8aWWtGgluYPPnZBf9xJswiOF/LhSJfV+Faz89NtVLAma0rT5oaRZ48XL/929/YkkAJo/EDwU4yuprEeqYOi3nRa58887rXVfVPum+1mE3Pk61bw5usWHIyZJyYNpIX9fupKPTHNE7vxJ/JrXv8EkTQkpRcid+QgrSV7cZzDcX7Xu1dxzUhKZhPSlbB2Su7LIsR0RqAcBkjuSuxgBkjuSuzK3FZK7MNRI7kjuwlbK4tUiuUvmnORudP0zLHPx7gcccXUESO5I7kjuhjtF3LlLQnaL3FpI7sLQIrkjuQtbKYtXi+SO5C5t1ZPcLd79gCOujgDJXQaG2nfLDxPzfe7g06K9WrLSziNMAiGRrkDrttpbjf+O3+oKpTAapqG2AfoqrWlCSmStmYFXX+I/t2T81kK1OllL0deCIYQkVMuHELMVpExPKddX17UYoGOcmtwZvZSI/l1ZlnCyaWgV/GFizm6UPxQIwq3o8iYVuybTzWBPz04S7zq58m34jtU9FfKq807ue+Rl35ZsGJHW27j6K9L/2I9NupWmLax625tVWKbVECZCI1zj2u+xyLgwhrRr0+o0y+vZdJ8QppllW4Lz4P/cGhqxXIDGTodhVuhTEWxYt4MImMvCPajkfqTuvR0czViXH7zoRdFTL7K+dihv+B+/KXrlq141cWhHT55E/+EPPx7/9q9/4sejf/POn5hY13+WmrDqq+TdYq23HsGjNKWxeR7oe1JdWPvPE3jTaS1gkfOQ3BVBi3WJgEWA5C5wJRQld5v9zdQEELihDs4G8Zlx811bT27A+E0bSAd2Mbeav8Pi68i0l1mdmqciOh5/EL6GwP8dRAHHr1p8cmeOpwT/VY9fV/sqfnPT0rRljdXXgeq6WuNaF16TjjMrcjdx7Q4T2hQdb29Fkh+leBYWPVZW/SK7jb7WzxC7YYKmOvvEY805AnLfXZKPdvNcsnzu/HF/z3d+e/S93/XtQXAgCdhAmXj3N/oR7quTSqzXm4LWsS+J3MomxCK5C5p6ViICIwiQ3AUuCJK7QKAmVCO5K4+d35LkrjqWJHfhGJLchWPFmjUhQHI3AiTJHU3Ma7qyeJgFQoDkLnCyQe7wFcyFO8FWoN/vx639sMysnTuE+8FmwJXeWi9CaKYrTe3cIQxscH4Wnwdhlz35E59Xvvi59P8IQdTjDYQprqbDLhHmpdM1FzmWv3OHY8GmwBXzd/XlMTTc0+/D2M6dycytc3Vjm7t8qFuRMWfVxVdZbdGg6yLMcnMzIyzz9MSGREqpOr9lxwNMzwZnsQWDPs7Ger906E6R/mBN6V0vfHyoYw0V6QPq4pqoEpYZh7AWPXGB+gjJ9O0p0prbazW5n5iduznOjmlDz5q5JyAUu+y9rMD0trNqR8idH/rsz5f++/69e9H+vfsx3m9+y/8S/cXP+cvm73gu//Ef/WFqtM7P/78/G7375342bvvMJ/40Ojk+njh3uFZdxmFUQFimlovoRgjH9KNemlpzCMuEDcPw4ZMZdWBwVSHcyxKuH1sUyfPj5OQo7jeikU7luebK+fl5dK52LgeD9OdlOxc/e0UE6kGA5K4kjggx0OEO6+ujN1FD7kQXM6n4ej2/TlPkruRQCzcz4R7X9Xjk+eQOxAC7V67sbO3EBLVKmIlP7qx2ISHgmMumNGCFAU5pkJfYZFphj3WNp6nj4OUHFhOuaHsJrCH4QjX1ktPUmKZ1XBMGnRJKCk/NVbkPLkox93HlG1rnuE9PTxsJza+zj40dqyPkDh9k3TPBv2/40Sp//w1vjL729W+MIdMfmB49fBj9/b/9uujRw+cmQvo1X/f10d/7H14f//aP3vT10S/+wruD4IeOXvvc6Ubow+72Xky0/Gde0AlKVFqS825tbaXqgldMDoLkYzfI29XwWWzC+k+Og8ldie6xCRGYCwRI7kpO4xi5Q0IV9WKzKXHuaTHmC0HulPdOSYhNs3Fyd2p2fqZN7vAQTyPrVcZXZ1uSuzA0s7wDSe6yMSS5S/AhuQu73grX6gi500nT8sjdP/j6N0X/8I1vmggFyN3f/cq/GT16bjK589t+0xtfH73v3f9fEKwgdiB4k8rMyB08TLe3S5O7Y9m1RKIxFJA+fAhxBbt22L1jIQKLjgDJXckVQHKXDpxvrFoSYpK7gsCR3IUBRnIXhtOkWiR3JHflV09gS5K7EaBI7kZ37kjuAq8jVltoBEjuSk7/suzk4MudK35YJvR4yGg3qeTt3Jk4+KHeC/9pInNmyWGnNvO1b2U1dnn9AjY3sHcYFqRX1hYFxr5iqI2bpCnQxy9UVzSIWqcFvVOVdPN54yzzO3BJC8HB8eyX5nRbiTLn7GIbXE9XEjbsCnEJn0Voekb0iUpzhnAr2FnMU1mG1UMsqxONndMNySBx/a80lA30WnTZbQgNNqnyp5BN0V8zI1YIkD7PoA956xjPHvdM8Hfu8HetVfUJ2i+9/+nok88+Y05xdHQUfd93fYf898nEU37Rl/yn0Wu/5K/Hv73jh38o+t3f+e287pnfoc++Ek3fpIJlDc29e44ZDak811zxn+lBJwyoZJLTqZ07c151XRmlu5Ky6rBMaFERlul27i4vr6IzsfhxBX93IZwBXWEVIjC3CJDc1TS1vq1AVkIVQ+5S0hOjO7otHhKnJ6czecAWgSbri36R4/h181I7H4m42oWdFA0zQQIS93AGaXxyfBjH8sMDcGN9I7Xr00pFXwU7tg1DoCkLkLCzd7vWLTwom8kp0gpg1vACP2R3eAldlcQQ7mXYhoQlL5Z1dhiJkZC0a5YFzx67SzJjTxh5oW+l751a93l67yq7b02tAZvcKnm3ANGDht0Vkyk3hRhW6ZNP7kDsYHfgig2tTKyiLLm7Mj/bNXkUr0k/LLNKv9iWCMwTAiR3Nc0myV16ooUqEJPcVUGPbUMQILkLQWlyHZI7krvyqyewJcldIFDFqpHcFcOLtYlAlxAguatptkjuSO5qWko8zJQRILkrDzjJHcld+dUT2JLkLhCoYtVI7orhxdpEoEsItJLcmbTzSruBsDvfjyUNZL9tbZORkyI9i9whDAG6HhfOg7h2nUkT/1v//eIc403i5JeXZq+T8jUEPq51xufrrJQ4r9bvIdbe9yRzQUMmSgYamWHnfN8tv8+XV8m6srKOJPwIoVgIzUwrvuau7Zk0a7sO5vBACPlx6f2xenAttk1P2VbY20ju/PtpFeyuYf0ADTRuLfLHaIOGYZrzHpaJMWuNLnC4uJicebEKxrltPc3dEnxOpxAqmvfMs3pv+7Tq8kNfAAAgAElEQVTJC8v8Tz7rldFnyh9X3veen4+e+dM/nTh0o+VU2mjcm0Lff/wDGssFpaPzf4f22EGJMTgtm32UjurMc+cpsIIflml9cJP3HVy/+v1vNCzzZiRU2A/LxN+7kKMgECpWIwKlEWglufOJkv6ynjdSv21e/dDfjb/Kabr+II/cbW+mp/41Bugq5vzg4CCOOTc3woy2of2vWs/37al6vLT2Y2biXkWsBW2FAF2cI2F5XyL9c2q9njWp3yz1Ug9CAP0eCUFTq4LHbSsCbSR3JrlVTX57OpnD2Iuxl4a9zjmCf96sNXd4ud82iS9skg1rGJ2kna9zvIWOJclmDMFruOQ987RmO4/cFemqb/9TRfsGAhr64REf0fFMdAUaPJ00rsgYsur65A56fa1d3drekYQrifbP97ljtsy6ZoLHmWcESO4CZ5fkTky9VYbBQNgKVyO5KwwZGxCBmSFActcM2SG5y1jSJHfB1zvJXTBUrEgE5goBkrvA6SS5I7lLWyrcuQu8iFht7hAguSO5m/qiJrkLhpzkLhgqViQCc4VAK8gdbkDra0naed8z7vTsNDiO2m9b12whFv1EUvLCZ2VS8c9r7AyGmq0l8YLaktTWLvYd6YUHKtWvH5Z5enIi6f1t6l8IPXT8fV3jyTsOPOKMx5H8nyvTSInt79yZUCDlYwPNy4roCFxByJAOh7TaBNvnG3gNDVMoTxov4vpdmnMArX3s8vDxf88KycT8zWIOi46B9buJgLtmQnuPMK+yGh7/HLMgdyaEWnxE0645q7tJfAxDcZlUD2GIaceyYYpNJlSZrWdgEpZpdWXG21UkBK5Af3d5WQ/OhebI3N6T59LSdT0avKLPvKywTDzrV2ATUqLgmaWlB3hOhYZW+qczIZ0Zz0BdHz6VqyM+js14ufphmXiv0PcjPwx1c0tsQXrWFiTPCsHaKJzHwxoMzhqxcygxrWxCBKaKQCvIHQS00Du5MkZ2ipA7T79WF5rmpmLMM1PInXde+Ni5JCm4mW1vJZo7S1iSL77+eAdng2AyW9f4xl7aZJyIhdfkrqlzjTxgBCutX6uiA/BtFPz+a71ek2MDsSv7cG6yXzz2fCDgJ2zKGxWM7rtO7qwWbLLBnu+TlYdH1u86mcPYi/Pca+7kuaU0d9AAwn/PFbxE6xfpKjhXabt0JR/0akiwEuvmFHHM6lcmuROihN/LlCrPPP98uNadD2xeX/K8XfPah/7ukzu/HT58a5+7vbv7oqG1H//xkb2I5i7r+g3tL+sRgS4iQHIXOGskd4FAVazm79xVedCR3FWcDDbvBAIkd6PTRHJXz7I1HyVJ7lLBJLkrt85I7srhxlZEoAgCMyN3NgTOfnnFDhd2ulxpY1gm0vUiLPM2MCwTYUO9leGXOxmmzjplUv+6sEsZNMJS8ccVhLrciK5g2mXEYmBCWOY0+jNG7uTrOLKUuoKvx6FfRK/FTuLiIgnR8PuPEKNphEv6YZnMqjmNlTRf58haM9B8ZoUUm3ToKpS50s6d9RuJwb1dTUKkp4V4QjqSNPR6J7JOcncmERZpoYfzHpaJNbOlIk56EhrX7yc7dxi/TjuPORixk5H2aevWr1tl7SzhWRkH1CBEs9zRiu7cQR4QWyHIKfUaxL8nIf/F+oOwRB2WWeSZ558JIcWIwAkpeE7psNuQNmXqjIVVAyt9f5JnNu5Rruzs3onWhtlvuXNXBnG2WUQEZkLucHEjvMNp0Ay5E41aTO4Q4qhi+43mTm54IcWEOKq2IW1C6uDGfSLar8ywTHVeQ+6GYRnQ2D3//COJ/baEbWNjPboroQauHB8fRUdHCYFB21mE8SEbZl3hWiGYTqrjkzuTjjrw4VT2nNNuB9JfRd837f7yfLNHAPcD7YWpe4Rr5PHhQeq1C73vpnopr0LubleEzImGeJbFJ3e+35wNFxzU0sVF1tz55M6GZeqPsBtxuBzAtljZ57TZnRGtVNp9rrGQTiF2S1eJZ1qRRVCU3GGNufcSjHN3ey8erx9xUqQf0wqPLNKnJusaWY5aV/65ekLsjL+kFJK7JmeCx54nBGZG7rR3Wy65E2+zUGPKpsidCcvM8Lnzz2sSqgyN2EHuHgm5uxkadSJ+fH8/IXdHR0cSR574y0B/mPYi1+TiA4lyZs5Nnifr2CR3s0Ke520zAlXIHYgdCJ4r80/uRpMqVJlXau4SnzvznFbrCM8xp4WaRO6ydZEN6fWmSO6gDUPoPwrJXfmrjOSuPHZsSQTSECC5C1wbJHeBQFWsRnJXEUA2n0sESO6Sac3fuSO5q+MiGNfckdxpXEnu6lhlVpbDnbt6sORRiIBDYGrkDqEGy8NwHqRYxpdkF6+O8EWEIrri74KdnZ0FG2g3uXNnrBBEL4cC7Z0OFcUNKtbYye86LBPEECl5XUgnxq935qDp0BmtoM9D2ulpF+7cTQdxhmVOB+cun8VodpQO5VZCL2HtMangvgJtaVpm2431foTMsK4U2rlDRkoVhXmLe3hKlspp4V2U3BlLl+F9u2gfs8IyEZEBO4Amytra2ogOu4lzTDqmfU5bHWWT5A5zorWMwLIWSQDS6kPPXjJ7Zqj8A/iY56Wx3rGXSE+e2+6d5kb03peBFgT+PAD/UF35tNZFk+dByCXWuyvQMrowTPwbwzKbRJ/HnlcEpkbudKihbw0wllDFsxUo5HM3JSsEI6aXcNG0kmWFMBgMosePD+KmEDE3oRMsumhJ7ooiVq4+yV053BapFV7wdBImfFjSfo8aC6Nv2ky3BvB3/YqQO0PmoLNrUSlK7qqkQ6/StkWQBXcFmjpo6wxhGcuWWd/Ond8hrdcL7uyEivjQcSXP12l4surT43xn8j7gzrtourkqc+a3RfIUJNVzheSuTnR5rEVBgOQucKZ9KwSSu0DgClZjWGZBwFh9LhEguUufVpK75pY8yV05bEnuyuE2qRXJXX1Y8kiLiwDJXeDck9wFAlWxGsldRQDZfC4QILkjuZvFQia5K4c6yV053Eju6sONRyICGoHGyJ0fCtRX2SPNl1cVRuRny4SOQWvQoBdZGWaezJs+v21e/dDfjTeLZLFcGuoGzc6dWDSkFYxfaxcwRvhRoUAbAw2NK5CDTDuMZFK/GZYZuhqq1YMFiPZ/moXtRbURsHUZBHA/CPVV9D0arYQozcBryWh40zzFCoVlyn3OhGK6gv85Y40dugJNjtYgQtPkSp4VQpZuLm8ecZ+vRQuWd6KW/F4XucNw9BzlDQ869LT1i39fUWsQ2lOtPzV+c+oEJit1iubO9+bL61fo73imX0PbOWwAjzuEZrIUR2BjY0PsopIcDKLGjHE1llQnx7GG1vea9G1QFu36LY42W8wrAo2RO19Hpq0B8sjd4ZMXosMnhzHmD+4/JcQqudizJsNvW9fEwWT8xU+9JBa555G7rPOOkdnzi8aE+UXGT3JXBK166oLwQzyf9mJTz1l4lDYgkJXx0u8fEqQcHiX3wCq63MLkbgbG5HnzY0mHfVmm11UeWuV/r4vc4WPlyclR8EdL+/HXav38AqLUG/qc4bcrecG/Vh9H8VuoYThe/i/kD0t7EUAyOu17fHYhfoLDjzkmgupYk7tL46/oCrwHMccsRGDRESC5C1wBJHeBQFWstghhmRoikruKC6ZDzUnuyk8WyV157Iq0JLkrghbrNoEAyV0TqPKYi4YAyV3gjJPcBQJVsRrJXUUA2by1CJDclZ8akrvy2BVpSXJXBC3WbQIBkrsmUOUxFw2B2sgdyM/6WuKlhFS2Or2/CcscxqBDt6Y1d9DJ6RAkhFjoMDXEWaepTfwJ89vWNaE4P3Ryrh/rogHZ3dkLOrwVW2ufu1EPK4Qbad3VhYRpwvdn2gX9jL2yZKDw/Enzzmqqb+gD9JZOgwhsdPz9zTVCcqaPTVPjxXH1Wocejxq8JtGe3bGhDQv1voK+TK8DeIRClxRS/LbnEtY0UKFKa6JpWV5N89Ec9bULOd806uCe4DRcGN/u7p1YgzeuuRsNzdJ2BuZeLFrpNmicp4Fb0XPURe5w3iLPMMypuw/ipWRVhWFa2WeiqjPPYqWpw29ac5c1ZoT03ohH7aRi/GjFU5dro+iqqVYfz3j4HruCtTCir5U5c9ON+Ts5T+bIXvsqLFNsMGA15QrufUXWYbWRsDURaA8CtZE7XKBIOOKKMRNXXiVZvm8gPg8fPRe3hRmo9ngaSBz1tRCNkOK3DWkTUsfPhgUNILSAIcXPtOm38bEanEmMeUkD1JD+hNQxJEtunLMgd9ovCPO5s7UTdxmEc55v1iB3i2RgG7IW56XOuejooKULKf79NKSNfjnK8sjb2N6OVnuT9U1FzjPNumdnJ/E9ER8SHzx4kdI/4wXvJHmh83Q3o+TuZqjZCf1cOM1Rzv5cdZK7sqMxhuAmAdl0i9EJGj0X18Y0kce9amcnecZnndvM0UU6uQOxO1fkDu8Ss36XmiaWPBcRcAiQ3AWuBZK7QKAqVvNxJrmrCCibtwYBkrvyU0FyVx67Ii1J7kjuiqyXOuqS3NWBIo9BBEYRaAW5G8jO3aODR3HPkDVL717ga3doKJ7ftq4JB+lAP9xOFnbb9iQ0KLRcSFhRWmwpvkTjjyuXl5cRwg9nWTBOfPFK3bmTj5tN7OoBZ4RSxGGZEsqrM6Xi33UabB+jrn91HQvLNFFyyTfsvKyaXR//LNd80+dGaOGFXNshBWFp62IBM1ICLQl8jzx8vda2LeuSeTLUWiakr9Oog3uvDsvc27ubEZZ5LhnzktAshGHinorCsMzs2ZoWuTN3tJT17MIyZ7Fzd5YRlmlkGdzVq/1yN1EKkiEztFzdXsdhmjZrudq1Nzt3SXTE6cjOnbw7qCyroedjPSLQRQRaQe5AfI6OjlqNn5/VEDcVvDSFFBC3e/fujxA43e74+Ghk/AhvdWm/Q44/izomPHIK2jeE4yIs1xVgk2aLEYeSztEDeHV5dWTd9CScLs0rDfPhXmJnsSZ4zuYQMN5zK6GauxXjC+cKdCldD03Cyx/WPgpe0E5Pj+MXtTyvqyo+d83NaDuPPC1yB2+6VfnTpUIbhWZmy3/GZ50F3oEvfurFqZZUiI7AH1fwUcvd+4xeT8K3SdCbmUcetV0IkNwFzkcVcrcs5O5+BrkDsQXB0wSG5M6iMU7u+iPaTj1980juQOR0Yg2EsGixuR4/XnrNDjHL3CGw6OSO2TKns6RJ7tJxJrlrZg0WI3fZfsPZ5E70evJRiOSumXnkUduFAMld4HyQ3I0CNbudO5I7krvAi3aOqpHc0cR8GsuZ5I7kbhrrTJ+D5G7aiPN8i4AAyV3GLEP/pDVOegcF+o/QXRIcA+n80/RSCKWDHscVuzuTlqq8HcsSu0Q3EubgCv53E1/EcB5k7XQFWiSEZqQVk1J7qFGDJrDrMfYI6UVopivWrsIWs65E++nWFXfu2nFtlO4FQi9Tyi30SRm/62a4d3QtLBPXrdYd+zCsSEiqXucnJ/gCb+8/l5cSIq91N2L7oDV3sNqZ5wy7pdfbhIZYN24eYL2xtbUtzyK7LqFnB/lzBZpQrQu9Fp24fgbcGDufyZkn8WyFbVGXCsL7rpRm9krGBx0eSzUE/Ge8fzT7HuaeebImxTYhts2wPhlxE3/nDhpK9/5gMm2asMzicwalB8LbWYhAVxAgucuYqd5KLzUErsgE25tKejjAGmwj5E+XC26gmuw1NRYQak2ER19qxf9qey+es7yHRlN9rPO4htwpMnt0chJ7pUG3cv/uPZFiWe0KyV2dyE//WLfwnqvhfbeL5A5h6Jo4+OhbOwOXFAV2BslL2pjXlWeFMP2ZnI8z4gV6W2wznL+inaPEj8x42aqkP/gNBBDFhMhLcosmPvi1Bd0z8Vfrupa1LVhm9UO/h/nvUlh/+/v7CbnDhx2tuVMJVfIsqbL6kPcO1wUc2cfFQoDkjuSulhVPclcLjGMHIblrBtc2HpXkLtkVIrmb/QolucueA5K76axRkrvp4MyzzBcCJHckd7WsaJK7WmAkuWsGxk4cleSO5K5NC5XkjuSuDeuR5K4Ns8A+dA2B2sgd4qK1dxLCDHWo4WY/EcTjoYG4abSJiwpHury4DNazFQVch7jltfU1d3n1037Hlr4N30jRH4hGJktvUva802zna+6QcKWJAq3jtdI5IJuk024AXfyuNWlptgFN9K2JY/o7dwO5Nq6GHoiQGqzI/+ckByuizetLqJQrsEbouuawCUxbc0zRMhktnSuBmrq8/ncxLNNoSZUWZmNjw+iUXWFYZt6sN/H7krGfcEt0suYuud/osEz0podw8mFjaNOuzTOwekH2afypvbjndKCVjvGBHT6LrA/uRafCUPEeBluhpeF95/rqesR2qHZ8Aw9o9JjKJkO/h429S8kYdN1ebzVaHVqm4HSjVghWc1dGPnJ7M6rXwztImjwkcJisRgQaRaA2cuf30teR+eRuexOx/E6oLbH8Qv7iB7l4k0AIW3fxM17WfXwezyIQWxKkubbXCBTM7t3NHUTmyfFhTGiQeGXDN4Ku8dzTOJRP7i6vExN3a8ic+PYgucr+3p24WyYBQEMkexpjn/dz3MK3riZCp7HqIrmDbg5m467s7OxGu7t7yTOBmruZXw75mjt8wLWaO+j0tF4PyVUuRQ9VR1mRl3f9Al/HMePnVkmdoNFkHXcrzT6em3tyjbnnZ1v8hn37n6z59f2Gt7d3op2dnZF3ycTn7jY6LmmF4Ov1ivgc17U+eRwiUAQBkrsiaLFuEAIkd0EwBVUiuQuCqZOVSO6SaSO5a/8SJrlLnyOSu/rWL8ldfVjySIuLAMnd4s59YyMnuasPWpK7+rBs25FI7kju2rYms/pDckdyN431SnI3DZR5jnlHoDFyh5BLHQvd3xjV3JmwTOefI+FzOizT9zJDnLTbWkdopdHNlUgZjrZpXnPzPtFVx4e5DNUrwokNIR6JI1vVs6e3HwzOknTUsubQx1jGhDWodZ3NdaOxI2eRO5wUGkNXoAu4UWGYfdEt9VVYKkI0nQYPBHwg/mChqcrXRcvgLBeKDhYvhWnzAP3DoqYTr4vc4Z4GbZS7KWIXDD5wruA3Fy5XdO6mVR/3F+3Nd3NzNeJNd2rSzjsrBAmvMiFw1q8K6weaPFdu5Doo42U1rbF29Tz+M9363PmaO+vJmYRl2gc17mNraxu1DB1ec5dXiS9slYNC1+l8U6vaNyD0dLKqXrwYRY8HP9umS098CrdUWKJ/vlt4D8r1gWLGK31yz2lcg5A5uDKYkqWIydegNJRF3tMwBq0r9zX5CA2290Y7XhOWORx/kbmI2w71mOaeo8LIsR6nMb9F+sy6i41AY+TOh3WM3Ik56ojmTsifKyYZi3poHB0dxQlWqJubzYI1L19irh5SjLhcbnahxCHkmGl1jk6OYmGzFYhvzhWBzyN3GpdrIW8gu67sSNKiHbnOXAHh1uTu5Fwe7IHJA/prQhCgEStRsG70hx59iEX25quT3EHj7O6nF+LzdHj4OIbZ6J9brj31fe5gQq6NyG1CFZuQA8TNkjv7kur73JVYomxSAoFxnzutufM98mCAnnjklThd3MRfG1WONS1vvnPRG17UpDnMGu+avDft3r2bWuUW15Aid8fyEchdR+YanELuA79zIHeaVFaZT3jc4f7nyt27+5KYyX5UqOpzp/V6Prnzz1tlDGxLBOpAgOSuDhQX4Bgkd7OZZJK72eA+jbOS3CUok9xNY8XVew6Su3A8Se7SsSK5C19HrEkEQhGYGrnDl2OEW6IgZANWCC4sEz4m/X6S9trfuUPmTKTptY2RYjkJHcA/Md176HSP1isSompCcgJDHE1YJsJmAneFyvXetjpDWOYwFBF9XJfQnyLjqnLuptrq/uNacVYPON/1raTPTznxtYTcXFwM4l+3+1vR9mayI46vi9dDGwXMkQ3LDBvF+qrYdej01BlZHn38zboZxsrihgPLFBdVvXA7d8r64HZFUNBWCGFTMVYLeI/u3F1ER0eHcT2EO/YCd91LdqFUM3wwcmvFD8v0d2eQSdOFPZnkFbLj4O77dsc6WfelOsNGhRHw15XdBbNhmZjPLRWdg9C4vtyP6ihVdu70mkNfprVzh7DMi7SwTC+0sChG+n66Ktd6fysDZ3mPciHLLr2/swbA7pl+D7s4lz5Lv12BtU5opIc/hqxnMp4PoZKPPGxgT6Bx3tlBWKaLOIJcREJjA595+lzACPIgN374+uqM7ni24o8rwLgsVnlj5O9EIASBqZE73Rnrc5duhZDlkecPCtvjgzM+2EMm26+DG6p7GOe1N6Fe6oUxrz4I1zQ0d7A6cJqJvD514Xdf93Am4Wlng+ShoTUieeNZlxeqDeX5c3hyGj/4cA2uCmELJcJX8lLgXqbN9bsO/6vJwld/XR0cvhANhg8+iOXvS6iMI4qLRO5uQYhLhrZmzbVP7qA70S9leetkFr+bNSQvoS5c14ZWJro57HSMhmWOau40uZtF/3nOcQSyyJ3vkVcFP39tFDnWZJ1gosm6LGmFUKQPfl145Z2cJMShyLFw/dy5dy/2/fOvo7Fz4eOeCsvUvm9m91zLYyTEU3sVa3lMkT6irjYiL9q2Sv2zAe4bNpwbUTD37t0v5SlsyJ2aIxOWKcd2xaxJRe70eav0n22JQFkESO7KIjcH7Zokd5fXzYvHMQVzT+7kZeNMaTWqkbsTIXf2QQdehod5OLlDMhb7ybMauVsWcneP5K7G+0dXyZ31QbMfCMbJHTR3yUeNLM1djVDyUBUQ2JQogcTnztfcCXGoVXNXzjNvPJQUu40zJncVPPIMubt/P/UjyRi5uxJyNwzX8JOEjJG7jNwHRZdJG8gdsLp//0EpcjfJ547krugqYP1pIkByN020W3YukruWTYh0Z2znjuSufZNUskfcuUuAA6kjuSu5kFrajOSu3MRU8cgjucvGXO+gkdyVW59s1U0EZkbujEZkqLzxszT5YZmIA0/LpoQbo05tC90RNXhhi9EndzabYpJaXx+lUPicbPBcmzTlLuUyIkFs2vK6C9ZFWibGus81jeP55O5cNALnF8kuKPQDoeM1UYAqdPJCQiuv4903G6YSWqDVcxoCaAC3NtZSd/2uJcxIX4MD0W1cIQX3kLzu7+zGYyi0rkI729J6dZI7XzuE+17XyoqEqI7qS5MwX6urSnZnzs5ORHOXZMu0YZnu/rK4dhptmnNo8Nw9xejqRXO37OyO5D4N8ldHqTMsEzpAlyofjysdaG7S7E/hujLZpWWth2q0luW+HV830NtuJJlyoUvFtZJWbk1Ypv3V15HlhWVCZ1b63QqXagmtW9X1ot9pgBkiX0KjVUbObeTRyerIDcuUPBFXw+glbJQ6G5eq42F7IhCKwEzInd853FSQwt4VP6EK4sDTtGE+MfRFwKFALGI9n9xBU6fTCGtM/DkqghceCNMK0yzSrzbW9cndlbzAOkJWtL+YSwjMXSkS0pl1LrPrIumldaIXXf9IXryPlH5Kn9dvS3JXdFZtfbxIL4t+0bykyfX1+PGj+MXLXKs1Ja8o17v8Vkg4AILmXmixRqCHcYVWCPkYtrlGsjNr7VN8A/QqffeJf5FjZWf4XB7uJts+g9hdTsG+oEj/UbcnWjgQPJTEFsR5PkK7mmjB/GObD+E6LDPDCqFI7oO8MSAvwqz9TM0OKXzuQrOIqUH5u36TrBC05g4eeIl1S/nz5uHK34lAGgIkdwu8Nkju2jf5JHftm5O6elTnzh3JHX3u6lqXTRyH5K4JVO0xSe7KYUtyVw43tuomAiR33Zy3WnpNclcLjLUehOSuVjhbdTCSu2Q6uHPXqqVZe2dI7mqHND4gyV05bEnuyuHGVt1EoBXkDj4n8GpxpUg4gB8nDu+8ND82XNyXol8qsy3f1ukFGUB6+TIFMfQ6FtxGK0wOjF+S85T1ojHahQzNXRX/nDLjblsbjStwchkt0c9lsatw4XdF+w39pPO1Q1trfWBDjioXo82cvFYQ+aNDSfV5GZZZDn+sAWjUXIHuSOtj9T0NcxxqcVJ5HZQ8APqr7z3Qku7u7qrxQXOXWNxkZcu0mTbTQ9FKdpHNKiGwJFq2JBtvu60Q7LtHohO015mxi5H7rysI05yGBi8P9iLkDqGBI894E5Zpz4BnDa6rm2GYYp7mbrMv8hiFR14/9e9aIzyr9zBzz4EnbomwTIxl2dx/re4O9+I1CY/V9+OxsMyh/67zE3T+gtCka7lEERxZlwiEItAKcud3FslWtL+Kuako8qfr56Xv1XVxcZ+K19c8kbsiGS99nOFxc6rE19A9zuKl0Ai1G0q4EnohzKoeXiCQFMaJtSGIP1IvqnjpxfXQpoLrB6L9tOsoq88kd+XIHa5Ll7Ida+Hw8HGsj7WecbAVKHfsNqwtq8lKdNfU3LVhVurrQ3c0d1vxdWQJaWIIfiX35us0I/L6oMo9UhFy5+sTzT17SO78nawquQ/yOq3f4br4HuZjBb/E/f39dHKn/PUm2SggiycLEWgSAZK7JtGdwrFJ7qYAcoOnILnDTmWS9KVBqGd+6CphmSR3JypBwU10fEzN3cwXdIEOkNwVACunKsldfViGHonkLhQp1msLAiR3bZmJkv0guSsJXEuakdyR3IUsRZI7kruQddLWOiR39c0MyV19WIYeieQuFCnWawsCrSR3eOHVurl+Xlim/O6Kr9fTQOO46z0JcdNmNqrClfgoISyuzQWx6zp0EmEXg5LpmuFJpPV6vnfWtHBgWGYSlgmt2oXoJFxBqF0pX56GJy/NDxGnzepzaFimI71p16o/PGhLSnswNYzVyOGVV9LtijFPCjq7T+4GgzPRUybedkU8C4NO2HAlzC/8S93axnrSNiy+lxk0dU47ZMKczM6dTf9uNL2iY+lysaHMaxOHYMOguy0nMM90eXbVUeBv6Oa+6PHyrRDmOyCqoaYAACAASURBVCxzMBhE18PnC6Iz9X3cf++CpixUHpM3D9rOCv7G5rgdew9DbgAX0gpvxM0tHUZ+Ln60iS/nqQrLBDb6Xu3bKFxeXbT+vTNvfvl7+xBoJbnzYcrSguUZoOtjmRdLo02ZfFfpgkceHpBr8iLgiq+bK7LEfG1jkbZ11iW5S8gdxO2X1zNwe61zQjOOVYTcYZ2HEltrVtutF/xbCPSHJs958Pvk7kKM4bMIdt7xZv17kk3R3ottUpTEfNnXCmUlVJn1WOo4v0869DEtmT2aK614HZiVOcaikzt9HeXhVyT3Qd6xRsjdHLyH4X680d+Ih20+RmWQO43PJI+8NH/hPFz5OxFIQ4DkTiFDcjebC4XkjuTOX3l4+Se5S1AhuUsPy5zNXaves5Lc1Ytn2tFI7pLrKA9xkrt0hEju8lYPf581Ap0gd8hMlBZ2hEyD/Y1+jKO5eavsggjvdF///Z07fOnX2+XXV9exaH/WE5N2fn/nDlmXTs/OSnV3TUILEA406zIrche6K+TwaSLLqq+5W4Sduw356hljL7sSabjC1iQ1dsdbtCZMy2WBk//RxFzVfZ2YnTsdRJARojkP5E6HfWOoeHl06+Ba0oYj1NSVed+588MUs8gdnlMnJ0kCmXkIQ637Wgo9XhfJnblG1L1hWVnaOL9IF7VgdoVGdsBlR0lZipiwzGGK/jzM8G6A8ENXqlgh6GyZeCfbkiyk9v4+Xsx7mEhk9HO3bfdz40e7lmCD90j9LumHZepR4n3nTL2zYcdP7/qNItL9kPO8dcbfm0GgE+Qua+hj6Xv9OHGV3t8nd7jpHRwcJMRQXjbalnbeH7tP7oyPTeDNupklVP2osyJ3+DAQqgMBxvrmXX3U9giLRu58G4UNueb29+6MwQkvoEePD8QvL9GVZWGOY+BYKDgHwjTb9kKQt2Zu5aUtTYcyD+QOVgdOL4yX0dPT49RQ2nknd36CkeydO2YHzbt2Qn/vIrlbEYK1qkiWDa20uQFMog8h/qHkLhSnSfWqWCVpcmfewzbT5TEmb4LykBucDVr30R3vXdrOYGdnJ9re3olhOxWNLOpMKoaAKysEP6RTtzHkXea7a8+yKuuMbetBYP7InXdjyIr1xlesx/IC6UpbNGhZU0tyV8/Cx1FI7urDMvRIxcjd80LuwnR0JHehMzC7eprc4aVFJ0Xxe0VylyDia+5o2l5+Dc8judPXkb82/OuoPHKRREiV98Gdd3IHYgeC50p95E7Iu3wEI7mrsnIXsy3JHcndzFc+d+4WR3NHcpd+uS3Szh3JHUzbE4PsIpo7krvyjyySu/LYkdwl2Pk7dyR35dcVWzaDQOfJ3fLyykj2SNy8dUppHSeOXS8T6z2MX7+ROGlsibtiPeOSOOqR7XHR8eg48GamI/SoSTZFpJ3XoYUIz+jaVx6E3rk+i1pqalkP9c4dzn8p4RKp+i9jzxGWtr7IGBYxLPNShUyuih3HxoQU8JiHU7k2Q9fynnw5XR+GLnU2LBMaPFeM3DBZb/MQlulr7rI0r74VwtnZiaQLt2FOic7I3gfx97QQqNA7avP1lkS/tIpJNafC/+73Q8md1dzBAgDFJ3fImtpEyHjzmDRxhlGc/TP45A7vCk7Pj2fp9vbsrRCMHlPui65g1nX+ZHstpIdl4ndXcM24EM6qaEODp62TihwPticuJDvW3A3vb8beSd69XOlCWKaxbpHnmCu+PjFNT2iv3yJhmdi5Q1jm5AiW6+ubTmdNLrKGWLcYAp0nd/5wszI8+bHevo1CFnTmZfNk9l5D/hejTXlBAGF1pYsp4TXulmRdIiVGsZVcorYmd3hxeiLeWTcpN9G+fDTobySpj7NOB4KNMYSURSN3PiZ+Ig33u/VBSz7E5GG5KfPTG74QdZXcjYxRxn+7mpC9eSB3eOl0JAwv1A8evCg1UZYNJxvEkGRZIXRhJyuxfrBzWkxzN+rr12ToXd511vbffZz9/mbtkLaF3IHYwajclexrYdQmo63Xgt7183MfmGtBQj67RO78dYWEKNrO4O7d/Wgj5X1hkhVCWkIVE5Ktkinlnbft1yf7Nz0ESO6UATrJ3fQWXtqZSO7m2+eO5C7wGiO5I7kbLhXftJ3kLv0a+v/ZexNg3ZarPGyfe+bpnnfu8KQnCYFmMZTBxEbWjDEplyuuhKHAwcbYBpshhYORqTIxFDgJduRicBQnNkOwAiQuExKQC1IuVyXYQrwnEEIQG8IgCbCGN917z71nnu/J+rp37157/XvqPf17/2c1dbm6799D79W9e/fX/X3rU3AHv8ijioNMf4cpuPOxVnDXX7+7zndScKfgblD9X8Gdgjt0SN2505073bmzQ7OCu+qfKAV3Cu6q95b2jtSdu/ZiqVdqJwIzB+7ACed89TVwveetjg48aFAYwflGkXSAspByr73HxHV2vPey89r+neuQQAHkVEJomEAvGWuZFrgziT5OKX1+XuDo97TyIT/C8/DAMfqa8oLLnpF+wrXpHJ07H/fX8rPHfwS0BHl6oXnSYVT1IpwFWqbxvYsLdCjzrA9hrOHjzQLzuhpLL7hB4y/3HF2lhTX3bzwbdGWuwF+Le2xhN8Knfy/WoOG4IWjwoOeCJhwFz76+jvTvto0nNXcrqfTvvE1tuvv9XM2dzIh4dnZ2rXQ4RXGW70YRLdO20SbzXkxr8s07GbcnrjtPu+t545MZx4luWKfge8696KT+lL8LkBNYD0SrycJ8YAh9Xz43NHWIiXkXKG5IJpSah7FFdqO5417FdJ6Ls5kfnPnvZZ34dnEO8gYgh4MreNa8voF55NKy9xcutkKwmrs8ucgZ6dI5pXPsspwu2ua6XnPmwJ1syBA6QFEnkDxxDKDwX+m7SCsEvPhHTEDdJKNV38+Sdb+pgTuqzPkFJaPJCQL49EgEUqUs0kd9c93rIIvOwcd478AP3gA0KyurVW6jx7AIzAS4Yz53JlEUSzSDCRx84VwBMMpL/jTUjsGtEGQdYWD+4MH95D9vbt6Mbt7cSv6d9vaCjYJPMjBUmqJ93nhhEd5eGx7cTWruAO6yNb0ys2jZ83J94lD7Qpv1KoqzvE+55s63keyTRs/P2gga37wkW1I3F/K8tn19UpRiW5C05i7kPtM6FnOpdeZzJ3MfSHDHbRSGkvugLHbwwMsD2ehDt27dSi5RBu4OCqwQ5LlF9y2rs/4+WxFQcMeEvArupt+5FdwpuKvTCxXc1Ylav+couFNw10WPU3C3XzmrcBfxD72mgjsFd6F9Ro8Pj4CCOwV34b2mwzMU3Cm4q9O9FNzViVq/5yi4U3DXRY9TcKfgrot+1eSaunPXJHp6bhsRmHlwZ7yVYm8ho7lDevWY+w0eOLb8XYHGY4m8XFxZoe1zp7MD53l/by/xYJP+ejh3IUdnBcByelLds6uoYSUtE1oV7rfCvaTa6CDTuEZKUwgPq0vrb1VW0M6geLj2LjseXHX41aCYNNikt3CegRdElzwh7YorqFOe14y8D6iWlxWtEOBltrCwxCzNyOMo7p9l9b/Ovy9RO+OPK6AmOxoM7JOWl1Yq6/UGE0fma3eDKJqLLJU2KMHQUrkyxvecgztrZg9rGasVMnompjW13m3+vS/SGZnsc4zGBh1S1Xe1zbYHjRZ+V64UgY4/vr4WffvLnkqO/T/u3Y9+9v6DzOpgbNraesKPTYG0PRvn7q1l2oxl0bWK4iy1jfI6oMTl0V8xbu/uPkr6DuIOmrx/56Cx87pYWOM47zZ5H+iIT8/qyTZkfy7S3OG+Y/M4vA47d0V+w8aXk41t8ADMk2KYZEqgZcYel7KfYQ7DNXdH9K677yDspEAtnqV3v68xZhbuM/PgjjdSk0EFA+h90oQ40SwGdejbXMEHh4tk+X3b5IlLcIcXuSr4GWOHNZ5xlxU94wjWwbuuahIOvrqGuG5v3UomUOfU3jDRrlPyvNuyrhWaFbJOfWbxHBiWr8Sm5Xi+3f3dxGdIvudjfP4bNL4srnoN1lCShDSJZRrcQTfnE0FAm4YkC66M0edO6rmKwN3bNjeiH3jlK5Ln/Z8+9enon3zq2czwSk/AWddklfWx4jinjchDwB2+8ffuvZCAJfONZ0bz8lpFO9Gyjcqeif8+65rKJvOwNudSIW3S5rHSq3hjYzPa3NzMvEUVn7tccIdETAV6vTafSa81vAgouCvI0sSFvAruptN5FdxNJ+5Dv6uCu6G30GT9FNx5WqaCu/r9V8GdZynUj+L0zlRwdxFhYdkVBXfT64uzfOeZB3eW4obHtOmo12glztHeJC3TZGlaXk7aG7+7Y01WQ0bLhOUAp3cgNXle6uM20/diYOTpmC1dsBrlBtv0VY8dSqcHHbbqzmQwLfP0hK5taZlo563NrZZ27i6TXaSyOKI90Y+q7jaWXe+6/C7B3f7BnrGUMG1JMQXNZWwxRX0TCjnZIiys+LFoFnbowW6Yj+0eMGTZ7LN27LLZQf3znp+fpmioPAOkp3Tac+VORxElqs33A+3FKdRlO3dIs49vEMrn067st965nVQHtEz8ySq4x+3bdxOJwHXbuWsSZ+tgY6m/KPO0Q5xHpUS/efTI0zJByVzlmYuF9cHS0mJidSHbrdnOXZpmLGmZJycnKcpym326j2uhPfn4jOzSnAVl3iM2FphFdkaPPTOWRfGch/5Cu42pYKPghOYeroCWiT9ZBc9ZZLkls2UaWmZM+URcIFcATd2Wq9HFakztOrS6zjy4k1YI65SiPs/nToK7hw93iLNsX0Kcg5XnPA85pMrn2+O8oe25pPVjmpq6HUFu6UNDyOlMRdfFy871eXXrMIvnoW2gt0x8txrQMmcxPkN7Jgnuxu7vI/ufjPf51WV0wSapQ2uPKvWB9st51ZVRDeX1itL7l9HYqtStzjGTdgbpVPmSlmnBndVsnZIWZodZPyzSAg8Ht7w+3pjbAsPrBu7C4nzD+Akmi7I0jl8wev0Rxf2Q+mFWwTn2O+392JZoEdeVeaKB448r3J5DXk/q5kL6V5nmLuRaYzhWSlwmwB3JXxwgN7t+bA43LUuqNuNaNHfEOHn79p1kYUfedwLcMQsGLIwfHsIyxi2CpXcM23wGvdbwInDtwN2GMZK1H0lpYi7B3c7OTgTtB0qZjgfADi9pVik7N6RbSHCHnUgYs1cpCu7yo6TgrkoPGs4xCu6G0xZVa3LMkt5cP3AHLVh1DzUeUwV3lPiMfePKaZk+ztDIc3AHYAeAl/udZkbzYADUB3fwqssGkWXvy7QWK8rq1dXvE+BOMKjWBLjjc7hZAHdFc0f4Jd6pCe6kXk/OHbtqT73uMCKg4I4lRVFwN4xOOY1aKLibRtTr31PBXf3YTetMBXcK7ur0vdCdOw6iFdzViXi/5yi4y98YUHDXb1+cpbvNPLhDaur5mAoDCwTscrmdO2RW5FYIAHfQhbhyRnQOl2bYTv6Xk3Ox5X15YfVaKPh3XvrtsnNDOhRShHNqJbjonI9edC2jXWA0k5D7YhVobNz2kOczxzLt4hV2d1na60vYG4yM2x/8/AM+Aavo0LkmhdpqjtMUW6A89/34KTsDYs5cwpYjTz9LY9dVrNfKrGfRb30/WM797Phh9TGgvm1u3kzocxhnobPLK9gFydOeyJ2OM0pBf0LWM64ge20XYxd2H7n1gU2z73WD2G1ydDK0NeiCjvKHOjlWCOqJbKF5WjBoxq1WL4+WSZIApuEB/dXHimx46Ds2Lq01ZT02tkL2efG/edbKFdKiLpHViSuIsz3evj5Wh25/vaI+95jZ0sDixumsZV8z32maA7j5AeYNy2w+YOR77CQsVuT3ybRuLuQVlLRMo7etaq0TcqOBHHvdwZ3VU2dnBMd4sUKWG3mSHqPTZt8+aO5cdnHYJxySRQzmpihy5+7ykt6N2ApqIF1Bq9FiBGYe3PFYTWRpIv48+NuuLJHf2DL3KYKQl3lp8WtJOkCRFYJsrzapBEVb+vK++HAhaUidMuuUTkwIeNpgGasTStZxGifsqBM/PadZBADs1tnEGR8tiMVd4draZnfq72xoPHnCpoe7O7kgBP2RJxmQtbyihE7xXLi/Bwi8U1Hq+LJLFeub0hQ4a6PgwV2RXq/sviG/lyVU4TtK0vqh6D5YNOS2EWW0vb6eNyQ2Icd6GqrVvpXv3AFEWy2ctDPI+gbm+dzJY+19vd1RkT3H5De+PVpmSOzGeOx1B3fF736xnYHMtJnyuXMeeUxzh99dCZk7jrFfXfc6K7hTcFfpHVBwp+CuUkfp6CAFdwru8nYvhgJ2FNy18/IruKsPDNtpgX6vouAuP95y0VkeqeCu3746prspuFNwV6m/KrhTcFepo3R0kII7BXcK7hy9ahg7lR296oZmlt7lLEuoojt3XbVFH9dVcKfgro9+dt3uMXPgDgOFo2jIxgQ1Gb8lXlKkY1hkqY0l9WlteTXRs+FczseX1EpQZx5X9JuDVoNrM6Ddw/XqFOh0IBqvXGpqk+CtV0QLg7fKuHQd6Yih7sYfJm5D+cHpk5a5ubYYffNXvTHC332W/aPz6Id/5ncj/D20IsGdpJTAY9JZnAyt7nn14bRMu0KLtNXZnk3QynJ/y4lrFmjujH50AJo8PFvdMQLjJcbNrDKZOj5Ny7TaKDu+4v7Ialy3HkV9C/XjdYROzGnBoJ2xKfpdpmbSezPKX9F14VN1eHiQ9A08C57JFemDhnh0oTHs671qAu7w3Lu7j3KfH55qi8wzLaV7FQ9oNHZzXmUn4wwdaN6Cg2yjkNjhGerOB0LuM5RjMW5zj2CT2I753MEDDvkRUKy0xttZSQ/EJnOpocSD10POS2Qd52g84fZcy8tE9Y/HySzN3REzT0dOCW7fNXY7oSG23zTrNHPgTlJjQoIrz10l0bZLVmI+OMxGQYK7EP4yOP+3bt1KqgZTzrMzGPp2W5qkwi3T683awICPPibfrvQJ7p68tRr93A/+mQh/91le3DmOvvxv/z8R/h5akeBuJky9mebOgA4y9e4CdJhELLF5+DTblWfLDK0HvJ5gfJxVwnzfnH6Np8YIrU2146XPXdFuVNEVTUrzAw/uymio1Wo33KOagDsfq+z2XaBxHX9cARjPWxS6oIXTY0rO40qIllO20XCjPbyaTSyys9wHpm+sCTsr+t2VvuZSQ4manHdub98yCVhQsqwQOLiTHnnHzCNvKM+n9agfAQV3LHYK7vI7koK7/miZCu4m+6GCu/qDvIK7w2QnxCcnUXBXv0d1e6aCu27jO/SrK7ir3kIK7qrH6rodqeBOwV2lPq/gTsFdpY7S0UEK7uoHVsGdgrv6vaf/MxXc9R/zId1RwV311lBwVz1W1+3I0YO7eeLPu21oNF6btMw10kw4KwTw4Pd2Hia+IDdIg8Zpe8YHLkcvIzsVvHeMvisuC/NFHkftdcmQOmbV+bzAa2d9dSNaiL2GYAaEY7ugmLUXjeIrQcsIbY4ry0TR5Sm0T4hGC8+kLorcufvw/3c/+vs//pupW21R6vs/tr4Wfe1LbkcbFb0Lf/CTz0UfOfCpkHHB7/qGL4j+xOfcMdceMi0TfjwXzIpijagnqzH9BHUfo84I/ct421EBNWxjfZOsFa0mq03dzVDAHZ6p7pjAveqgW1tZWUv8nQyFmvmRFaWsx84d9GvQsaHguicnnnrX5vvM9VxGK2Q0dy69f33NndQYNolrm8/b1rW6BHdLpLlbYpo7UNPcOyjrb+LMNEqYSHOLjSIa27XwhW2rwcV1jI6OecyuClom19wZuwpGy4SMxunzzPtN46sbc4x+jfSq7t8y9wE8C/N8Czt61MaXlXO6ddLxLsR5JCQtUx47Qcs0Hnlem3xyclx7vG78YHqBxhEYPbgr88AJidBkKut0Fq77zz2XmJrLhBsh95HatzIPq5Brd3VsmV4P/nl4DpQu9UNdPV/Whx0fb1cA9PFRceWQJgV5ZrhN6yjB3S/+2rPRN33f06nLft76avQ3X/6S6PM31qKlikly/tbHPhH90u5+6jo/8t1vjb7kT77M/Lchgzs7CfdawE1qi02aLLsyRs0nnxxi0r+9dSvle4dnaqMMBdw1eRau13NAySUSCPEjk7TMvrRRZYClKDZWR7afTLT6qnOT9mpyblmsir7TZZo7gLvlODkH6sh9wbK+AapRatKS7ZzLPUxl7gPz7tNCjysmGQvzQ+WJ3tA3zk/9ojPOXVm1+jSUWdDr4XnchoQEd7I1zGIFW8CWHnnc97edltSr9BkBBXcs2gru8ruegrthgbt3bG1G//1rXxk0Vii4CwpX5wcruKseYgV3Cu6SCTxN3jmLYo0WelyGbAV31d+psRyp4K56Sym4qx6rWT9ykOBOprctaoQ2d+4WKXsdp/cgOxtonyiWlrmTpFg2VKAFn00xpKNcknXByamnAi3RNjruPeQi6yzrum6oEz51v6GoxjkLruh/1KVjTSsm8nnXKB0zPjKuTHvn7vqBuzRNdpUmeGsse6KxEBhZfwN90O3+gmq4TlngHB3JvDMxdRB9rsk7NAs7d4gVdm9R8H3gtMx5ygTKx228u+5YHH9EFhMutTzGcWsrYDuL3AXriuKIOoNehr9RMFZWtUIwNhmGSmpp4F1SSac13vL7trlzB9sjZz+Be8wjWyaj/JndCiaR4PUwtEz63RW502H7ZIAN0RCCO8I6AMg7ixGMj2DQ+PcoTcuUNgqclolHf3xB1PD4Q4E5HLfCMjYKOX0Bp4zBXmRxaTFhf+A5i2immIOeEAPJlWP2LuDbc0R2K97ei2RHHclQRtglR1HlQYK7EN1cm+CuqMW8T5HVTFycnUfH+wejaOQ+KtnXLkQfz5J1D3D5Hd0Bvyu4m1ZL2PtCr3bOaIu3tp6IVkZMC5Y+dzKBURPrh1kAd0W9DQANExNXbt7cijY3byb/tuDOejeWgTuZ7r6rXh4K7rgVQld1Gsp12wR3C6SNX03pMQUVrSD9uwR3GHM4jW0o8bpO9bA+d/lWCBLc8dhYOrf3yJPta+adzF+Pn4vx+ejwaPCL1HweBkAMC5k8f9BD8mk8OvZSB2iP3aIYnvfkzGvuyphb16kPjuVZFdxVbCmAO+5TpOAuHTgFdxU7UoXDqmjuvpC0dn/nlU9Fr1pZppVouxtQVsZMy5TPNpvgzu8oKbgr683+dwnuAOwA8Fzh4M5q7rxZ/LQ84+SiZNHTSs1d9ciM88ihgrsQL9txRn74tW4K7qRXMd+ZlXq9sYM7mJnfUXA3/E7dUQ0V3FUMrIK74kApuKvYkSocVgXc3abMpG+5uRG96xUvjZA5s0pRcFclStM5xu7cKbirE30Fd3WiNtxzFNwNt22mXTMFdwHzMAV30+6uU73/IMAduM+c8taMlomU9TZrY5sFEo2rS5/6HnYGj8+Vb+9izLMV3qCdpI2NzUQ/BCpUW5n/2mzTomtJ3ecl2ptxzi+Ik96VDbIEd7/3R7vRT/1fH5uo7iaBuq9/6Z1os6IVwk/f24k+epRO+/6X/5PXRm/4LLvLMeRsmfLhQR9xOir89gT1N2hXUcaYrdXW+ZTqbp/Uanq9hnWO/u3S6OP3IG0YvY+GmukKdnqrbfZOviJmIOzgLUR9Ku5Ay7vDJuOMrElcgf6Oa2msJYH9FRYIVnNnx3JoUjilU9Iyu7LYMFY6jC5YHNErk4J/bLrlur2kEbiDpvLAW13AHxP6XFdk+ndkw3TjiEmVTzo7N7IbKhqj+0KPxcecus+n59WPAPrG0uJy8j6D3rxKenhXimiZRq9HtEyn15ugZYpMm7KWV5d+4ENOAWj0hlb4PMxqk1eS50Xt5RjCh/ITomg6zaGxjCHaphsnoQ0/OfUUzsfQNcc2PkOLgdbHRmAQ4K6Jbm7y3LQfWVsNDeF0W1YIbdVpqNexA/BSMqiMEdyZyTVLcrNPE8J90u64wpPttN0OEty1ff28640J3MlnWKMJ3GIMcscI7uTzSI2DtOJoYv1wRQlIaOWlVreao4QECQKtdYWckwBAF6yeuWkBQOMeldCd4H1F8VYIFtyV0TJ5Mpam9dLzq0WgMbgjuxcsvqLIdPdl4O4glWyHwB2zw6lWez2qzwhIS6oiaqXpV0yvJ30My/R6ktJ5ctyNP2Zb8ZNsEOTnunSrh3STrc3NaOsm0yYjoQotaKCYBIL7+z6JEwG50zP/vEpRbquVuruOgruKsVVwVzFQdJiCu+qxyjpSwV14/BTcVY+Zgju/c6fgrnq/6etIBXd9RXr891Fwl9+GCu7G37+bPIGCu4rRU3BXMVAK7qoHKudIBXfhIVRwVz1mCu4U3FXvLf0fqeCu/5iP9Y4K7hTcjbXvdl3vqYA7s7ND/GbHfV6k5BCrq+vJs4Zo7qCt4Oe+9vWvj17zutcn1/rgL38gev65Z82/V4ib/af/zH9s/kZ5/tlnow8+/YH8GGMfm21jPwbHOv43NDBIj6/FRgDpdhOPLpNG9yThd0OD5/wCxxIvScs8IqrXMfOEwfMiyU4XZXV5Pvqzb35FtEJ/91lOTi+jf/3BT9FzDk9LAH+qpYX89w22CNBeoWBQQ39z40ufMWzrXlbTYSkytqR1cqAQzZNuCwUaoSAt0Ixp7q7wPIxmioU41xcQH2TPdPo2pWW21UPbvQ7aBzpEFOP5uI5093Z8nZwfpKUXp6QVcu+K8bVjglKlZbbbTkO7GuYc8+y7UEat5FYI58ZCxevIpBUC5pZujMV8b4NojE73fAGt7oG3XxlaXMx3AUm6yN4g0dnROMl123jP8F11BdrU+Tg5G3zuIEVx9GZo8Y6Z5u6M5kLcFqSJTGCIsZuFOk0N3HFbgWaaO5jBemD4RW9+S/Smt7w1aZuf+PEfjX7nt3/L/Bvpsb/1Xd+RpMnGf8fveWUOAloH5oS/yiw0fpvPAH2aGzjA13646w3f5epam/ft6loS3J3QYH5Kf7RMJwJIjLBekChpd383WVqSZAAAIABJREFU0VnJjGrTqXG7d5Uah63NLbNA5j7i+Lhel4QbE5Et0evBLNwl7FJw126/bOtqto1sAqHynbs0uNt58cUIySDcudIHbWV1Jammau7aarFhXgdjYp5XnelXZtHA6o3LEqqsrfhxw4C7rS0P7kbgc2zA3em5X2QnMMcTF0o7obu3b0erlIDFfVOk/hTJh1yR7xHPlj7MnnH9aqXgTsFdK71ewV0rYdSL5ERAwd1pKkmIgjvWURTcjX7cUHA3+iYcxAMouPPNoOBuEF1yapVQcKfgrpXOp+CulTDqRRTcZUZAd+4KXg0Fd6MfNxTcjb4JB/EACu4U3A2iIw6gEr2BO/htON2V5NSDjoHB3ZXl5ep2Bi//jM+I3vklX5qc+8bP/pzojZ/9ucm//953/Z3oV5552vwbOqknX/KS6EacMh1c/fv37+c2wxx87Rwtk45ymoABtFsnVcCWPedkh9wEKcPBYUeB7sH4TMX0B6ODYNzukOtO61ilZU4r8va+oM6skQ7HU2jOo6Njb0Uha4cxxPUxDGqz9q5iFRY6PFdWljCexpo745HXPy1T+ihB6wa6jisYA7jfHG8zPM8J14M07W7MI894+jENntIymwa3+/ObgLvD3b3oPPY5lO++au66b7sh3cH40+Zo4edoTIClTKKbEz6GBhgy6j/kPtB72g/SDfptLfke4RqLzIf09ISYFWzsW6bzuJ6tqxidUx6Icxp3s0s870pZnPp/YAx2PnY4H9517t94vm1OQyXN3RHzfMRiIx/r4Qd5Tseg2LH9+PrKBLpq7MDr9gbumgzeRc/0qte8JvrzX/YVySGvpWQqr33dG5J/f+e7vi16+gPvDwxL/D535elUqzbdn8R330LvNmuaJwV3oT2g3eONPoIWhJCMBwX6APSxvLLK9BHt1mSYV+Pv6rR8/QwAX/cTHmhYuPcTkmQsLS9lBhB1PjqESW77jugG3MHLLy4K7obZh3mtmswPjvcPogvSQGUVBXfDb/u+aii12NJLVO76rZHhuVucwrmLi6sJuDP9KvbORP2Pj45TY9/q0iIl3Osm4RqP1+n5RXSWY6aOTyfqWTWxGADZZQzQsHD40rt3kwVEqU804I7+uALg55J6SQuGvtpX75OOgIK7gh7RmWHvQHuhgjvfMArupttJFdwVx1/BXX58FNxN992tc3cFd3WipueEREDBXXG0FNyF9KbhH9sZuDPb44yKJwdvpDp2v0ta5hPbt6Jt+pNVkIlx58EDSnVtKUove8Urord/8Zckh77iFZ8RvfwzXpn8+x//0PdH/+9vfKRWS1x3cIf0t5RlvVIBZc6t3Fi6ll/lqnSBgR2k4K7/BsEunVtlxMC0RGmZQelFsWmr81NPg8rtaIr917z/Ow4F3C3SCrVrM4zJ52wHBWm1eXY2Y5cSfxMmaJk0zrgxvXE0aefOALy4YAeRU1hhm+EGtnNBzTolqiinG5lxjVbHUWA50VodGz/kbF1Awd1stecQn0bOSyyN/CSp6iJl/OY0ckvLtBlcITZZIXaIG+sgMVqNLbXM94nGvTM29i0Y5xrGh+woIBf0DOeQD2UU7NxZS6BqNz+nnThnIYNx+u6dOwm1VHfuqsVwSEd1Bu6kV13x4F1sZ8ADdnh4GP30//qT0eHBQWYcTYpWxn1uEuzrDO6knUFZHGeNFqfgrqzF2/+dG5HPgp1G+xHyVxwCuJP0G2l5IpPAYMEO2uusIimdbcaOp+mG3vrObZq0xHrFC/JGPCZPTleQUh8AzxWlG7XZEvnXUnDXT5z1LtUjgAVqnyfiBvllep+7SfsuYc9x/yHpzjxtsfpdw46cJ+pnW4uai7Qg5mQQWZT7Cc2d0jLDGqvnoxXcFQRcwZ33qivrlwruyiKkv5dFQMFdWYQU3FWPkD9SwV2dqPV7joK7fuOtdyuPgIK7tJ5awV15nxnSEQruFNwlESiyMyjrtAruyiKkv5dFQMFdWYQU3FWPkIK7OrGa1jkK7qYVeb1vXgQU3Cm4G/Pb0Rq4A42N6yusncFyEptVSkHr0srOUVpZq7mzZOCtJ7aj173+jcmxy0TdWWF85je9+a3RS596yvx+fHQU/cK//DnzN8rDhzvR7//u7yTnmpThjysKxWTLIXMbO3UO1+kgm9tQO0wK3FHa9YODfUq/Xi2WS8RNH3v6eU5vQB+6JMqWK5cmFf1QW2426pUCd6L/Ia00NBFabASGQss8Oz9NhkjZRqBaGt1uXPA9yKMQmbTcHb1g0Nhdxhptq7tZJh2KzWSH9OhzLKsdUppzHQ6nZcKKApYvbky8omvy59O+WT8CCu7qx07P7CYCq6trKfuujY3qtMyHO7tE7+6elok5dFs2U6RUjubcHIfGyQVo3nP0ehhTnfUVoq/jZDd9sMlVWwN3kxxkeIZ4fUV68L4RbWxsJB9YaWfwS//mF6MP/Nt/kzzXu3/oPdFb3/5O8298eJ/55Q8kH+Df+e3fin6CGZFbr5JsXUdpoEiYagDdNS1DmDBOK/SY9OH5nWD6hPjkO7uPkuoAWKBvaekuAhzcTSu9f3dP1+6Vx/iucnqkjIbU67UbLX81qRPEt+LWLZ+8y2i2uZbkJJ3i++DwILFvkKnUu6rzdbiugrvr0MrjesYmfXJvd59875C4aTwF41myMUKLbecXPvEUvjdbm1vJw1w+xrF+4e5Ix8nBNbSCO94kCu5S2eymYYw8rTdEwd20Iu/vq+CuehsouKseK36kgrt6cev6rCYTafW567p1ruf1m/RJBXe6CDbtt0bBnYK7JAJjnDC29QIpuGsrkvWvo+CueuzG+K7qzl319r1uRzaZSCu4u269pZ/nbdInFdwpuOunl+bfpTa4w2TYauosKRd+IOAouyI1d/AMgZ8dCni8+N+OArd582b0ys96VXLupz7xH6JPfuITyb+/6E+9JdHcwZvkheefi/A3yiNo7n7vd5NjofuqnBqWtp5TNEwwMitqzKbdcFXvD7pTVb8V0JGczgytaj1SKpqkVK3QgI4zvlux9gYr+kcnx15PQ/XkekPw2vM0heZdQJxzYnVOfRV+NFqKI3AFjWP8/iEl8yqlonapmaF3cu+8xjGiWBAtJo4V3u8VohcmfnMDiRXGHnjduXIJ2k9cZ7xv52dnCcVxDpptGm/6KFeJsATfItKWsPtiDEzRMslb0fl3quauu9ZpMpEuAncY45dWvFb3jPrc+fl58iBKJ+uuTcd2ZYxXbo6KuvM+CW0b8kQ4ra6d764nj3hmLLg8DdMMcyNT+FhKpq20ST9x5ecsyKmwSc/vyinZx3DLsWOaO+GbhIIxHgt5GONRlL4+nTehEbjjurlyzZ0Hd2WP2qZXXeG9qDPP5RhAltVxDL/L3aiyOu/u75IRpxUB49z1NQxmswvu+O4HEi7cf/ggSbwAYItsWVUKYrRBSYAcEJHnnNBk4pRNKKpc8zoec8I+EEjOcWf7dmKiCt870IS12Aik0vtTrLa3biWU6qHECubhS8vZSXDMYsqhnwD01a54VxeX/cIiFgww4feTlnxwJymdfdX5OtynK3B3g5LlLC45I2oym6Zx2IF1xFXB3XXoXdWesYk386OHj6LdR16jzzNtVrv7sI9aWlwgcOc3bw4poeEReYK6ckLeoA7cYZw8OTtWcDflJlVwp+Au6YIK7hTcTXM8UnBXPfoK7qrHih+p4K5e3Lo+S8Fd1xHW65dFQMFdfoQU3JX1nuH9ruBOwZ2CO4qA7txNf3BScFe9DRTcVY+Vgrt6serzLAV3fUZb75UVAQV3Cu5m6c0IAncrRD0DXQ1FcpDBVcYA7YrV3HlLgv39vRT9hQfRWCH8Z1+R/Kdf/7UPRR+hP678zW//jujzv/A/Mv/cffQw+m+/57tIa/ewVjvMXTxm56V97WpdcGAngR7rfE/gG3VwCK86/sz5FUYbunPRMcbuW1fWNKmkFHSwpeskRi+V/WOuKL6HlCI9L87LS+l34YRoYBex71ZZHaf1+xL1I/xxpY86g07o4g9tw00aTxLNndIyU10BsSJnOPvf6C/4Drl/L5qx2OtBZB+yKa+rjQlN+p/1ufP6pps3t8hOxNM0TR3iRwA9kms4oGnBnypFnlt0DnbuVtdWE7o5fOqOGb2oSHOntMwqrVHvmK7AHTTkTmqAmiEvwCrz0DX+XLFWCN/Lw2PyMYzfDfx3/O4KKJ14z7TMZgRgdcTHJ2js3BhkpBfMvsvOd/0Ye3hwGOGPK/h+tSFpwfdvA+NV7AldFvmj4xOyMGhf3y937k7IkoyP11n0ZvceYXw+OfUUzrJn0N/biUAQuGsyAD94cD/CynxW+ezP/bzor3zDNyY/FfncPbh/P/rrX/c10f1798IjQBOJuQ46fnhFujsjZUROH6mHuzuVJ3KrK2spI/ruajmMK/NYNakRBrGiOK+R8HqdfwhIfD30BCvLNLFeYZPrw57rLHWMQ9GRNeknXZ0rQQcmKdyTSN4X2sU+wB2AEp9Yb2/fIh1rtgcpgOAJTUxcKdLryeeR55aBuzXSjriJF87lE3gFd1310uLrNplbFCVUkckcYES9ubmZVIabL+M9OjhKZ/mTfYP35+lESu/aVQSkly3AXFVwB/3w0WH7AAabKFtUD/xdpexTPc7Ovf9clXOqHCPBXZEfKBa5Dw5osTteJIEWD2BQS78RUHDXb7w7v5uCu+ohVnCXHysFd9X70bSPVHCXBoYK7qbdI8Pvr+AuPGZ6RrsRUHCXH08Fd+32tT6uVgjusLrpUsWjMqtEkwLlBwXbxNi2djQ+Sct8glZptynbnStwu0/oDrRa+kd/+AcRUmOjfNariJb5ZV+eHPsbH/5w9Bu//uHk36Bl/rE//oXm36Blft/3frfSMnN6hwR3SJJyVZGCBRptZRuJPnpnx/dARkaX2rjJrbBSdYgVX5NKGEyzq5SNAtLU448rp7R7DI3fkIp91/3q4AJS09MfV86IWsGtIXjdAS7yfqv7jKjPirGXsFewqaV9bmnE2KVarnuPWTnPZCcjVoSLh8lczNJ0WxsP1pY97dyBwsbTzm9sYiXc0zKNTUvcwGU7d4aGmmNTg9/4fYraFbYRJltmbOFjdu4obXfybiKleZwxGP/tmGh55462J+I8K/2nj+cw4wvrg/KeXPIxSYGj/syYD1LyYXbu+G4F6yeWsut3DdY3iEXBUrrrzl0frT/Me8g+CcYDH5/kzt36+mayg4Z5Q8pChWwQTk/aoezaeYn98OHvNbLyqErxPKZ6XMZ5JPC1bMs+qBm4U1rmNN6AQnCHzr5Mf1xZI746Psim01EH3CB6QxrceQ7yF735LdGb3vLW5Nwv/BNfFD355EvMvxtRK9uM0gxaIYzR3LjNJg25VpGpcsh1pG3EBQ2ux2dea2Q8yR57qsQQ0yQvkB/UuvGttOXw6JDoal5DAJofxoOsAh+/I5oUt1kwkT+m+7sJ/Qrd+9bWE8ktrJ6rffpJm88wrWtJKpqkBfdFy5TPn0oCQ/3tzu07yWJSGbjjk3B5XQtmvd67KO6Gekf6WO7BVAjuCPjx1PnTatOx31daJRU9Tyi4O6K07EkblUgvJN1Xwd3Ye1b9+pfbd2G+67yZab7LNHfH1OdefOHF5OZy169+rSJjOQAwhSLHq7Lr8jk6fOt2DT2yueFeCLjLGmMx9mvpNwIK7mYsW6aCu+ovkII7HysFd9X7zdCPVHCX30IK7qbTexXcTSfuetf8CCi4q947FNxVj9VQjlRwp+BuKH2x93oouFNw13un6+GGCu4U3PXQzYJuoeAuKFx6cA8RUHBXPcgK7qrHaihHFoI7dH7OK0YaYUfLhBZvHbTMmBtsNHeMGvOa170+ei39ceXLv/o/j/DfUA5pq/in3vvj0f7Bvvn3C889G/3qB5/pPyazTsskXdIl6buSlOklES7StfTfON3fEZqgNrRveAWWFpcTXjyueXLu0xHDKuExpeR2BRSOIv1J909OtGq6idE8uZsRXW2OWWaA8sgzekJrCy1AVrlCAGg8qFJAEAH4KCOKYIfFpPeP9TPLFDNkDXNlDLTMMp2RjFdb+gj0tTNK2+4KdmX5OH6D/s01HG3dt6z9+ftmNJUreGdsv0E7O80q/o3fefpv/G+nk8N4Bo2VG9fmb8xHi0vVbBNMunuiHDvbEqm5OxOau2lRWMtiOfzfSdtI1DLXz6Qmv6j+huZeoOcHzYzrL+W/5/iCrdDqKi1z+D2nrxrC6olbH8DnjksP1tfXE1qmtf7aTMYrs4B2xLJjwlWr7KNW8cEWF0gjzfTv8/OkwYu/1Bi3imjiQ6Jl8myZxzmZ8iuGRA+rEYGgbJk8Vb7hxdMA7Adv0j1QKn1XoNXDy+LK9777+6M3vfVtmVV8+gPvj77zXd9Wo/oNT5lxcBcaHZ3IhEYs+3gkFzlvgefeTm2yryKtBpDiG8l3XJF626JdzrLU+7wGiM3ByUlwMhRJGx0DuAOAB026SsFkFe9fF0lipCUB1092ed+i55YZPrHQgO+LK0U2CqE6FF4PTXdfpTc2P6ZMN1cG7oo8xfb2diP45rpiF51zwL34xiu4a962s3qFoWTLRHIs6PRRkODupXfvprTJ3J5DtsUQwJ1aIQzjDVFwN8O0zNAupuAuNGIK7hABBXfZ/UDBXf77pOCunbFmqFdRcDfUltF65UVAwV1+3wihZSq4G8Y7puBOwV3SExXctfNS6s5dfhx15y47Nl3uoOnOnY+57ty1M8aVXUXBXVmE9PehRUDBnYK7ofXJJvUJAnfQbTgdBLQS6+Q942iZ0OSsrq4mdQEtc2XJe3v9qbe9PXrpU0+Z39eIzvk1f+WvReuxhuaF55+PPvQr+Zq7n/3f/0X0sY/+fuZzQtf3FaTnc+XpX3p/BJpnpSL4+HOg0rVFnK5UgfYPsmn365G/QaOFfgXF6FpiH8L2aznbVxwquFsi6pvTzRlNG1Ex0zRA32+gy3J9Aa0FDV6xX6L3yCtqXYwXizQ2uHED+sSzCv1sLLRMq2O0sbgk7dtpRYsIo0EjL8Q8PyNcy2kYQt8ecy7ZVbjC6fVdgsqieuK+xsoiHm9hrcN1gUZjx3Qn8ER1Ojn89+UVH6vHtECHhSlXMG6dX3rNIa9HluaOp+nGtRAvLeURABXSafDl0di1hm4umR8sYn5Qza7Cn2v1mPg3vw+sD+A/6Mo8zUtyNcziG7+8vJSSixyR/tJ95/B+GZuM2IPU6DHZfeQiSXmE9IghRwB9hvvaWf9ELyVKa+5cf7Z9skvNHeZw/Lu8AM2dy21B32VolflYx+dpQ6BlOtq8au6m2/uDwB2vqvT2kl5DRnOX45F36/bt6D3/8/8S3b5zp9LTQ4+XB9je+vZ3Ru/+ofck1/lnP/rD0Xt/7IcrXXfiIPqwG4A34tIkA+QQtDgjDn1S9aGCuzX6cC3SxwEFA+/D3Z0EMEjNU0g7yOyMRefig7q9dSuZjFX1yBsDuMOYCI2d+xBLHWNIXOSxbWoMx2CXIrVROzs7iRk1Fh6kR56chHMjch5L9WAKebOLj8VEGBPirNJs5y7tKSavjwWTqosm8lxbZz85tuDOLgRgTDzc30/GRAV37fWVIV4JiwLwnHVlhRaM+AbF2tp0fO7keMX9Xlepjndp/uyKeRdokdaVIYE77iWqPnf9vwEK7njMFdwl2aKmtaLf/yvQ/h0V3OXHVMFddmxkXBTcLUVLtMviioK79seppldUcNc0gnr+NCOg4K569EM0d7qAVj2uXR45PXD3Y++NblXcufuv/vbf0p27ir1Ad+4qBqrDwxTc9QDuYNVQgc7ZYTNPXLrTnbsWn3eMO3cPH+5EJ5RlFQUZ5G7fvpObQQ4r2bpz133PlzQ2fke7c4fU8ZaiHGaFYClweVRL3bnrvm2vwx0U3FVvZQV31WM1lCNrgzs8gB183eBNVgiMUy9pmdjuhi7PDfSvf8Mbie9czZvo05/6ZHRA3nhZBVq+//of/kDy03WnZRqvulIXsezuB40kJk4ounPX7BXl0s1L+gf+9F2gscMfV46OPQUJujCjN4ilcvh3Xe899BWnhyp9RgqD8a+L+6j1x1yfOA3XPDrz1gDwbrtguqo1otOAouIKgF5dTVppnSseIMEd/ONOziwgKS0iLvJ46PHyKHDyWGiGzguA7xDBHcYdTpc7J6qc0eTFBXo81z/Rd86Zjx+OPT72nlNF4A59BO+B1yVT3401VqVtdM0PsJNh/84VgTupubPgzr/nj6l/QkeZtC/5FM7Fem+0x+7uo9x2Mf67edYHJW1URMvEe2M1d3asRr86OjxMrqiau9l6AYwUgX17oGXjY2wRLRMLDLsPvXUQclDk6aWbRM3In1a9Rh19lI+L0pu4LVom7ru5vpo8E+6D77Yrkg4KWryrl46xTVq8vXMbgTteDanZkT538MBzomjpkdfkceCdBw89V647uGsSyyFO+po8z1DOvaDJwjTA3TItnqywBRT42EEHhiI1s33FSqbAz7NRkFk1ITKH/48rmzRR3KTVfVeGkOlVgjt85Hiij6IYy7jIYwGAkcCqSim77xDfc3wbVlY9cCjSkmTRfo5OfIINeS6PWVmcq8T3uh5jdPWsD4bRMtPg7pLAOf64skA6OGgpUbAocu/eC+bvrGI8OHO0fmVtUwjuyCD64OCQFjYfm8tgAUHBXVlEx/t7WX8uAndnp2fR3u5+5w8P8/QtSjyIv1GkDnTyO+Hn2VjA2qVNkToJ9sruKxfQDLiLF2t0jO28W1S6gYI7HqYZ0NxVavWcg4Y46WvyPEM5V8GdbwkFd9m9suyDqODOT1oU3E1nZCubDPNaTSZUUXA3nVbTu+ZFoKw/K7jLB5UK7ob/XrUG7gythlkfmBUymS2TaB0oSHO9sebTJDcJ0+d9wRdE3/RffntyiZ9/389GP/9z/2fyb6xaVKYpXnNwhzT5jloAYkreymmT9rqO55bRMosYmzeIHsHpHtjRStsX+IjiOBzvygJSiMcrfvhvfHXNpN4namMXVJKiNkbdsQPnnkFm2XXnov+dXVwmBGP0RbfriGPWieYNaqYrs7Bzx+MiYyjH08IY04+OWobjzAjIOtkQF3HKdu5AS+WU8YMjT58DHWgiW2aOBQViURTn6zg+FT2zizmOkbq5Ys2d083Z8Qg0zfl5L8MALRN/XJlfoiyzRuZhs1bu7eXTMkEn5ynsZf15neVvltLJqOosWyZ27A6Jlul2Oi5o5+6Q0TJB0+TUNO0r445AE1rmUHbuzDc/fm/QGsYWJJ4DYK5wdOKlDSGtpTt3IdEa5rGtgTv5eIY6kWOFYFb1WgJ3eZNDV59j0u1cVPUtuubgjidjmRZtb5ivSXe1Aog5p36Xp8iT1MpDmrRe5NCVpF3AIU1coC9yhfubdfdEYVfOs1Eoyx4p7zJ2cFcWtRC9j6S6ShuFMYI7Hh81Ii/rLe38XmZnUEzLTNsZAFA/eHC/UsXMt8d45FmwF1J8nbN9N09PTxJLDVyX+9wB3EHb71O4Ey2TPPW0zGYEmiRUGQq4k/Knew8eRMdx4im8C9AU1lnAVXA3/j6v4I63oYK7hDet4K6fl1vB3QV9jCYnUAru0v1PwZ2Ph4K7fsYmBXcK7vrpadO5i4K7/LgruJtOn2zzrgruFNwlEdCduzZfrWrXUnCn4K5KT1Fwp+CuSj9p8xgFdwru2uxPQ7uWgjsFd0Prk23WpzNwZ7jtscYOFV4lmwTHdb9BdAtkfquzXSwfvoyWeUUp3qsmoZ+DLiVOg4z7QMvBtSshgZ9fmCfuczatBGnjL0lPNLQCPcFlnBYctO2lRZ+Cd2h1naX6IOFKXoFkLkUwYvYjk+eg/9pMbyjIMMkpnEuUOfNGnG58KPGDxcEZy5rn6mX7H0yss+lVsv5tjCVNY9IkW2bZvSW1suh47Ho62xkch39zXQbG5URbS2MeKK15Os6yerX1O9obWmzf/unU4hiLnWWB7ty1FfXJ6+B76voKaJHWby7bq65Ic2c+pamxiGxBYrpYWe3Ne0SSjjrvtKRlog4XpJVzxXrkeXuSY6Ktn59b7Z/U3JmxiWQdWmYzAkbnS1ncXYHNB7f6mFZClcXFhWjezR3p1Vucp3lkPDQ+JnYZz8AsaZk7j3ajk1hvjHcB2tSq71HRfWWWTplQBVY07j1TG61hvC+dgTv5eFzv06YVggF37AWV9+W+H6EhPzk+qW2UjLTeXLjN740XBdfWohEoi4Dcsdna3DITn6yChCOwO3BF6l7L7jWk38uyRxaNL9N6ji7BXcgzSR1jUabNoXyIZZ1hgL25uZk8tky1bRKqxElisiYePPlOSOyu+7HpCS2MyL32bTK7YL73orQzkMkruoqzBHeYcEJX58EdNHfWDgalSHPXVR31usOIwFCzZW6ur9HCpk36IzMDy8hJcLd/eETgzycqCol00X3NGFtgN8NZXyH31GO7i4CCu4LYKrjrruPplatFQMFdtX33ISSLUXBXrU9nHaXgrn7s2jxTwZ1fNGgzrnqt4UVAwV26TRTcDa+PNqmRgjsFd036j57bcQQU3Cm4C+1iunN3mrLNCI3fdT5ewZ2Cu+vS/xXcKbib5b7eG7gzOo+Yu2+4/C1p7qAtWSXPq7wCyibXn4Q0JrQHVfnK8rr8eeVvSssMaYXrfewl6T4ep6wPyjRoHgzdIO/J+YFp7Kq2Jugo0FkRL6XSKfPQCtVInV7p4gUHwVPL3dd4+JGex9EFoVWCaL/vYjW9kpqT3W+gdUMd645zbT2brDPqwzV4SLuP/oxiKLtEEcqlZZK2i+uqoOmEfkrLZATgXcflA2v0XU608fT9s5YEtu8skmYXqdVdgUY7z/dNau7wzef3kX5z59RGub6qdLG5Al3ylREm2zoqLVN7eV4E0DcwjjgBm+3PXnMnNaT2XbDejNBjHh0cUUqG+HtEf1X8NAWl9TztAAAgAElEQVQ3SNEOGr7ni0veL/Ls7DylWUeOiao6dVkx3bkLbqpBn9AbuONRaDPNfllCFYC7PO1bWcs00esVXVvBXVnk9fe8CBRx242upUB/qlFtPwLcMw7JGx7u7iSJJIbSHkWZNtsci9uMrqzz9vatJNmBAXdnx7l+ZEjcccqSd6geJL9lpFdd8c7dYoQJryt7e7vR/v5e5sXLvOrsfb12GH5y+C5mFgJ2c5RIIq9cIeFEsnDsdIIW7Knmrs23ctzXCs3+ysEdFh6e+/SzyQKEzLTZZmSKQJac7+7u7ZHOfj+5/crKau0FRQV3bbbi9K+l4K6gDRTcTb+Dag3SEVBwN6weoeCum/ZQcNdNXOVVFdwdJqBSmpj30wJ6l74ioOCuONIK7vrqif3cZ4rgDlYI2VYBIY+uO3ch0dJjxx4BBXfDakFQexz1dag7d8gcCbCUVYa6cyfrzHfuQI06Su3cUSY3nhGRdu142n3duct/Z7KpaJZKjO+zzZbJrRCq7tyB0pn/jW91524BqeJtHUGFxo6Ls3MI2bnD+3t4qJq7YY2w7dXG7Sa7vlGuufO0TLNz9yzt3MUWVn3t3KFPYlcbtHUU3blrrz/M+pWmAu7sIAxgV6YfKg9/mRUC9HhVNXeYqFlvLVua7NyBspLnkQOvMX6f8qfUI1qJAH34jT6jgzJ3kU8bavN2GOyvcpwbSaWU8jNr8756rewIAIRAF4liJg+kSXKLVqAPut+mGT/Uw00OZD2G2mdknUHZw86K+3bcvH27+gT+kLzMYq8zo4s88ZTOabbLNO5tJ6Urya2LwB2+0VZzZxdhoa/bIxqYK0ZvmqPpBdYq8tQE6OI0zCWq1/yc1VROFgic/H9dXFmOFhmlk08jjLXHmde9Qst3fHyUnAwtZr4VArz5VJs5jX7Z1z3RJ+N1AAuUGM1Y7mJDj4c5oS1zRn/nFjouyG7g6PC4k2pfXJDvaOwRiXdw+4mtZKyDxg5UTFfm6Hm4hyne1br6ad2566Q5p3bRqYG7tp64TNcSAtCMZwjzEAs5Vz7Pzs5OStTPfy+rc1ux0eukI2CAHfQZbReaeMwN0JS+7cfU601GgO8KmQ/x1q3kYwsgzg1nNX71I8DjDFBx56mnSFtiwUDZ7swhgbsLmuSjhPon1q/xMM8sm9AWGTcDFD94cD95MOOjueyBYsgTA2RxL8K1JfKFvVEt+dASecgur2UnUfPUSrsQYPtGNXAXUn89dvwRaPIunJ3SQseu17q1GQ28Z5dIJkYFY9xL795NxrpjYiXce/AguR1MyvN8b0PrpOAuNGLDPl7BHWsfBXfD7qxNa6fgrmkE9XwZAQV3/fQJBXftxLnJhFbBXTttoFcZRgSavAsK7tJUf6W+D6NP81qMHtxhZWOZVv3ySmr3zWzceOoHtq95+nSzLc927mBnwLe8Q5rv4GA/Oqct9Kxi6lxzxTOkDnosRcBxMOh/GnDXCy0zTSPSdpjdCGAHwqVwn6Odu61NT6HRnbv22h20SkdxhSXCze0nEtpf2c7dEWiZbueO+H3XjZbpdjjRGqCWYXfOlSJaJqholpZmqeygZfLsmNg1wJ86RdoorMwvVbZtWaBU8AvL/r7GBsXIPGzK+oMD6OZ0565Ou1ync4YK7gzVP7Y/mjdskJtJ/z6lcWx3z+8Y4v10dg1N20537ppGcFjnjx7clYUTqeGdFYLJlsR8e6Rez+zcMS5/EbUy5L5lx+rvHUWA2vsKYvu+S0nq7r6ro/frJwIYX6CldZoHBXftxX11cyPCpF4n8GExbZoh8N69F5KJppETMJ+7sJoUH200yxWNw2Qm1VtPPhmtxF63Cu7abJXZvtZQwR2POmjkx8eHie1LX4lccN8DllwI+tgj8hZ1BbpVnqRLd+6G964ouGO+YAruhtdBG9VIwV2j8OnJYRFQcBcWr5CjFdyFRMsfq+BONXf1es7sn6XgLt3GunM3W31ewZ2Cu9nq0fxpFNzNbtsO8MkU3HXXKAru6sVWwZ2Cu3o9Z/bPUnCn4G6We/nMgTto6qDJcMVo7kg7hzJHeqt1eODEqZ0lLRNpkEGlcgVpZ/m/izrCPGVh5Kmfl4gL7f6N1PXwR8FWt5aOI8A0dVcmH3c31geFT6G0zI4beTiXh9aHp55GljP3mpuexzSfw6n1CGqCuLFXd26BUpizd5nHfVJzR5Qh0kK6gmyJOAYFY7C1VZjdsRjfO+g/UW7AnmNj0/i/oWRr7rxm3VitxLGxlDBvGwHtXl2NXWmPw5jJ24T+nVfQfhdxNkEcs0yUzHnqH+514++joZOlrBDSfQM2Ced0TNw5bN/IsZopfQY9YPARMLZY8Zi8CCsE8mJ0JVt/6qjgbg5nj8Z7cn4W95uMp8Z7V3fmAR9P1/vxDkKf6j4qsD7w9gzNwr1A7/NC/N6YsYHGCDfGXtH7d0jeoc5CJ4uWybPdIit01blys1rr2VUjMHPgzqRnzrEzMKuYa9yUlV5uAn+u7O49IrHqbvLvzbXNyh+zpSVKSctE3rwB8IIeHR7N9ISiaofr+rgrDFZ1R9W2Kqfgrq1IDv460Ni5ZA5DNTEffBAzKigz20J34nzRADLu3n1JZSsEGJy7c70ma3bBXUpnTiAPRuT5xs1kK8CSe8HqAAlnLFAiYMh87nrrR4HWMqmMtbDJuH2H9Q0B7ihZBdcKAfj5voEJrZqY99bOPd/I9Gc+/6MF+PUUuEtbe8ADzyUrMSbmnyYTc5foxPhFZttx4LEWCSgB4NUp5zR/AMDruqySX+Qa/XFFvgsH7F2YWCSh94iDu67rqtcPj4CCOwV34b1mwGcouBtw48xg1RTcddOoCu7qx1XBnYK7+r1nds9UcJduWwV3s9vXzeIc/el+iaDHGOrOXY/BHuCtFNwNsFFmuEoK7rppXAV39eOq4E7BXf3eM7tnKrhTcDe7vXvyyUYP7qBrwwTLFVgZgCLpCtfcgZoCzZ3j5F8Sv/44pqDg+EviUT+Ot93xb/CzuY6Ohw/X4J554CY7b52sMPNjx9LBoEl0zHE8n6MkDKr+RH8w2jpXpqGxkwHBckkBrWIOepIeaBeyWqCzOb0pWP2OjjSo9hxZZTi4A/0aOgU3DkD35PS+I3usqVdXgjurk7N66FXSWH3pn/1zSfr7ey+8EP36r30oqfPZ2QlRC73mzuiqnM8d2sik+LbXwph2dkaalhEXjNML81Yb5OLj7H/wzdvY3KRvntXgQa/D7Qyk39xjGpu8HnHO2AhxDVtRmPDdzfteloUX9Ui+L4G0TOjvrmKtPJ5386b3Bcuikykts6w1ZvP3CXAHzR3NB11ZWSGKMv1xhdMyQbl/dP9BoivD+8T9I2XE2tLcyeti2nDZ0txBd+5ms5+7pxo9uDPeOwUZL9cKfO4A7O7dfzFpYYjFOVAsanpMko04Ny7Se4efKweVMXSpsWT+u6JENlNJmtKgEUM8nRrcZuJUCUQggp7lxBJtxi7vWhrTbqIswR2/C8DK13/Tt0Sb9DfKH37849EvvO9n/VhMyVTSCVXyNXc2GYv3b+rmabq9aiFbJQZ3XnMHE3M/od0jjTk3Jl9FAjL2XQupOczRHagMOQ/H2qQ3LrEJUYooAVmdgu/W2vpaAkgV3NWJ4myekwnumCwHwM75JSICHNxh8eBwdz9ZRJhWhKDFgyavjaLgro0oDvcaCu4U3GX2TgV33b20Cu66i23fV1Zw103EFdxVj6uCOx8rBXfV+811O1LBXbrFFdzN9hswe+COaJmpbJls5w67bVhddKuYoOvce3AvaWFM1KqmepY7d8gcxOkevNtgC5/TQcfQpSS4uySbCEdtGlL9R7lzd0mUsJZW30LaApQsRw/Gjp3u3IVEL/tYjWnzGGZdoQzcfcM3/xe5O3cn2LljdHtphQBapkvbbXZ2iEo75oLvHQCeK0aKQIwWlISWGVsjWCsEv3OHXTvs3rkCymbd3bfWdu6oMmbnrsYGRXNw52nVY+4TWvfJCJSBO+zaFdEyj67Rzh1kOFZiYF9CzZY5vjdqdOAOLyhS0Lo0s/hYQYPhCj50eVYIJlX5wx3Gm6Z0taTZcwXXrqovwDn8WIC9/NS3uI/VPAy5wPfF+SPB52T/kGgIsTYFoIBPIJo8B7jqnK+OgaOuR8oYwZ2dtPiZi9nJ66DIOGMSex77fWHBYXOdtDg5GkXoXwapsawQJ3yY9g72KvcpxIFTrCvcIjkEizpY+LDjQTqmoPIkHlohF9VjoyJwd4tS3b/nn/5ohL9RXnj+2ehXn3k6idq/+83fiPDHFdgoSM1dHriD9mvoGjy81yvMvsDs3NGipitcimDA3c2tZFzHN4t/i6BNdNYHrg9X/QZCY8c9t/AuwCu2TsEzJN9iGhovTk8TXTLa6uI831OM368JuMN1bL+IJ7Q0BnJ6b53n0nOmGwHYfMDPzfVts8gef/MWSaeamjvSsStskWT/YD8ZN5B7AIv/Vd+NLp+aS+6gv6uqwVskm6i1Va8pRM4Jrrs/OvHU6ATcxYvQF5dEXyfPS1cwL1RJR5et3PzaowR3Ka8SiGI5b7oA3GGy+vyLz6W9SthHskk4AX7Gnjyhr8x/iBNfHW5igDlKcMc7WmDygJA+KuO8u7+beNNggre9dSt30UEaBYfcd9rHYoK2s+cXccrqs7W5FS0v+slx2fH895THlogp6oG+rSU8AkXg7s7du9GP/cQ/j/A3yosvvhB95MM+oQqA3oc++ExyU+tz50zMH0cHB353RmruMJk/BbAYcAnSmQPcbW3lvud41rrPC0DJQSWPc2j4UvomGM0T6HSTx8fEdDg/s+1XVpqCO359jIF4v7WMNwKpzLHwOTa+jTYBG94jLIS4YjYG2CLJzs5OAu6HmjfhgsBXVXC3tLhAC7r+ec27TwsyrnBwh3fvwCSe8jt3+i6M6z1QcKfgLumxCu6m8PIquGs96AruWg9p7xdUcJcfcgV3+bFRcNf7qzroGyq4882j4G7QXbX1yo0S3K0sr6ZXXyru3Bla5u7DhK4FGuU87SK1UbBzV2R3MITt/LLnlOBuj3Z6sD2PgmcDxaFqcSn3s4639Ff/CzJAcX2Fu2fuvdjJV/N0IX6xqhUsPQ70JV9JrGB1QkNoGdzxuMs4H5HGFGnDUdxKZB6V2DQJ43+UtklpPPs7oE9wh50eTsvELqCjvenOXf02LwJ3T2xvR3/3e/+b6Iknts0NQLk8PDpIbvaRD30oZY3w/HOfTnR1ZkX6wFshSM2d3cnyNgpow07e+8DQgLLoRiMD7uQ3L4eWifd8Eb+5MVKMlWaH3mWpLKmTpHQaC4ZY24dTG+3csSydiPcl2VO4uJux99LT2IvaxDzv0mLyuLB2cGMe6oidijwrBPn4ZueOxsy8Yu2PaggDA9teD68eAdNHY9sPnGWzv9o5Hn7bWKOdu/i7DmYLZ32ZORyyb8cF44Sjc4OWCTnQ0OZxlkTs5ymw8+J90lFS8UgL9Gwry94mzLwLjKUgd+4wpuL9QcE3TinK1fvhEI4cHbiTQQtaxRTb8qBM7e/vd94OGBig6RnawCAfvK3MfzIZi7wPhLpHpINxBRNip+crS/RRNOlrsyGNfyLzSwR9q+okKKgeLYI7gApu5SHjzFcxrSebp13IOq9RYgXoE1xpQp0NikcLB/cJ7nh1x5JhtoUQd36JkPf8rW9/Z/TuH3pPUqePffT3oo999PeTf8MmAXYJKNCKpMFd2gpB0jItYKmm9+oqKGWJIIp15pdk93Pf+7fSN9AsiMXF6vWqLdoZGhslJHPFxsoD4SaxWl2CNip7odXcl4HZs9N8XaQc1/Bst27dYnXOp6LJ9pNJJOTvnJLdVdvrdcMiUJg51oE7Tstk/QpzwQPS2bnCv5dhtejvaMxRlhhg2z88IimAHa+wOL21sZEsUqstSH/tMoQ7KbhTcOc/9CQYdrsOZSCrqPMquAt4tRXcBQSr2qEK7qrFachHKbjzraPgTsHdkN/VIdVNwZ2CuyH1x2nWRcGdgjsFdxlvoO7c6c5d6MCsO3ehEcs/XsGdgjsXAd25a++9mvUrKbhTcDfrfbzq8ym4U3CXDe6IyX1JXkOkdqjal1LHIc1u3pmXpPu6oMylroD+51LRT+wYoodyjR348p1o7EhXaFImW8oS6FvcCgA7mtw2Aym/29JbzMH3zhUEraaOQ9Iy4feFP66E0G7B1ed6VMSG04qHbJMwrZ072298r4ee8Uachtv8RvqFMWkXa734LZ0UAu5e/drXRV/2lV+V3PkeZc+8d+/F5N/HR0jxbbMtnpOW67d/69+bv1FstkxPEZeau7RHnj2+rfe+KFSgKDpbGvQjZJN0WiIJdiQtc4Gy4rljjS3ILrMFoeHNZBiOC6yE8nzt8L7jt5TlD9MhT8aqPoV11aSsr0bLjGi45G0ATR3eLff+cf9OjFvLjLYGuxL+PFxnJNujjJaZOhcZPs03r973sqXX5tpdBv18nuk+iyjKcvFNvkd41/En63s51MBKWuYJUZahu3NlEe96zMIuo2VCX+oo6E2YW0ON1XWrl4I7BXetD2Y2cU1+Knq5ulYIOqARWejeI9AM/KQ/cR9+eDbtUvIdV9ZIiL1OaZRdgRdWXU+nwkGGJikpsBcwIklw18TOAGJrxMCVEF1kQJU7OXRa4E7qfdCfEDdXmrRHJ4Ea8EVDwF3ZY3z1X/za6HVveIM57JCSJPz0//ZT5m+USXCXtkLgOjKbjAXen91P4Jtk+TNgJ64j/j4/ZYA0YDw1CShIs+PGxJBYlbWJ/H2VklUUgruClPUnxye5ukhpZ7CxsRltbm4mtzdJpnI0lWYyXGCFwM8t0zCHxkOPrxaBkJwL8oohO8LVatP/URLc8Rpk2Rnw/iytEFRD2n/7dXlHBXcK7pL+xUFWk06n4K5B9BTcNQiePVXBXeMQTv0CCu5Elr8Afy4Fd777Krib+qvcaQUU3KUTqii467S7jeriCu4U3Cm4owjozl163NKdu/BxXHfuwmOWd4aCOwV3rm+UmU3rzl17793YrqTgTsHd2PpsX/UdPbgDh35hAVopW8C5dmn18W+kUHaaAvCzoe9yNBNYFHD+Pah24Ot3UUCZw/1QcM8iT7wu7l/lmtDCYdejncKM7MQFbxAPnD8/vy/ac3l9LWkXTJgvSN/WRoFmjvvY8GviPicnx5UpV0ixbTV6ViJnqT0t0LUCd+6MJibuV9KLBvXjOsGQGOJaj7kWkD0b2miFnt+9O9D1DEmDh7Y8PT+t3JbYsW7jfTR9FT6CcTewE4/VJOxKyyzogaALMj2X6dI1tbVve+cXR297+xcnN3vVa14T3dyy9NjdRw+jf/D3vid6RH+jhFAN26RlmoRN1O/yyurqaqJDttky8zV35/TNcn5cuJ71DXVjUaybc8KbElomaF5+XCONKNMWT3oCpimsx2Rvcx6nYQ8Za3DsGj1vnucs9NiIhytSV2XGv/hzY7RCpDvitFQ+LBtN3Jwfp4vS3Z+TvvL4+Dj3UbjmDmMgrGec9g9x62ouERrbWTo+WYSNG7xMf8rfIxkHpyl1/73IYmOoMZS0TMxhne+qXWw8THTeUnMH2QX3fLxAjoXY13ioz6v1qh6B0YM7+ahNsiWBQ180mFcPa/GRAJkugUhb12zjOm1xrmXq7rK68fsCBD9x526SiMJ8JOPkB2XXKfvdmu4uZh5mqKQPyQ8qBrfWKNj7vMHPKaVB29pOe/PRQNmKFicA3EmBuNEJkvG8K/JdKItP0e+yjba3bqlZd0lA29RANmm7UZwboAUre56/9je+Ofr6b/zmzMN2HtyPvu1bvjHC3yjTAndyx0FWli9KJubLFf25+LUmxuKSOMPHzi2G9ukJWASyyibwEpBaH0ML4OS3FuPY8akHbHfvPJlagOGxC0mokqVvwr20tBuBJrYgZTWZBXAndaAHzMs2K6EKn9OUxUd/H1cEFNwxE0sFd/ni8pBureAuJFriWAV3DYI3rFMV3AW0h4K7VLAU3PlwKLgLeI9m/FAFd+kGljt3Cu5m/AUIeLxrB+6K6C3YtcPL0XWZ/Z27NP21LJ6pXSGiEj5x+06ycwe6H2hHbZTinbtL2rlDhk9LAcUO3yoD/obCwGwFtkawcycpyk1iOLlzt51QPkED4bSwJveZpXMV3AW0JlEyeYr+gDMnDv2rf/0bI+zeZZUH9+9H7/rWb669c3d4eNAKdT1k507KCSTY2SfdOLJ4ZhVQqLkUgbayCuPMd+7AYjg89NlB7S6n/z5iPETGPVd4ZtHQ9mtr5w51Rh0dAwPv4OK8Z2tg147vqN29fTc1zvN6h+7cHR4yChzRs5FaXku7EVBwp+Cu3R41u1ebOXCHlx8fNFfA5V+IB/c5+rBNgDuWYhnaPe6ZMgdNVY7uA5PZw7292j2Da/2g9ynS/IRYAcxdcr1FWPXsB7EF3Rjx4fFRrVr4fXH3s8feL2iRdCmwIXAFYA8aPVcWFxdT7V10z1P6sENXl11ghbDENJjpZwDthvPRrebO+jIZnUdPtMxFaOzi2ELfsW8mX1YnaRYNKB6uSE+nqu2RdVyqjaiRALidpxMoxvDhSrdROzrJJnWe9rnXDdwZT7GV5STs52fnhaA/Pa553VTTdrt1+3Z0mxaIsgoWInYePCA9qe2fIbRMHG81aOzKNW0R7OKR15HJuq7Rd2lCKx5rEhFXDubM94P5KaavRd9D8r1zmjTzP5gcGmMeHzMwjrkFrsc0vnBwh28eBywS3GGMqEtNt9+LbJ32REKV5WWjrXfF2CjEXmfQ3y3T74m3F2kA+YItxko8lytFfqXGyiTWamb1JSwGQ5dnvgGIFWkOnY+lydLJwN0Zxa6tRcqm78fYzse3Fr6rKMliRfwuALhP6DHR/nE5oIWPqguPsOLIk20MNWa6czfUlpl+vWYO3MmQNvELmkOilhyQckYrlnsPvQ9ak6bExznP48d8OFCP/PwkqVvPXRiH1ybVmeq5RrtwdpRMEuwHdjupEyZj3JcIg1vVpCFYdT8iDnpWMSuCJt14NVDK79snuON2FdJyomw3oK2G1ayQ1SJ53cAd+t/K6koSnDINS8i4Vi3i5Ue16t1m1tHqjbVy903WnIM7U2dmhXBycmJYBq6UaWuL4gwgZMBQXOzuWwxYjK8f9Gt28ahs5648+vWOCMmIKGOFpCbY2cwrJ7T7yBcL+XEAjdDk5RWlwNVrz9CzmszhdnZ2UoybonuXvUeh9e7jeAV3fUR5nPdQcFdgjqrgrv9OreCu2MRcwV3/fbLuHRXcUfbhgmRICu7WcruWgjsfGgV3dUeg2ThPwV1+Oyq4m40+3sVTzDy4M/Q52hlDuWFomdidsdtgE0JtOpbTPeYWaBeH7eRw6gt27vZ3fWbCJo3TLi0TO3d5tcFSc5OadnSuaQ7bJgB3x+cnCeXP0pc85Q8PwFfLbVtW29Y8O4NG5CTzIXCdFQL6nC5bvMrndwxb3bmj5zfU2rjYp/PPB2qxK3IHDf0I/b3rYmwjiOLq2gG7zlyfiD7G28hQWnvueKCoVi1d1W8WwB3ehzyKNeLGrVOMvmnJUpVRHlM/zrNWQQ+/rN5EVZsy87jPeOVnRps3bybjyyVR5lx/PCKd1PPPfTo5DxoyPkZAv+V2siYu3tfOHb3/xvIkfvVBM8OOmiugRYO+7oqx3YkPlnGW7Wl1yL7N0jt3j+OdOzseyZ07APc+qIaG7rvkxzWz28homSb5TEyRx/i4wb7xsCbBTmfSJ4k6yvskaKiXOfY/y8QKuXnTWmhkFUgEuOVCSGbCJhTWRi/DCE6WfXQC3KF94+8g2h3t74qlKPuBBe9JHi3TWGExZhboydyeZAxtNE+sLm4FBjsDRw02C+UB2TLH8Lwj6L6DqeLMgzse6QkxLr3M6+seOFiKSvbkGHS9jQ1P27OePyMTTAdkYuyzh5pECtzjit0cEwquXYD+DvRJV3Z3H6YsCorqbWgXLYGfzmiZ4gEWoKOb8z6OsDpw6YtDs5J21aZGX8LSfq8RGIe21RVQo9rzTyx/CmkRUXZGV/WbBXAnV4Z5LDF5ODr0FGrZDzY2NqPNzc3M8JuFibZ0qiUN/O4fek/01re/0xx1ShP9Z57+QALg/vDjH49+4X0/m1zB6sg8GChMEoJFC6bfKutn/HepI5Pn8myZ0IXdo0QwTidYRr8GNdbbGaTjbO5LdgeuFD2v9PWT4C7keds8ti+7I9A1QdvMK9xGIcsKAT54Ps5pT7G2bIfajOtQrtWkfWVyobJEPZxGLp//5PgkJQEZSnx4PeBTx+0Mtrdv0SK1ncNqnxxii/VXJwV3Cu766205d1Jwl98ECu7Cu6eCu/CY5Z2h4A4aNJ/AKRUnBXftdbSAKzWZ/IfYHSm4C2iUFg9t0r4K7hTctdgVR30pBXcK7qbegRXcKbhrsxMquGsvmgruFNw56qHu3KXfK925a2+c4VdScFc9rrpzVz1W1+3IawfuwKlONHdEy+Qp3ItomUavt77ptQxCb2FT9A88/Tv0XCE0opBjofGoJn2beMeuQMnMsZwAJYknZQCtyFkQ4ELg07vU3WUvL/R7XF9SdnzR713RMq3ewNMwr2jX4DGl83YFqbcdxTEUxDR53qJzUR9QG11B2mreRtDMcC1jF+8J1xmhHlZXVa3I+lU7yx5VpFOYFi0TehSefRfp/x9f2oyHWWWBUuVzXSc/xmo6vCYLND7XfkgUyWmJsh8s0nV5mn1rH2L7trU8qT5eYvfM9fsVshD44i/50iQF+nPPPRv9ytO/nFT7jZ/zudFn0x9Xvuwrvyp69WtfZ/4JgPIHH/9Yshv3qU98IvrF//tfJ8d++lOfjJ791KeSf3MNmoydAT1MHxvSbyQt06hSeeZN9r+NxvXkNPl9HtpGprGT903RMjPijG+ZK5MaQw9mkSXT+vrZN0mOxSHP2+axNu7PvKsAACAASURBVGW975PQ+07YRuTo6vEe8PGniJKN/part6QHMhS4mOavFLj2WrhJ+14Yywn/vYT2mn97UmMdph3sXZCWIn3RMmG/dQMZ0eNySVYnVWUMeCcv42y2OB39EWO2GWNhz0HZb7k9B6cK43c+5uC3hKVAYw7+d99a+fZ6kV7pWoE72dxWfxCiuVtPUuUDKPBz7UfSG7qOvmvR93yOxLlVS9HuW9VrVDkOk0vOMbcfdu/tVuUabRzTFbgDsMO1XTmiNN5HzKC4SEPQxnO1cQ25mri1uUXPZNOtm+Qz8MirmUI+r35FWUTLnonXr+xY+XvR5HBa4C7EkgATn7X16omEeGrxMs1n0aqysVvDBD1nUUfG2SY2sZO2O3fvRj/2E//c/I3y9AfeH33nu74tOQUG5l//jdkm5vK6L774QvSRD38o+c+/+szT0Yc++Ix//5g1wETfwOSoADQX9SWZzMsAcJbYY4+SdblFrbI4y/twcCfjHOLrJzV3oe9GX8c3yaYIGh9fmAqpM/SkLgGHgruQyIUd26R9OUCTY500qUeSHm4L0he4WyKN7PKa97w83j+ILgjgVSkAhguLHhhizPCLb8UJVeTzSmuPQ5aMpUpd9JhhRUDBnYK77B6p4K7wTVVwlx8eBXc2Ngru8sX+Cu7SWf4U3NWfGDWZ/Cu4qx/3vs5s0r4K7uBT6bLdUhLAY5/kR8FdXz14OvdRcKfgTsFdjXdPwZ2CO0RAd+68tYzsEbpzl/+O6M5djUE355Qmk38Fd+21Q1dXatK+Cu4U3HXVL4d+3WsN7rCyzrVB5Zo7b4UAPQn3X8O1uFaKb4836QSgEqBejjeOLfciY+Am95o4tyfNXUid8fxcY2f9n3oyzGIVbQ/cOQ8rq4NBhraUF5+xr/DqMXjaTON5g9ooU+Nln8H4CS6vJv0ZeoA2NHiclmnS7B8fBqapr6rQS0eC+2jKGGE3hrflDWgRmZ4yJKYhxxr/uStPqYY+i2vfJuoJv66qCkVkiGSh4lo+6Fec3gP3kJqOG8Y3lAlzmcdU2fNZXaR9z5cp1ffbyNoAf6O8+MIL0Yc/9CvJJV716tdEr3rNa5N/f+Vf+Jroda9/Q+Yt/v2/+83oR/7H/yH57dHDnejhzk7y77OTY9JvxrGkqkPvloiLjeiwrObZv9v33NP4jddiSnNn3hZ7Mv0FHVKeB6fRITPNDuidTmdjXDIZbUsmRbFWCL4ex/TeeM3SVfy/az5kvdAEn4VvuNMRoo/AhsXFCh6Aq6TRdMXsVjCPPBzn9KbG2oN2NoIo43ET3QC9me7r/DWhjT4+Pk7ui4UO/HElRYGjTgSpQdB9g6M03hNmDdxBX7e0YmUKKI/NeO010fNMJ2hkDEfk+5sjY1hcgsell6XA0xHejijS5w7jAv/WyneBa+5QH+j1nKba6G2Zrn68ven61PxagzvZzMU+d2SOynzuJvV6xJtmHmpcI9KkO+HjY+9rvyKj9NdrEoCBntsWuDNJUWiy4doXH3l49yWTkYWlaJn+jLlwTycsgmxv3UqMsWUSjrrPKcFdiK6viedUkV7PtCX5Erois8DVfday80L95g4oaUbViSX3X5M+dzfIrxKTDVfM4hkDs8dnNPEISKLCnxMT56raWql/5j53MnZSr2e/AX7idUHAx/nL4VyzmFQ3cxS7OSZhDwlI5pUQba3MaMqBA64/B+AXg5AycFfo61fW8Qbw+4SXLXT1zORaTmjTfoKPo9293crJLOCBB5COgsWHlz75VJIwSOq5CsEdFqNU31TpXTDzIfK5TZLioX1XvG9jkW5uKJq7BRojVze9V6/0muRj3RUBssPdfQJZ2Qmxit59Ce5kgIvAXZaGlHvZDuBV1yqUREDBHQuQgjt9X6pGQMFd1UhFxuDcJcNQcOeBQ/UIhh2p4C6d3ErBnYI79wYpuAsbS4Zw9Kzt3Cm4G0Kvmv06KLgLAHfrtGKEyalbwU1n2uxu526dvPjcfZH6n9M9Zr+LDvMJFdxVbxcJ7p7Y2k52dEBdRJ9uWqa1c3eTMoFymhd/DqzW77GdOxznsoY2fd6i8yW4Q1a/jY3NzFOwcwqWAacFFV07tXNHlGGc63b9hrpz9w9+4B9Fb3nbOzIf65lf/qXo737Htye/mQU+Rts7B12OWdwU0SND2rR05w5ZgIluWKWU79x5OixSxfOkCpKWOQs7d5weKbWNCu6q9KhhHWMyYsfvAmivmA/V3blbpayUbi5ldrEZdVa++11ly+wL3CXUyhxKZ9nOnbFRiHcMQfU8ZslYhtVDtDZZEVBwx6JiPcay9VuG7lEI7kDnsRoQFEziuAavqPthcpunozOca6IzJRMokyq/+9V/fV2KI9AVuJOaO6MIYTolo79r2Uag67a2Hwir20HVDXc/fgboBfgiSd26OK2LvUeY3QKvX+j9rc9iNmUGYwnXQ0APlKebCr1v0fFWv+XrhHFpmWk89oh6xtPsb209kfg9QV8GupkraCsOvqFfWpyPqZf09YCvEtcDc10RrsEpjEenzEcJP1J8KjohkG5qrVA3yONh/Sw9PfRlL3852T14GhQ/FpYDf/gHH0/+0wVSibPFhgk6lNFoNS/oC4vMq01eEV5+VT050T6JPxVdKOVXZRvBPx8maaQjdEWCuyLfxuZP3c8V7DfcPrT0E5QTeNmfDbB3FFbyS8MEN6/gHXNDsWEkPLHNgEM6M6HSMqu3PTTCS0xHVuRjKDWVx0fH5Anp+zeu5ajhGBft+GS/RRibN2jhyxXpidcWuIMWeXXD22hhQfPs3Osv5TtXRMsE/ZeP5UXvPnTU/NuEc50vI55ZUlixaQCtKIrRrQuPPA7uzoyfoPe2rd66emRfEVBwVzHSXvuWt3OXBndNNCK8Ss5I1oE7fKx4IpeK1dfDWo5AV+CuzCh47oIm7SMDd+n+nNaXYKECurU2Syi4a3LvIr2eeVeZHqTJfZqcK3d2uFcdJqV37tytrBWCvsWBDql/kTojWWcJOuZIo1e1rK1V97M0YJYttBXdQ2qYz2iCc0Z6uK5LWd9IedWVVMZoDHmyDm5GLM41K/AF4K7r5+77+jLOckJb1J+xsIFsmlUK3qOtm1sK7qoEq+QYqU3mbAEz5qwJzR3TVKK9DnJ8YS1g8fpijBG3bt3KrU174I52G7c2aQHNjnfSa1JWoAjcSQ/TkHd/YqFD+PpJn7sDFqssDSn3G26h2fUSLUdAwV3FgCq4qxioa3KYgrt6DS0/sAru6sUx5CwFd/nRUnCXzpYZ0q/GcKyCuzG0UrqOCu588iiZUEXB3fj687RqrOCuIPJYjXOUI9BoeNZK0H6wmuyKoRIs+ayGKyuryWo4eB7YEncFW+WcRoP/zf/Nq4TJ8AmtxLqdO6R9rroq3Wen4rGS9zWp2XOoa33Wsc17gXLrKXbpNOYTac3FjU36bU61ZFYONlY+jb2s8yzs3J2cHif9GVoK0G7aLm3YK1SpE2htoNlkFdCBpvGuSno5xh6eKv/g4CChWiKFPOjmoA6hIPW1S6WNf0s62RJlbnXUdZyDtPOOEhu8cxff09y4hJ8ZvnNXjbpusrWeec3n2fEJ7dx5When+IHOJccxtxpvgyfsDESn4NeCpQK+Ga7INlsgq508iYDsa6aNmJ3BBC2TnSB37kDPnWV6laGxLXm5hKRlml2hWM810Z9plxPaSP7dLqJg685dlRGz/JhQcLdKcy1XDg8PSQfsqbRoezf3MnMp9u0BLXOdMpHnlYuzi1bmLXi3F9e9/Q/YWNi9c0XOj/jcESSdc2aFgPF6gVFWJa36hCQ8/NtnKKkxzRj9nGeOxW/QSbsCSr7TXstMm2U7d7NA5y7vmeM6QsFdQXvxCUXZzl1Rs3tgaF8kcMIfPLifnGIGs4o0oqF2Lxur7AQAs2jfAD+oVAbI7TssvX+xFyHf9cOg+PDh/eQjUka7HTu4k/1XJv9oo3/LdOhtXHNM1yhb3U2nf7+M7t2n/hcnDZFUpSLaj6RImfecFqLyikzRnzqOvkRFesQwcFd9PLWLdOtJVU5JswOA5wqnR5ZZP1ycX5Innk2NL0tWGnbQvlwpS4pS1P+K9Fx9vG9jejdCgQOfDKP/5iUzU1pme70gpI0A3PiietE7GPouhNiRFD29AUpnfoEe4O327Tt+zDFek9lUcDl3lJTOE6KRn+bQyEMprNvbt6KV2Ds0ywqBj+3yu9DETqi9nqNX4hFQcFfQHxTcVX9ZFNwpuKveW/yRCu7qRK34HAV3Cu7ymCBdvG/t9+DurhgCHGSmTQV33bULv3JIGym4U3DXT68c310U3Cm4a6XXKrhTcFenI3Ux2dSdu4UIO06uyFVW3bnzPVV37uq8teM9JwQ4KLibTjuHtJGCOwV30+mlw7+rgjvWRkabwrRxNmuRpRpie9xaIbgUyyEp3K+IB+1Tk4MTzbn8NnV3NU+jaXUp0E6K6miphpZ2ii19pM11OkHLKbfph2elQKfiuO147o2Nm7VpmQcHewktE/2Pa3Em4kVxnOPZMkceV6N5ajmlMsAdfO/6sB0YYn8u27kznoCx1sKkBz8hL7e4T5nJ0rLXgk3QMum9dpo84zlFY6SLcxktE2NC3o5SPMjmhrM7WibpUFhG0ysap/HHFaNFdFYCxoUE/8/+ilTj+L/kWGP8kGOU4Gin/Fr83cXvTINYSGEVUZK0zKI4X9L7Nssau7L3Eboj/h0rSrMvwd1j6hdcz4Rxy2nwjK6KdJKus9ygf0Mf70oRdRY6J+jEHsfvIJJocN1r2TON/XeMI/Ns/lPkRWgX7rzOF7FLU6EL3kERqLJvD/dOnYgx3uOKPi4YIU4vzpIxFrpP2M8kfUPQMjFGun5lNdGUaTO+l5W4eE3hKUl8+FyS11OOz7I/X5DVB7e5WaZx/0Y8/4X2WlohcFqmzBOhtMzhvYUK7libGLE1076laZmYwHuvErniW9S0+CDcu/dC8mEo01UNr5vEfkEsgcysP29IGxgwQbpJNwCX2Rm0lWkT88o5EkFr0QjwCJSBO35smZ1B0aS07FzZKk0mAJ2BOyT04Qk3CtKDlz2vTLPPn19qWOREKySluYyr6l/qv/9cVyXbtyx1PNLuu4Ups6DJEp8hycfdO0+yCXy+XUWWvgnXui6lSUZTAJuHD3eSUMldv85iSN/8q4XqVi5yfObJ+GxSFK+5A3hzi2BWc+fnnVZz5/sGnr9Qc4dkWTEwLOvPIVYIbY7tnbXRNb+wgjsFd5VeATMwKLjLjJWCu0pdSA/qKQIK7gI0dwrueuqVw7yNgrvpt4uCOwV30++Fs1cDBXcK7ir1agV3+WFScFepC+lBPUVAwZ2Cu0L6a0/9cAy3UXA3/VZScKfgbvq9cPZqcK3BnRTjgpIJaqYrq6vrMY+ea+7sVjw+nnlc56xuwv1xoNHifPwxdKsy/zVJNYTdg9PxjPF5Q9qkDNzBE49rOY03Gnko2UK+NbQrWlsfxnQ7RovXkgYPdeLeaOfkBTZrXoUhbTymY8vAHahkzpuvTDc3QfljmjujQxaauyI62QVRiOHxVKfYd6QaDUrS6yfuxzSr1mfR+2RJvY+hKsXvalms5Ln8vhgLuYZFek6F2BnI5zmDzx39caVJnOu0zZjPaQvcQYF5ATuRuG+hDz6xtZ2Epoh2e91pmXivFxa8DzDeI9ArXeEJoOQ7aI5h7zO0/dCLdVGumCeckdZW1Nzh247+4L7xGAO5dlN61XFaZuJDGo99kpaJ6zgbGzwzvPuMtx3CAl9OaIhjXbCkgheNdVJzJ/1Pca1FyhXhSorSSffDmOTmf120hV6zPALXGtzZ3SjvcVSuuQN/OdurrijURgRsuM/VJiflzdb/ERhUINTPK1aY7l/2/ms4vTuWgTv0Mx6b3d2HZvBDabVvINkKSwbRJCLSdwueXLob0CSi/Z1bBu64yXWZV12RnktmJe0i82mdqJWBOz75K53wkPbJ61/moo01r2GRCWTKwN3B0UEy4ZH6lybgDue68aROvK7zOe2Bu3QUkYxjc3Mz+Y8K7qr3spBsmfL9PTs9o3fhrPrNAo68AgDNyZdUNv/bILN0nxQFujmWFMVo7vziTFpzR2OOOddtKqQ1d/K+0Hpi4ciAO/jrHYoxh+ZprkyAOzbWyXPlfaS+WOr1DtlYFxBiPbTFCCi4U3BXqTspuMsPk4K7Sl1ID+opAgruimmZCu566ogjuI2Cu+E1koI7nlBFwd3weug4anTNwR3sDNhKhqBlcisEUAvX2KotttIfPLhfqZXluZVOGthBZlX+2K82TawYEYV16HYOXYW0CbhrtW+0uXNHaZGxe+eK7tx11Xvavy7otCsr3ucOK9mctsd37kBzwhiIv1HOsUNPlGpXimmZc4b54M6dyZ27FA2VGBg0zjnLFxmrop07pGwHLdNRldqkZerOXf13qCtwB3rc5obfuSt6BxPKLlkgoIAGXMSSqf+04zhz1sCd/cbTGBtbRcF+gM+lJmmZYAucm8ay5/oxR9IyJ+ZhYufOUMHjflXKUmBjHc7h45W8j2FHMOqs3Lmz1h71KPjj6KXDr+W1AneYhIM+6LbHMQDj365IzZ0Fd5ZqiM4OOp33HwFPvCoNcS55sYffJbJriA9QkV4GtIHaurEpBQUTYKeFs958XicYUiUJ7gzbnekAoD/EH1fgY+cGevA8/P8OuWvGsQ3AHeKwvOJ1Dngm3p4K7hq2TY+nQ0/HqUmra6spXRn6OYCJKSRPOTmjNNyxTMUAFka/lnRBOw54TUuq7xrJ5/Q/6LbvFlHgff2NpQ1NiFxZoknLCrNGsJMWG6s5mmhxjy0ZK3kub/IE3CUTLbov+/agDc44NYvGC3ffsq4j26TseP3dR6ArcIf25jR29Jv1dS8B4e+g1GPahVQvgTgjMHCdvAmHCu4sJTPmZdJfKQ2eeKn43AKDq83PYMcdC+6EnQF7943fXKybs+dy/Ro8g/0YiwVY7ovLNyTgl3hAdh1uTIb+jtO3i8Y61JTfB/MDvmAoF7JMf76046TT67n5IrSo3OpBx59+InDtwB3nL5dr7jy4mwWvun661HjuYr2zGD/9wPPTQ55iEtylzz4k3vsRcdBd6Uyf2ADcSSqffH4FdyE9YrrHyh20DdpB4PqfED+jWd8VKsvUx2PVp89dE0/A6fa+cd29K3CHhFknzLts6+ZWtHXTG1frO5jfTwYL7niVS3zu0nMLAllmbhHvzAqvOrlzxz09cY49NztJTFGeCLP7BnDndoRhgM5AZZFuTrZO6a5fgV5vKIyOcY1MzWur4K5Qc6fgrnkXG+4VFNz5tlFwN9x+GlozBXfVI6bgrnqsZvFIBXfDa1UFdz45nYK74fXPsdRo5sEdaEOOXgaqDs9aZCg5BZo7/O7oPVj92Nt7lKyCwMoANM6hF56CP7SuPF1v6LlDPB5phTldS9Iyi1bIyp7Hxjk7ldYZUa44LQH9phMrjAY7d3hPFpbsLmZWuTi7UCuEsk4wkN/x3p6CahmXFaIdrqz6seqSLAkcVcdkRWOZzUwGSEHL5FQejIOzlOLa0JEZDbNISzJH48eGsX7wdjiplXChQ+HdwVLvDugdsivwciXc0F8ZNQvtN2vj7xBeD8wFOJV4AtxBV0/tbNqIvvGcOovz+Lmg2uVlEJbU6JubNyP8cWUMO3cyVqn2o27s7FTablfIZRYXvN6bWyHYDL1e5yvfI4xt/L3pbLxqcecOFHpOu01RKzE+s10/GetsKVHMRqKx5mB/j8Z6O+YYvR4b29G/XWZN/I6d5iR29Ao4S4Ws8arMRkF+U7hFTmdt0nZHHPn1Zh7c8S1uQ6thaWUnaZnwufOTICRMcVqpVlPW99Rp/POG5+81k76aNMWeHi/4NpbC4HVlcvJV93nNxO1wP3fSa1Yi+1gIaADuyqgTfBIUHHg9YaoRkNTK7e1biX4iy2MLCVdcKbJCmOpDdXRzuWvA6ZFl1g/y3CxwlyRUITo43qkkzmpn0FGLpi/bZFdolxZ3d/d2kwuuBCzSwUuRA8UxgLuQ/txl4zXZXe1MTtAiuJOxm6RlIhFTtpZ5kpbp2WZ+1y+bDorFiVOjBbTFbII4SSFANCWPchsj0rqlzAohZMGwy75zna+t4C5Fy1Rw514GBXfVhwUFd9VjpUf2HwEFd9VjruCueqzGeKSCu+qtpuCuIFYK7lIL5WNYrKje82fjSAV3Cu4ye7KCu+ovuIK76rHSI/uPgIK76jFXcFc9VmM8UsFd9VZTcKfgTnfuqr8vQzty5sEdUsW6tLLltMw0fQ6UJMdBlum1jUYpzrSIRsVxXWgkcF/cp67NAHRmeQW6L67JAwXVPQNo2jwV7tA6bp36dEnLhC4pT4sE7WZnHoCxhgfxmDONlp1VqyxeaOuz87Pcw5ZS9g1lVyv+vQutBrzW6r4jzZ5m+GeDcgvvLFd4qm0wcXzabeuxJTV3XAvGPfKQpvvi/ALGH8MPQsUaQoMyz8Z1aGHcOGiy4tJ7QB3NXA3/nWtl5LmpW9K7iffLjRH4fvAU5peijSpWVw8LjEAQuKO+wNO/H1DWY2Q+dgXjelUbmzHQMjGG8r5f5NsIyp/xUIv1XPh3nv4wsImM1uuG0bDbYjR31BbmG0fzmQnNHaM3ox5O14rjzfvW1vDE5lJXZuDMn1sVZct8LKxqZHykBRf6XD4tM802k3q2+Xnog209rUee9yo+JYsFntE1HtZsnKkvIM4JuIP+dNlbxsg436D7UEYDc24VHTf3XcXYNwQLndB+OvTjZx7c8QYIBXf8JZM7WVavxzQTBAT5JKithm+mm0un4JV1smLc2dEYlsW8K3BXdt/OfqeP1hwJyMdU8B7BH6xtQLA4X32iNaZ4dVFXriPD5PTOnbvJIk9WQpWUAbrxfbNA0SUJmaUEK13EW685nAiEgDssfGJx2BWjP2VJb0KeagzgrixzLH/eLK0uT5oREht5bEgbyYQq+5T6/+BgP7lkm1rxqwUCnBXTFxSBu7LYpOed9edw6L93776Eje0C3FEClbz+PDFXJsC9yhJPyTirjrusVfv/XcFdRSsEBXf9d86276jgru2Ihl9PwV14zNo+Q8Fd2xHV640lAiHAQcFdSQIys6PkMjGS8TpLxNSkP4S0kYK7/AV6BXdNeuH4z1Vwp+Au6cVjzw5a9joquCuLUPe/K7jrPsZld1BwVxYh/X1WIxACHBTcKbhL7Vbqzl0SDt25G/4IqeAuANxxTjn+t7NJQDNbPz3rfxRasPoEb5esgsnw48eka6nBGze8eFpdcxx08K/xcXNF0jL3yRMFniu2NNP6hcagj+MtT9ynFN7Y2EziPsoEMh3SMtEn5/Exi8v52XltDSY0dm6FF3TMLrScUnPH/XtC+xbXp4WeW3Q86lhVo1N238UlRkOlfoD3No8eCT0E/rhyZXSZbEBhYgtDyyyyQgAtM9bvYUyCjkOLRmAsEQgBdxhDuOYOqeOPSZdepwyRlmk0pDQfcFopuQtWpLmDRgqaO79zBw+1/NhAbwqtWVaB5tdoWeMivSYRO9DuzaxEaO4uaSw6Ie2YH9zoC8OGtgX6htWdl8m6htAy8awuNogzaJpVNeHcP1Gei5wI3HcUCxBcMy2/Afye+N88xwK8d7n/Lr4hPMfEhG0Y0zYeHx5F+OOK84bEv5HnAd6q7t6QYRyzvmE8PemPK6lMm/RdKspfINsEtGn3THh20ExVJmCjpOCuIriTnQrADjtdrjTxMiveUSrmXBd9aKzPifdIKfP1Ozryepo6H7Chn4OBjA+Mt2/fMYMQioK7dOth0Fxa9h/cJn5BGNz7FExjsrJIyQ6qfkz5k3e1s4h7IFFAE9DJ6wlTcpekB3U+og9t3kcNSRIWFj1QNxOCeCFKfe6GPmpp/dqMQBC4g66eknnwSSifpIbUa6jgbh2m7fHiTgi4K0uaIWPD2QLytzKt3xqBCjfWGS3Yuq8zgNDDhzvpeRhbwA5po7JjQ8Dd8fFhok2W9Miy+3AGVRm1Ul6rSK+HBED43RUJ7pBsxW1gTOanEOceHUdnx94jb1pskLQnILyZ8/2Gy+I+a78ruFNw5z9eCu7GterT4c6dgrsaW+UlXwcFd7P2+dTnGVsEFNz5FsMEXsFd9R6s4I4BQwV31TvOlI68VuAOlKh1tupjVzL8ypylKXra4urqem4Ke6x68J07nMspjyHtWbRzBwrb4WG91Qh7rhc9X/edO+zacRqC3Lk7PKTUzoy2GdKGUzkW4I5oGq2lemYPgV07nilOd+6at3Db4I7TUY7pY5trxbGYptiaVOM0FqKYMYLRqwyFhlHPTIZARqE5ZrTM5hHRK2gE+o2ABHeG8kfzABQDduib794NuZOFXTtuExJS8yHu3GH3Hjs5dXfurBWClTnILLsyNkE7dzQHAyXUFW6FYOvsKY4Yn/jOHc6rOw8ra88wcAcWlKWsu923qpT8nZ0HieRHnos4Y1cwr0gbhaMjyHJsG2G+u8p2ouV8yDK3bJ2z5sqpc2nXLm/nDnXG3Mo9L2j8lWmZYKGwflXWJvZ5rU2G9Rv2z1t27qz/PvPgDrQ78K7t4G3BnfN+ywZ33hpgb2+XadDSXQHX4jo5/LsqDQydH4O9K/BKOj/P1q5I3VxYh0zrm2YB3JkdJZaemscDgxgGkbxJLv4794tBX+BtyIGd1VR62kFY3Hs82mwwxbtMBux5TWFRLdBXQe3L67PW19HnfQ4Bd9DYcS+7aXDged0xISiiQ+Ljw2mjXdXXaFsqptIu60GG6hprWKC5uL19O1fPh7EFx2cVa2eQP0kzEwAG7uw71P6uZtnz6u8agTYiIMc1TFjd2GAmtAzsAPStxrR93Bv/5n6lWAzMe69kXbGAy/V73EO3jOKI94/LCZrEAYvQiWec2bljYBZeZmzyb4ASW+zm970qWRSSdeS6KvnbJB10icCdv/gVJQAAIABJREFUn4dhroS5mvnS0X13dx8leQSMX2T8m53jpb9bTWIlzw0Bd3YuYcdJDJfWD7PauMn9E+W5mPvcvLmVVA06Od43LKCyHxnzjV/x33gcizmtKwBGfHPD0jLtd8LOlTeTufIZgej9h4+Sc413b+w9iP9ovp9uGmLsjqABt4cvkT58Y/Omr7NYMDR9I9Zxy8VGU5eCVBbYgFmkxUtTB9KSc0/AC7KJ4nkx2uwLY7jWzIM7zskt97nLTysrG9PwxKlj1SmTHnlpYSu/ptTN1bmfO2cWwF2bGS+5F42Mq1mJpJWsURUa3ELA3dp6gMibVuqqmtRioO7CqLxuWwDc8QmAvE7fmsC6z8HPg/kskgmgYLHopU8+lRLL82Pl7lt6fCGdAq3u8pTm0sS8rYllG8+t19AItBkB7oMm9Vzme8mSSJgEIwzsIGMgEoVUKfK7xZNX9AnumjzvxLghrBB4IiYZkzBwl7FzF+/OYEHr3v370WMwVqhIvV6Vtqh7TAi4k3M4zqAqu79ZcHBgNk6K58ZnbFZgV8wVqZvj1wZA40lRZJ6ITQJcHChKcJc6lxbNd158Mbm83AGXfeOQfVOwoHDr1i1WZ5FQhRJ4ce/UA9avzHood1cXwSvS3FnT9pHN4co6R8DvCu5SmjsFd1Un8AF9rNVDFdwVhFPBXWZwFNylP6YK7lodkvRiI45AE7Cj4E4sChX43Cm487Eqe10U3LFYKbgr6y65v88cuLOWBJ77xDm5fiXD/i6zB+HcebbVDGsAu50+WXAcViTyiqwHPw6/Yas6vfrC0vmyg6VurnZLm+ellciCBDJnIt29S4vb5J5tnyvBHU85DBpAUUp4a4XgqRFoA5dGGF0G/cH1nVHu3FEA5i459YP+dw4TBM+JdPquoE9yypFstxBa5hB37ngKaPls6Od9ZvNs4504Oz+lnTtLwUXbbT+xndAyJVVJ7txhTHErwZMpzWnHmmgyroBek0cZb+M59BoagWlGoC9wh7F1IaaPmedl47KlRpNWiBmCF+2e8/e3LHaY8zgZCo6deF5ky6TU9Sig2XFa5q3bt6PtW7czb3FJzJZPffITyY6LtFCRJzUBd6iX+y4jVnt7e4m8AvrhonlYWXxCfr+CnUwytaxOsUedTwj4VqWz43ncPFSeu0iWEdhxcwXzn7x5GuY082QhkVgS0FwWc1pXYAWFP64U7dydEnPnEcsODyYM6pJVUGe7o207+QLZfCHDqSvGCoGomcl9xc4dNN+JjQT1zaJvt9TcHRwAGDIdKFFNfazSspyQth/jsTMH7uzk34OuNC0T29QQEFsSrwR34CPzzs9XUEIbt5jyh+1i3+ns1no2uLO0zOqrPkX1LAN36TS6SCvbzn1DY1d0vAR3RQOSvI6Z5LI4F6UrHiW4kw9Mk/85Bmb5z25C4QZRSZ2QlxozuGuz/w3xWmhDJCxwbQmd0N07T/qPqdQ4FNBgjGC/YAV+iM+vddII1I1AX+AOk12+UIz30+n5urQjaZId9E1ve3v0pre/PTO0hzQ3+Bfv/WcR/kYpS6gCymYeK6iM/rqzs5MkQpMZPuu2e+PzCDldLdTzNW5yb1ANkdTKFUmt5NcG6Lt374UE/EkpUchc6oIW/o/3bVuXFePNxyQfsm8U+dzJawMYrq/ny58maZkc3KVpmUXz7LJnGuPvCu7YTpaCO2QeioXLNGFUcDdyvraCuzGOycF1VnAXHDI9QSNgIqDgLt/nTsFdwUui4C43OAruhjG4KrhTcJf0RN25e0lCAdCdu/QApTt3wxiws2qh4G64baM1G3YEFNwpuKvVQxXcKbir1XH6O0nBHQN3SG2MrEauIO2s12TNGU1SVbsDm5I3uyFlFp/h0DJ9libUnOvTwPOvmmwFz85jFXKujJjUgiGmvA0sLdNmDbTZUDeT3+25XNuYpmWCJuP46jZt8Cq7NmwkqqUu7u91DbyT2LkzbRLrKwwvnlIjJ7x44fmI2ECD6Yqh/LFwFGXDRHuPTcMWGNlah0M7wPUD6Ldt+CqibUxK9lizM49MviyF+zy9Bzfo3q5w/UuSqS/u69BLcr0PstINKfNprcDrSRqBnAj0Be7wnXHZbVGV7e1b0UosH2mTlonkUXj/XTEZPqVnXPy7+V4yzR3q8ZhZ6bzmda+PXv361yfXess73hk99bKXm3/vPnoY/Xff893Ro4cPk2/vDWjSckqI5g52B/zbyzOLos5LpPWqOg/rrOMHgLs250PQ2Nnvti2wcirSvp2eHiexxLHcq07OpSABSlxu6H9ckpVA8v2n78MV+3dZXN08A8fh+XnfkBrwVN/AnJlNnBeRJ6KQlsnZZk7ClK25s7Icb2/V1ve3LBbT+l3BHQN3UpPFG8XbKFQzquJaMNm4YwB3Mo1uyE6WjFXIuTJWZbYRk+AOK5HZmsqi9jUaNGYW38TqYlov88R9BbiDr11R0hR+PjLBHRzsJ/+JT4IcmKDhfjCPOoaKTGoc8nUoTZ4Hk0hYJbiyRb5IWzefSP6dCe4qJnNoUi89VyMwtAj0Be7kc29ubhqQgtImuJPWANK+AdYO7hsgrR/g68oNwaVe793v+cfRW975xabO9ykt/l/8sj8f3XvxBfPvMs12CLgr+vYMpv8EgjtrK2Dnjk3mQ/L5AVbyrGqMPpESmfj5EBLqrSWXkDYKnLmFxYj7zz2X1usxW5CidijT80+AO6HHnGOLBDJPhLxvmm0mwV2x5o7PHQfTr1qsiII7BXdJd5pMPuMHhpABScFdi29ok0spuGsSvdbPVXDXekj1ghqBRhFQcOdBh4K7gK6k4C43WAruAvpRh4cquFNwp+AuXj3VnTs/0ujOXfujroK79mOqV9QINImAgjsFd7X6j4I7BXe1Ok5/J80cuIOmxenkEEa+GwW/l8ltap9mFRotfi5vBsNHf3zhOcklbVS05RtCy4TQ6fwcmrLmFDjp41dkGyFjhd047gEI7yuuwYM+0emJZKzKzuWhxLGol/e1eZzycZH6RFDQnG7J7xiG0zIRXzyPSycvY9XfK9ninYRObpXiusC0V/xOaE9oTl2R/jloe8QEBXTMJloxyDoSbn/FxzWePT1lnq5TPzxGWR0RN+51ZHS53jipYiTKD8M9uL7nhmk7r7kDHQzaHNOWdOzRyWHisYXzOM1HehIhpTv6hhaNwCxEwIxrMV1ujsa3dVrsdd+eiRT9sFli+jX+/pr3iFLUV/UyGyIt8zNf/eroz/2nX5406zO/9G+jZ97//uTfnJb54N696K9+9VcaeibKy17xiuhtX/Knc7vEhz/4wejF55/P/N3QyE+YFRTFkn8fFhbmE2rhNPuc8blzRWjDZL3amg+VPW+xz52ds3GPQD52o47448rJ0THp7Gz+AjSA0V/G007MB/n8r7hebi5lj4KfLmiprkhaJnTeVy6/AXIqMD9BaVcm73tCnngXsRbQZOkk2qmnv0rLsbTm7ugIsgibVwDvLepV9f0ta5ch/D5z4E4GNU01RMINyUH24A688TxDTO83Z8WaZaU9cFd2p/q/F3sCylgtpgzQpX6N+/rJWMkXNETbaIFwNU/AZuCufhzHcuYqDeQLbJLP6y0pOSb5BxPmt/WM+Fbg+xG6VIE8MPSN77zUrR8qhsEUIctT5UqvKyRUqP7BrP/oZ7Q4dO4+2nSZrc2tlN4H4M591PDxh3F53ocYHnhVEyvVr7GeqRHoPwLSQ82Au1WvUSpKToLFrl3yya266DVEcPemt74t+t53f38S+Pf+8D+J3vvD/zT5dwrc3b8X/Y2v+QvRfQJ5KK974xujr/q6r8tttJ//mZ+J/vBjH838vYwO2n9PyL7jFT5A1VIuxJsKNrFNk/lQm89e5pG3Q0D95PjY3FK+C03qgfcIev+8b4q89hyLcxm4e0DG6gB4KJiz3L3LM54Xzx35HN3oXinHgIK7Ji3d87kK7vIDruCu58445dspuCtvAAV3Cu7Ke4keMYsRUHCn4K6oXyu4q/fWK7irF7emZ838zh1SvyIFbLIaQdmDHL1MZuIp2rnDihzXZJUFvmjnDhS4Y6Jw+JWME7Ml3Hexz7uc3NZmHrKrTYiRpbDapSqsoPA0ukjHy+vMd+5krGycxbZ8zvPivriWayMbK925a6NvrBIdD2nxXeHppEF3fRintTbtL9L2t3F/XMOAJ2L1hdIy+9q5Qx3Pa9TPji92dzFvcdfYS9AfV/raucOuHXbvXNGdu7Z6s15nliJgaF2r6+n5QcHO3erqarQYW+0MZueOaHj8Oy2zZcIixdXZgln/vH/yzW+Jvvvvvztp0p/8sR+JfuJHfyT59/f94D+K3vz2d5h/Y8fkW/7y10YPaAcP5bVveEP0lX/pL+V2h3/1L98X/YePfzzzd+zc3Y+vgwNQZ2TqHFoZP7i7SM2lNjdvRvjjykPahXU7d6DtYz7YhuVENXAXfzVBy1zwcxQ575R9Ymfngdi5ezKRIIBhkp47pmmZmINjfmnmJSZb+kHlnfeh9c2s+sw8uLMgwXYcqSNbXMRAyGmZxKmPvWdksLC1bhu/GqEMncpq5SaL1NxZf5Fq123SqUABW2Xb40tLK+Tt5gdRxAIxQUH63PX1TRMzFIC5PaKduIIXH39cAThwnnEyVjLOxd4sj+llPUniUaZPxPM4apvSMot7xxm1kePcY/DepvT4XkcXRZcMlZwSH90N9KF9DlT9otdkgfphVXqLu7fVkeVrvUDTj7tqaHWp/yyS/5/7oMAzrhr1enKMoBiSfiCv3CBoOzfn33Oj2ckzwwx+Cn8CYs/sqoymyD9fFN1c9wteNrMZaJn2mY32ktreFUMlZTRNpWU2aBg9dfARcOMhKmomlswv0jBdpGccxjLzvSStOP3m3mf7HvlFSfngXdEy5ZgigRJopskCLr7xbAJ/kyxTXvmZn5VU9cUXXkjp5F7y1Mui9Q37zYcH2qc/+YmEoo3Y3Nzezm3ft7zjHdFLX2498mT5IwJ9/+p970v+c1fjYtPONwZwN8d0cvJ5Mda7cR6/XdD39DH7XqG/Oy02fufvQkjs0H6gYbp3Ad9taLddsfXw38FV8rGbjzdg3DHusyjnnbIeps4uFwBdEguoTvQBPSH6tCvS+oFr7jCvx/zexQc6Pkf3DHn2IR078+COB3ty8o8dperg7uDAT4LKGjFEc1d2rbZ+n9ypTIPZIisEdHSs1rmCFR/+4nBfP8tf9i9KyA6p5KeXgbti2m2xTrCtuI7lOlhwcHop7ODd2b7jd/IIGc0xjd0RtR/+1Cn4vnBwkX4HMWnyIu+q18fKuBNOZ52DHbPa4G6BEowkyWKgCayXMAT93iblyX4qANA+ksIA3PFHmKebcvP0TQJ3S/EijvTYwqR0n7U7gJ0xSI+LgruqPVaPG3sEmnjGYVEEGYfzSlfgTt5PetVxcGfmQzAxT9g5aY3h2SkxDZhhdpP2hB4Purys8tHf/d3oZ37yJ5tcvpdzRwHusDBZcaMAgIsnz+KZY5sE1OyA0zfGJza5MMmG8soaeT4ussQu/Dg575TXwC41AB6K9CpeoYWZ27fvJKdMgjs/H5KaOznv/P/bexMg6bqzPOzO0j3ds3zzrVoQKWtBRoBALIqCxBLZKZeNCwXseIklSvjXAr/YFOwyUVIkigpSUYUUieOUURnMH2RkIipOZAKCkNhG1gLIQGwkZBuhhUVY0vf/3/fPN9PTPd3TM3mfc/rc+97Tffd7e32OajT/fH3vuec859zb57nnfd6nCh6LOpfkjuQunHskd4u6DedzXZK7BNJFche+SSW5m8+9yKssPwIkdyR3epaS3OW7Z0nu8uHU9FEbR+4QJ4+QQ5SsnSwNvtWRYTcqX/hk2s6dTf07aHpsp+rH23u8zXAlK6FKPCxzZLIJuQIc8eOK7q+PVTGcsT0eZS3y36DgTaLdereFO3f5p5ENnbVhg0iNf+f4VrRjJU+CaxWWOZTU1EM1R+20nz337Y5VtNt1JRUlhWUauwCTnjl/u82VvWv4Z+9sS8ij+se0+v2ubAkWW2rb71oDUayZqTt3uMS2CsssWHXuw9G/8VWEBnbudIhNZ6+lLDEk3FXGDjYNKCB3Z8oSAzsQw1EUUmNST7tQHhP+WW6XM3dneCARWBACTZK7TqcThkfi1kPomrsHsft/LllpXfFTx0MrlHQPYmGt7/X0sExo7qKdO4Tk6R3+O3fvBfhx5fc/9cng9NGjUqPxp//cnwu+8LnPnXnuH33608E//aVfKlVvoyeZR2j0HL1WWrCs68azh1+bHAuRzVLcVgDfnbEMxFNfUPm/LLcK7NzhWa9D7vdEpqPHP6uPSZ9jDrbaCFe27UY0FkJAk8qu7NpB42/QlnN3JUTT7frZXAAPEs+FjMrJcoAvvp9caGVLcgxgh9wVaxsRSS78aDOtuTP3oAqrtvZe5eQaZXGset5GkTsfrCKkIwoXrE7uqg5aXednkbu4bYQf4ogkMBFBTUsrWwzneEhn1vY4yV252RCFKNsHsG854ScXukYq/QTGNpDwnYcnEfH3wwDLtbDYWXgYOz1sliWBHzZ6KaGH7gsBuEB72oQWDgs4/eVSrIf5j4ZO1ulqZp2FL0BH8vFl/qx798IvdfOlpkJo+pIau69I/sVQXhBMCJ3V6+V/4ZW/BzySCCwegSbJ3UC9aDP34DOenXgPGq9JpVnC/enIgH8PVmmzb0nwnd/3nwWPf9/3hwPxljd/T8z3bvEj1GwLjK9dyVh/Te78VvqhhiZ0VuV68AlakR3DIuSuKfT8OYm+3b59O/FyDx48CNeSIHn3nu3dC0oDXqTNWdYPaVKiLDlQkXYs6liSu0JhmfkXMmk7d4sabP+6JHfLMhLzbwfJXYQ5yR3J3fzvQF5x2RGoQpSyNHckd8s++rLjRHJXapBI7krBVvtJJHckd+GkKrYLxp272u/GOVZIckdyBwS4czfHm46XWikESO64c8edu+K3LMldccyaOGOjyR10R0iX6oq/k6UBLxqWCW2YSzvfxMDVUSe+vFymIdRXxPDdZh6KtDjxsMyrSbZMG8JaLCwzfi4w1Bm7sBjVceHamw9aSh1KatPnR3HSfgreOjCsWoeJMU/JHmlD+erXNWWRO8wLHdp3DU1dQlgmwiG1jxrS7jsLDeCDz5qOV0f9VxM9rAk0naT2nz0+W6IvVFoKmWNRimjRC0isft6wTGSdTEoZjTZpXIDTVWq7qs4mez6sD9LSWCPkxD2bjPhd9D+uvzgPYbWuIFRL64P7KpzMWJ6ILsHhbrQVCN9lIQJrgECT5M7eg/a7ydyD4u3qcgHg/t1RmYt9zd2ssMzw2efZqxifO9++YVK3ny3T/6593ePfHbzuTd8djuSmhWWC2OnviSJEb5bmzskGgLN+psIayNgDTcoWvmdVbgezg6iLDhXFcUop5J+7iNsQ6yzsXDuNIdZrep3ttwlz1+lNIcbfMZmc3fcztG75pFD+WsrXzcG3+UBsF1xhWOYiZseCrlknuVtQFypdtj5yB91clBSlGLmLn+t3KD2UNE7usmLbK4FV08k+yfKrNV/sDRjcZ5E7vx3XKUJtM77K7Nc/97R3HiM5NUGXWE2mJYFnDVClPdpWwK8HxA59X+YCrJBF1X0Rd4Xo3btzJ2zy1MJSEj1ovc+ZSjJlTGNVIohl7jfbRgSyEGiS3Olrm3tQ7pvoHuwG9+4+o5Z7sIoVwmsee33wmte9IWzHxpE7b4IU0b5pcoeXs/fvfy58SWvmlfJXhm+QIWV5ipCfWGKXIufmqb+BY7K+F24/4xnii2eT82VildK+6TUNkqJE37927Rj5OpPcNTDYy1olyV3kGZLlCZi+c0dyl3eOk9zlRSr/cSR3xbAiucuPF4/cHARI7kjuYiQcZqo5E1eS3EXIkdwt5pm50WGZPuQkdyR3874NSe7qR5zkLj+m3LnLjxWP3CwESO5I7kjuqt/zJHfVMSxTA8mdQg2xwdDhzS7X4gEFPUnO7fMyo7Hgc6z2y8Z3QzOFGOUkT8C0nTtgpLGyOp4opjyLRFu/EYsz9D8ILXGlSFgmtHqnp5EvT/r4LgZ8n9whLGGo0l4DOz0n0ae8GjyMZ0s8Y1zR52aFZUITYsfQlmvoQxJCR7LCMre2xEduonEDmTgXD728fpFlRyVN44e25NXUZV1fh2WiT0hZ7vomVxH/vOh5MhRfIa3By6o77+dWN7cX9gmeQrCnyFtsmKW93/ZEg3zzRuQN5IdlwgNvJHPDzAkvnCzrSzxve3gcEVgGBPDdtzvx30J72gjr8vVrk+81PKcPJDmbe66Ye1/peo1fpDy7k4rxrZvorJA6/ubxzfDQIqHRvqfYjvf9AW2X8/SEr51us/8c/5Mv+pLgi1/0pWE7fu2DHwg++8d/vAxDs5g2pNgiGG2e+hy6Ov0dZ9cz9hkL3Hcn6yz7IDUP03x9wopdm7gWOTffFUod1Wq3onUKNHcy113/rRY7OW/AVguWE5GuMIaVt3ZMa5y/psEaQK+VMCZ6XeDnidDrTt8KwXrk1Z/7oBTYOU8iucsJ1KYdViUsMwurdHJXLKQzrhOMa+6soHa5NU9ZJMv3m0N/8iatmI4xj87Nuq5P3q89kbceY7Mo6OwnDjv0eC45Cx7cJ2cRec+aK8v+uU/utAbNXyyB1Pblp+6CFzHHh4dhEpsqWj8kiEGfXPEXlqcydjC/NWsSmMYOYRprFyYkd3WPLOtbJgSq6NeQBAWekXlK2zNfLkLu8tTvjjHfAeYFro019J/jJhmL0igN+oPc3z1F2rEOx16D2KnEJwh1d9/TwFe/KMdL0i2V6G0d+t/pdsLvePMCV7TmeV/gnot36uWVfZE8hVUBcLKjoPJneM/yVy7QrIUdSnK3MOiX+8Ikd/MZnyySRXI3n3EoexWSO5K7snOH560WAiR3JHdJM5bkjuRu2Z5mJHfLNiJL0h73BsWlVPczXqaHZaZ3Im3nDtvm2B53b32yMm2m7dyZEMfJLgNaNJadvKZT8hcdPuCLPjicsSuCt36uNEXusq47vXMnYZkJkSMI9UnLlrneO3fdoDVJLW7eWMrOqrM78HfusGuH3bu6C3fu6kaU9RGBaQR8cteVDH8tsYwJdxwkA2Ls+1JlEMauHXbv8hSE0h8dRqHRCHFDuLcr/UE/Fhpt7Egmtgp56nfH+KGk3Lkrgl782GlyhygZG+GAMMx9ScHvJC7cuYtjdz6SlwYISwZWZj0U7SYXGRG7Zo1Co9196eqwa5pBWGU8LDMeMcaduyLI89iVQ8B+UdmQjZaEa+n0vVOLf4mrzrsNbzVPnndLiA58TSJvuirk7sUv+crgO7/7+8Ka3/O//2zwf8rPoktH0s27MEXEo8PzJgptG81I39sJmwxi7PSLwAmLBu0ngwWHKyPRebgQOvybPjfruv74QhOQNL5Y4OjrIqwIP66UIXfwejo86JovRpSREPOehAU1XYpe9/ISfpZ2vuJ+uX3zWKJzrM4OLxf0ogw4aV9J3RcQwrNeP/SMK9JPn9xhnLQ30EAWh3k1eFlhmVigas0dFpYMyywyWjx2VRHwtbpdhJsnaO7MM7ETPYut7jzS3+K5naThwfPkcmyJAcqBLHYRPumK9rnDc0Pfg0Wx1X6YJHdF0fOOV1o4+50QvQ3Vaynz7zkldhVb1NjpeAEBnZ0r+t7IDMuEf6DWJ5qwfgdIukdrWoeM5t2QN1sXXsbcvHkrPIXkrrHpwIpXGYGsnbum+laF3L3s5a8I3vrDbw+b9pN/7x3BEz/+jqaamrveuMGpM223BMF/YzSdQOYgJAh4mJ2JBiq+y6n1UvE3Vdbw3T6QQe7subOvO03ek7+Q/B2qNOPcvJq7Onejcg+MHFj0uvBSHE/eOmLx9qx798JFnNF8qrf1voZFtysvLrP64rfZP6aI1i+T3NHnrsh04rFrjEBXdMbuJV2Wfs1PbpWmncbzZKB2GI5vHAfHN6IEK76J+dl59B1QBW6Suyrobda5MCVv70UvcHXvs8idv8tZF3K4bq8X+St35OXKnTt3Se7qApj1rCcCJHf1jSvJXXZClaIkq67RKXpdkrtoYcmEKnXNQtazCgiQ3K3CKLGNTSBActcEqvXWSc1dvXiubW3YlcCbEFegA0DYX9Olys7dl3zZi4Nvf/13hE38hZ97T4CfeReEZOi02AhpgMUDCnZs9NumfDt31lYC0Qw65TCu01ahEv7um925s+dmXTdr506HGM1j5w6plHsSvuoK2l9GZ5I19tZWoO3ZCkQhUv75sK1AmmQU4H/39u0wLBM6ApA/VzDuOlxV12VsBcS+4CohJXZaf/02ox1OB4hrXAxHktUyulfHkqlNh9iadO8Tc95dObej3sgirBTZ+lw5Vzt3YUjYxCLDhqE2HzqbNYb8nAjMA4G9difcpYe9AGwFXBi5vwtmwtiULc1I7snx5LmBtuoMyPj3kbpf8dxG3a7gPnO6XrNbAc3dJAKjSr/Nd7z0yRVmy6yC5nzOTbX1kfVBHfNiVk98cof5G30fixXW8DIu41Ahq2bnLsVWoixyJnuzfN+6aCTkK7h163ZYXZGwTNxj+rvbSh0iuVDZNs7zPJK7eaLNaxVGoAq5WxYrhGlLAqRJdunkER4J3VLesExtNO9bP0CvFyVjmSZ30bk2LDP5ulOaOzVyRrisRM/zIHf+xCkSalhk0vmm3tA36pcaaXUBl45oDR2RxxfreJzvBYgf1lWkv1lG5H5dp5Km2vnt+TuVfiipIXcqmYMfEtarKSSsyBjxWCKwbAhUeyZeBSePThIXj0gEpvV5WLBCt41iQvNVArI6cSG5qxPNZuqC5tO9sPWvgLkBf8W8uRCKtNAndw8ePAiTlfj3Anz5rneTciwUuWqxY+3aMVmmkpZQxb9S2nqoWKvmdzTJ3fyw5pVKIEByB6+h6G1quq8fyV2JKRZoCVvZAAAgAElEQVQ7heQurhMkuas6o3j+JiBAcrcJo7x8fSS5Sx4TkruVz9uzfDccW1QfAiR3JHezZhN37iJUuHNX3/OGNRGBMgiQ3JVBjedURYDkjuQuCQHu3FW9u3h+rQjgSxIZHV2INv5bb61b37e98Jo6A2RLMji9+CteEuqacOzNW1Eq3I/9zkeDj330I7W2F5V1xH7gP/ozfza0A/jsZ/9d8OFf/VB4HRsXH102Hg7gslba9L3Zmjsdlil2AeKH5MIA/XOzwzJ1Moy4BQPq0joQDVq1hcx1cCJZOnWq/lkD4ocLmvTgEp7kCrRp44nWK2tAca4LQ8w6FkRJa0mhX0uyL0BdyC6p04nDw8iV8dWlXDefr50Jy0zx9/H7i/5oDcD2VnRd6Dk7kgY6qQA3p+3DtMTxbnpCJ6gzfKZp7iD6bCrsJ2uc+PlqIQAtmg4fg64syQpgtXpmW4v71+hpJw/6qcyT8p2FMEdXjD3MxEZBTGbEg3Us/2/v4SvRxOK+Cgt0uCp1PkLitpWtAvR+rsg3TaD/LoIlnn2xED7zt25G1A77PS36bfW9lnYt9G/VNEtFsJvXscBdf98AU40r5oaz4mkyLNNMc7Wogfb/SnRqk5vB3AthnoEFhWWieTrXAXDT2Nl1mJPHuMzjs3V10J1rj7y4xnBeo1/sOiR3xfDi0Q0jYBa5hzCxtDHa2Tt3UXp/GFj+1W97bXAg56M84xnPDL76pS8LW9yUFcKdu3eDn3jnzwR3JQ0+Cojd237wLeF104W8VcgdNHeROWqd5C5tmBdB7orYCvhtBxGCzqyJcnSwbwgeiq9/MW2WBCR5Sha58/UvRXRz/vW172BWm82XWsxAGea8EcnO0zceQwTwHEd2SVcwp5CMaF2L31///t1PsVEAsTs9PQ2hwWLdEUH8Y18lNcJiFS8w3aLVkK4JaSyKrdUITxbocvJ5rxfzXPWzg+7Ls08vntOuNxCPUj43io7I9PEmaZrykEUynfN+pLM/Pjo2/m7u+6ipl2/+/avnxlSrF0TusB7qKyuio6MbwQ2xFXGlGLmDrZRKLGaI4XJ/D5LcVb/fWEONCJDcpZuYT2vuSO6yph/JXRwhkrusGcPP60aA5A7h9WrnjuSu7im2EfWR3OUfZpI7au7yzxYe2TgCJHckd5hkWVkc0wzB/UlKckdy1/iDixdIRYDkjuRu2Xc6VuEWJrnLP0okdyR3+WcLj5wLAtoPqJDmTnyEvvhLvlT8hET7IAUavCPRpLny6U9/Kvj9T30y/Btx4nXoPvBG9uVf/w3iD2azWiIt8L/52EfD61QJy4T3kI4T1151+PeDA4SwWuGDtX7QVgjxOHF9rvFHkhTaLl4ffxf58jW6yEkPzcJNNCSuGOLl60sm/noQadj+TNoMPxnxd0OBv5rxXDMFvjJRiBA0J1piZ+Pp801Hq0Nx9Yo34GiUW4PnXwEhmG3lV3UtbXRamdBzauKHAzx7KmQGdSWFMWWGZXqana2tHVVXHCs/hNXvg79zZ3yyXJtnaO6GKhwFmrwmUmvnG0ketSoIGA2aPAPcfEeoIOadK34WVqPZ0ff7qnQ0oZ1+eGQ7RXMHjdxhV57jE+2ceV6phxs0ePp7aiz3oPbDdM8f83wxz5iyaecjLa6rS4vq8GzWdeNZ4Aq+syGLSCoMyyw/oVvyXesKtKpa+2X+XX8RKpGksebZ6yZ+5+CZr70Wi7QQ9+pY+b75cyNW14LCMmH3pNc0iHrS6xQ/LNMeq0SmqhO+5u78HPIEp9cTL9mLwdJ9LzIss8iM5rFzRyBbc5fm+wayE2mepv3mmtEPFUvBm665m1qYywPKJfjwdzmraO6qDGw1fUmkh0vTr2FRsbtjSTsKkpVcyU+e4vvwVcm02e3sicl5FF7l+76dKd+3kZBIECdXbGKd2YzUjKUi6n6/0ghzlm5uag6pkDBzrmrzLJ+7ddZG5Zk/PKY4Alm63E3TcoLoJr3w8l/s+M+robz8AvmdVewLpSgxVvGRSj7Db7M+0r8ukpfdvh0ZRvu1ktyVGxmXqMd9b+BZfHJ6Elbmj5Gvx7x1fDue8Es1A896TdDLtTDHWQsid1PfoXjBokKjNbnL6oWfnK6IR15W3U19TnLXFLKstxYESO7iMMY1d/HkMyR3s6ccyZ03h0juank2sZJkBEju4tiQ3DGhSpnnBcldGdRmnzP9cj/Klpl1FZK7LIT4OREoiEAVcodQFuyeuIK6dDpuu7Web/fHbzbCUNzbNGzkX8p1XLiabXM3PCXtwYDQCIRHunPRXp3hyb8uwgpc2KpZQMlujwvb9M/1r6vP9a9bcFhihyPkaiosU70h63a6gQstsYu+g7DN0MOdTTJZHqrMk2gfdsVcuOC2hCFub9uslChX10itnW/sbPui8ejLm/DBIMp8NTsQYzYiTe7caVz8q/s7d+iPw9SMpewQhnMIWcIG/cQh1eNhzpXQ0di5/ejcdc9qWGXe89xkBGB9gDBw94zEXNX3oG+xgfnqwpzWEdcmyR2yJTZhM4Bnjsu86I8Jnhf6up2O2A7djGyH/AgF7tyVm9WO3Lmzkf3ykdq588doKpPqsWRSdWG6kDIo74pN37nry32j14dpI+SHZWKN5s71JS7lRrr+s7hzVz+mrLFGBKqQuxe/5CuDx7/nzWFr3vtz7wne+3/94/DvKuTu+3/gvwi+6mteauo6efrp4O0/9FbzGwWaCJ0219fcZT0Y0r6otf4uS3Pn+xbF/NhAkFTMfJUh88MN/S8crfHCFw1IjPvyh6aw3bJhjvCEc9oSqxfohMcNRPf19EkUjnIo+g78uILFoTvXmHrL30jtjYJU4q3JNfB3x9O/9ITMjMSHKU8pQu78EEd8MWsPPX09hJ1qXPy2mLeOWsfo7b4Z3dykv4U1d5LyPDxX5q5+uTDlfZUHJB6zkQjgft2ZpOH3X+L4mjvcn/3BIMRpAHI30XBhzl0MIw0LnhHQDrmSdh8tK/BVyF1fnk/6ZQ2wDBfsNT7HfezSwshxrP7+gAZrNNEg4TPo70DuXSG5yz8z8SLEfVcD49Peo9AXdkf06i6nAGr0x8g8xydvK32fO2jFDw+iHATrTu7w3NAvlKawMuuffK92p/MmRJo7ePbaF/R2vXEpawk8zxZdSO4WPQK8fioCVcjdy17+iuCtP/z2sP53/dQTwT985xPh31XI3dt/9G8HX/cN/6Gp68FTTwVvftMb5feTk5sbGS91YpNkjxQ8EM7E1LtMkooszd2iplbZhYzWr/kaNCwE7wvOrhwfHQXHN25EYylv0twurK8j2wa52430evuy63Ug2kVXtGdcFmZVyF3aLpgfxua3I80nK0s359eVZYWAt78sRKAoAr4PmtaQ+qbelrAocncRJ3eYgzoSYtU98so+EzEGeC4CL1daO9Hiv+gYNXU8nr36uXEoicyO5BntCsldfuThY6fJ3cOTByGR9vXtabX6ukjMQfjgubLu5M7PfZB/BKaPTE+KBwP00/B55ctjqly3yrkkd1XQ47mNI0BylwwxyR3JHWYHyV3jjyFeIAcCJHfJIJHcUXOX4xYyh5Dc5UUq/TiSu7z7kvXgzVqIQCEETEiOaLZcsaJYazmA4icYOZCwA3ikoXzpi78ieMPj3x0e+//80nuDX/7FXwj/XoedO4QduPTUCAcdqLfhhYCu8WBoAuM7ZcjwafVyYbjWRAegk50MJJ2wDsvEDpPrG8IyH57YsFcz7tJv/LiC81xYBMjOKcIkJmGnqGM7tFiQc2U+6XNhxXDpQlQlSuNS6nIF7d3ZiVKLt6UfsENwRe82IiRGa9/88MjRJcIyIw2ohjwrbfVUWKZgg/AslKzr+kOrd+7Ccyc+E8ARIXEsRCALAXNfTZ61ONYnd/td0dZOssNO+dzJvY572pW+7NyNJ/pnzEmEBrt0/y3PagUZA7EL7gpC18pEPmT1r87Pyz4T0QaEoepsmTosEzYIsEpYdPGfG/jOhg7PlUvRVtclA1h0X5u+vk/uoLELJQbyPbbXjnBNawvuiYHcV+EOuKeNlw9iQYnX8h0Q/5cKPdVZoWU5dq2+QyvUanY0kzJOo15tGWI8AduRjUSV6xrbCLUu8G0UtK2Ub0kF/Bcx97lzV2XEee7cEcgid4eH8H2zi3HrkZfsvbPq5G7u4Je8YJE3+tEltmT82qEAHJ46F7LIcQULPK1fu3fnjiwu7ZceHqQPRZ/nHqhWDxKdm2YrgPj5EwmTxW8UEDlYNLjip3A/l/CxWDioSo7jhyqVhM+2IyWV+iwrhLTQSj0eTaZSr9Jfnrv8CGTtRrV24z53WjfnW5no+wgLWYSqu/vXeKip5/g62CgUeSb6Idl6ZpjEJpKQatnIrR+Crvu7/DN7sS3U5M7XzVVpmf99hJcv+r7CS4S6SMj1rvjK5vShLdInP+Olfy9oiYtvYl7kOv6xR0c3ghs3opBWn9zZ6zrNHWQ5kbTBT2xXpR1FziW5K4IWj104AiR3Cx+Cwg0ospCJKie500CT3BWedjyhYQRI7soDXOSZSHJXHudVPJPkLnnUSO7yz2iSu/xY8cglQIDkbgkGoWATiixkSO5mg0tyV3DS8fDGESC5Kw9xkWciyV15nFfxTJI7krs65i3JXR0oso65IeB71SHsMtJzSTp54/tm4wH8sEyk6YaGz5W0sMxnf8Fzgq//RpsNc1b55m/9i8HzX/BF5qNFZcucG+gVL4SwKmSsRIEGx6b8d6Gz4gko+jEzXkjxLXHyKIirh7bAHYc06efKm25L1AE6rL/Tbodji7CuR6enYYjJWMIyERrhSpp+DcGYY9GwuATJaO+O0hUZfy6l99GaOxfi6LRCJhw0QWNXFFJgszPRLeJco5ubaO6KXlePB3QXCMdZtrCuovjw+OYRQPp97ROKlOzOxgRXh/43pq2VsC+nj0GYM1KEu9KScOdWSz2LvWy3pz3JPjcJjd6VYw+kLlf8exD6vDA0Wu5c6Ltq0w41BGveZyIu74eR+00qcu/GdFXykNM6ojq7iue101CiXswV34qnzuutcl24r7bUd4zWjxtnOv1FV6GjCLnUUgbkLoB9iSvLGJaJOaOfOf76z1ioKK9iJ6dAn+z3byTHqACdrPVeGDz/i14YVvFv//XHgqcfPjB/RxnPXVimrFVi2dJlzaDWH2hvXeGvaX0iuasy4jx34Qj4CVXimjuYiUeLAjzMdDKWNHIHmwPYHeQpJHd5ULLH+Cn/dUKVfeXd5lshwOwclgWuVLEkSLMV8K/rJ0XJQ+6KLLbyIxc/krq5ssjxvLII+ElR4MelEychgYbzucOi7Nbxcbigr2Jl4tsoLMs9WBZH/7y0ZyKOTSN3/vMqq00gXe75hN+jixFf7GSB1vDneEmnCcyJJFCBpnzW92WdTfGvu4zkLivj5VNiP+U85cx9JC/33QvhOrH6hlf+qeAb/9SfDqv8+ff8H8GnPvEJ8/c0uUvX3Fm93mWdzZtZF8ld4xDzAk0iQHLXJLr1101yVw+mJHf14Mha8iNAcpcfqyJHktwVQWv9jiW5Sx5Tkrvy853krjx2PHMJECC5W4JBKNAEkrsCYKUcSnJXD46sJT8CJHf5sSpyJMldEbTW71iSO5K7JmY1yV0TqLLOxhCAjg56DVeKaO7gFaT9gqADc/Hsh0dHweu/87uCw8MjU/XTTz8MPvG7/za8zjfIlvw3vjLaln/PP/rZ4BMf/7j5HPHUH3jfPws95pCCNy3m2oaDRn5nIwk53CS7SYyhy5JsFowTzZ3WkUGDcNiVEIuJFkGUB/LfkUYHoRAu9TDGYFr71gu9gUwKaNHluNKGV6JYC4RzSOnX/OtmhWXG9T7ikafGtbGbQCpG+JvzEIM+cF7XbbJPrHu5EMCzEUlT3DNyV+6/vb3IW7LjeY52xdvMhZch5A+hmDoEcDzR0KGXmLvaI29fQjrdub5vI57TWttnfO5itiiRPybOxbM31L2KNxXCzZa9JD0T0e7UsEzvOZnVT4yHGxOMK0Jr8WxFgTZ5NJztw5lVLz8vjwA0dtCHRUXGY/IFiV941telu9Ot9K8LycqO+o4dVfguq8sKIWvn7vT0Ubims560zWD1l/7TVwd/WX5c+cA//5Xgjz/zR+bPC3nO4W/8Rimy/pPb0awfm5BykNyVvyd55gIQqJIt89GjkwAPA1dAKvClinLn7t3gJ975M8Hde/fM3x98//uCt/yNN4fHPvbGx4PXfcfj4d9v+8G3BB/+1Q+Zv5c15noBw1P4kno3QJtrGy3JPuLnXXKcKPGKeaCKAXIssUkBv7msLH/6uobcSd2urIPHVuFB4gkbiYC/o4SFnzZQhq8kkqi4ou9fLBw/e/9+mLADiy4YW7uS5lPp+zZCQ7O7047OHV3ECBs8LN3iuKjn4zIOrL9DmpYt039OFunPLH3xoB8lnipSF48tj8CiPAH96x4fHZuXOXZNUy3R1rzIXRWv4iIj5q//fus3Phx8/vOfM1X0er3g3T/9zqAnXnco0+RuYNYrrmjNnXlenUnyKLC8mgvJXc2AsrpmESC5axbfeddOcjdvxHk9IpAPAZK7fDjVfRTJXd2ILnd9JHfJ45O1c0dyl4wdyd1y3/dsnYdAFXKHELqeSlGrdUu379wNfuzv/5TZwUP5tQ9+IPjB//xvhld/9Wv/evBt3/668O//9r/5r4J/8eu/av42qegldbdLb2t2e7xUuMNh9EZ0Xg+kVZg80Bu4sEydSh3poZH+3IVltnZasV0CvPkfKEuCfr8fjMY2pAjpvjHO7m0Y3qT1JWWyK/7OXdp1Z+3c6dBeE5YpGehYiMC6IZBJ7rqyc6d249J27rBI0yGdSFHuMgICt3t37khdNi27tfaQ0EpJ3Y6CZ8H2to2wQEG4GHbrwr9lJw8hhbPOxb2pQ7JXYYz0MxHtbYvNC773ZhX/OVmkf+ZcY0szCcuU3Vbu3BVBsJ5jTZix+i7T65J6rjC7Fv+6x0c3zVxz91FpixyZTtewnHLaiwqdsLKNaMffrwrf+/PIPPna170heO3r3hhe/qMf+VdigfWk+Rs7dv/wnf+rt3Ono33iO3f9fk8sGuyaAVFfvd5ZI9YIJHcVJh5PnT8CVcjdN73qW4I//6r/OGw0wn3cFxv8777gOV8YeqWBnH3+c3bbHeUD7/uV4IMSV+3KH/7BpyXE83TmDTqL3GmfE617mD+Cy3VF4O/GQH+pmYXHQbTwKJ4OHeTOLg4R8aD1efqa+Dztur7mzv9C5Fgu13xia+IIYK6DgLn04GMhOwPluWS96qKQx8FFPwyltOfuh/cn9FlIYOUKPLKmtKsTL0YQs4eP8MLLhhv595x/3xwfHUg7IgKnfaAGEtL08OQkvO6hEJLDg6gdj2Rx5fysUC/0t+7FDsJDL9SLNSxY6/K+amqu+VgBYxcu51/Tf04WaZNP7vAdqMcT+ru6fDqLtGvTjvXvBX/8m8LDvy7G3vkAFw3LvN4Rf1rtx1eS2JlnjpA554mI79sTde/7WOC+0N7FTWF189at4ObNW2H13/Xm7w++/CVfaf5++uFDI+F5+OCpyXoDula79kDB2i8pLBPPOZC76EW0PJ/Vi+gq/SG5q4Iez507AlXI3atf+1jwmm9/rFSb3/VTT8jbmSfCc23c9GSnyMRN4wZ1JpbpPielGrABJ2mS5etBipO76IGZBV3adWclVNE7Dll183MisEgE/N03k1xIaUj9XWx85t6ET5E7IV/Y6XHFT/Shd+5A6k7kmahNhdNwOBKy1laJsvSxWR55J/KSze2mm0QumtzJjp4md34I3CLHJu+1/THS5/nPybx14rgsXfPwIp6ArEjdPHb1EMBLHkeqSpE7ZcRetvdmTh5GWnsQHXjZJRWdN6HsNcucBw9keCGj+D7Hfn2W3OnIrcjnztfcWb1etOtXpm3uHJK7Kujx3LkjQHI3d8jndkGSu7lBzQttCAIkdyR3SVOd5G5DHgI5u0lylxMoOYzkLj9WPJII5ELAhBG1o/CdruiynDUCQo8ODg7DFNvIhAmrBFf+7J//5gA/rvx7f+K5wdHRDfMn3ph88vd+LzGl/P/93p8P8OOK3rnD22m7tW537hBPjbhqV4YmvGX503HnGoAGD7JhIdbmwixKJSwToUMoRXfuEF6WNwNV2nXNmzSJ63cFWh+GKjU4CVh1ZQTw9t2FOuOZiB01F5aJ+azDfrArpEP+Bti5m2hIUcc+wjKlPncPpu3cIUzThUhV2bnDfYt7zOWPw64cQi9d2ZewLfxEz9dhGEo6HZYpz2L11hy77kPR6LmCsKi8z4nKA1OygpbsmLZ2o9BZXY3/nCxyCUv8vWesCrsdj6+C8aVO0Z9cOzC8khBYltVFoBC5M2GXUezl9Q7sG0rGYirIMCexvnPPL6ydzs6iDOc+utDxziMs07+uJncnTz8d/NB//V8a+6xZBTt7Tp+Hz/2oL6258yU95r6aaI+Lzizu3BVFjMcvFQJVTMzf+sNvD1728leY/izr1vpSgT3Hxvg7DobcTfzw0IymLAmydjrmCAEvRQRKIeDvgHfa0NzZhReIG158uIIFnfaQQwijS06SFRqdlqK/Crmr00YBJPFUEUPzckb5d+kw1FJgL/gk/3lVpDn++IJE7ktInCvwPcNPnnIpi/D+aUTA85zDY5YLgSLk7hohmNDZ1Vxccjr3wsUmVIle0Nd8udLVaXKHkMsPfeD9sdBLXfGvf+iDoW0W/n1ekh6Su9LDyxOXAQGSu2UYhfrbQHJXP6ascTMQILmL9LYkd8lznuRuM54HeXtJcpcXqXhYJsldftx4JBHIjQDJXW6oVupAkruVGi42dokQILkjucszHUnu8qC0OceQ3OUfa+7c5ceKRxKBUghAg7czCQ+YrbmLUmb7YSbf/C1/IXju815grtvr9YKf/Zl/EHqV+I2ZzniErHI2W6avuYNWgRq7UsMZnmRi75GifRJOlqW5A95lY9N1S/3rXkm2PWrsqo0lz24WAWhOdrbFV2pSOtChTCwJtqGrgl+kCsvsx8Iy94I9bYUgYZlac3e4H2Wu80Oj8ZzT9xx86nAMislaKdkWXXgVjhtOvJ1mobErz3CXbM/o5gYX4bnQEEI/7QrsHBC66cqt4+Ogsxf5c52p1OK4d7W3KawQ8OPKOoRl6udkkZlm5oZo1N3cMGGZonN2JT0sc0u07pE2ah3CMqHvdvrSaRyvY3OuCM6rcqy9V53SdSvYhefdREbnaypNWGYNGjsfG5OlU3n+4d7HGm/Zyqu+9S8Gz3u+XTtCJ/epT30izDL8Bc95jmTSfGXY5F/+xZ8Pfvm9vxD+zbDMZRtNtmfpEYjS6KokHDp1txjBag0Bkq24RQOSoWg7A7+zaV4lfjrbpQdqBRtoYu8luYMrq5jSfAVhZ5NXAAE/Vf5eWxKbTMgeFkc3jo7CFOdGsK+sEHw7A3ymrRDSyN3Jo0cBbAhc0UbkPmwgdqe95BTfSPIC0oZiva4iQpo1BNpGwTyLPd8o3d+mtLpZbVzGz4t+X+o+4EWqTVlvv2vXgdzBPN69nPDHq6g1wDKOd1ab9IsOPDdu3r0XbMOMXApecjq7kax6Nv1zWCRgZ8+VRdloUXO36TNxjfpf9MuK5G51Bp/kbnXGii2dLwIkd5FHHsld/rlX9PuS5C7aic6P8uocSXJXz1iR3NWDI2shAiECRb+sSO5WZ/KQ3K3OWLGl80WA5I7krsyMK/p9SXJHcldmnm3aOSR3mzbi7O9cEIAOwBXrc+dr7vbCz4uRu4tYqtvz80hzhwqpy2p2eLEQQdiMK2PR8CBUhIUIbBoC2xJy2YYeZlL80MpuB95P9l6Brgrhc84vMjMssx/3udM+aNDinfcH4XWhNb4yOh1bdkSH4/RbuO7xjRthOGhWWCY0dM4nFEKfpPC4WWPNsMz8dwBeBDhfMOuRB1/Y2TIGPF+TdMx+WCbq2tmKdJ+X4k2IUM1FF3xnuDmZ1ZZ0D1M7J/PWlXWtZfz8UqQp1xPNnbmrlW0d5gw85VzB3NC612Xsz6LaRHK3KOR53Y1BwCQASNXc7SvNnWg1xA8pWmDEYUrT3G0MoOwoESACC0fA38X2/eZgPO7IkZ8R0ZA7IXCu+Ofis5jmTiXc6A8GwX0x5HUFiQ7iBuiRbg6LwWfduxcSiSxyVwVUkrv86BXJLu1/5+mrTO/64UVqlIzl4rwfDNWLgPwtrPdInQEyq2Yk3jnv92YeVsVPMOu6y/L5NRLTTbIa+X5zuM+Pj2+FTUUyOfecWJb2L0s7SO6WZSTYjrVFgORubYeWHSMCG4sAyV186Enu8t8KJHfJWJHckdzlv5OSjyS5qwNF1kEEUhAwi6BuVlhmlLq7J1nWksJQTJa1iygkqa/ecHMQiAARIALzQsCEm6vMsXvIAixv1l3pdrtBa8eGp2/Jm/h9eQaGVgiyczeQHThXEN6pQzz7yFp5acOdcS7CMt25dufuQexcnab8QiwWLifnwp7mmXfvxnbuzmQ3p4lCcpeFahRfB3LnpAtZYZlZO3c6pBNhwPq7Frt2y7Bz15J7xYWdZqGEXWt8r88q9j7Kn8E161rL+Pn1rpC7ib2BsSM5j/wicZ/fuHEzbDYy23LnbvYofu3XfX3wQ2//H8IP3/2udwbvftc/CP/GHHOZgbHexLrTWcZA3qPnIO7BgdjCRCUKg8+aQ8yWmYUQP19ZBPDlpWPkrW+Pr7krR+5wM7obcmUBYsOJABFYegSMNYCQOfcs8/3mpjR3IHcTXzhoUx88fBi+tNoTP7ibN47DPp9JKFpPWRTcFM+4PaXn0wvjoSw8Tk6jsDX/+Rp/Jl5bH9CJJg86wd2G/KpI7pKnsCXv+jsvkiJUJ3ew2LDEEWnyT05Owoa0ZLxb25FGel43GcKBtTYbthjQ0uUpeGmiz/XPyUsS81yrrmPG0L4laM9l9bNO1noAACAASURBVGN1glo8py8sY3c90Vuaf1YaO/ypX3T7Vgh4gdRRL5jq8pmtC5dF1oOXHM945jPDJjz15P3g/v3Ph38fyzPWvVCzHsmn4VoSz0zkc3DFf8ECy5i8pJrkbpGzgNeeKwLmDbcQPFd0iEqWV13aW8y5doIXIwJEYKMQ8PU+WeQOO3VOc4ekB5+9fz9MfgCjcfjRuVKnV50eFGNiLvol9wIMOzsdSfTSRCG5S0Y17TsvUzcnuwY6WkVfxU+ogkXnU089GR6yt9sO8DPv4nvVnZyexEyx09rjZ52dd9vLXA9JjtLIHV7yJCWBMUbk0NnlKCAdekdpf//QJONxBeSeCc5mA4l7SBuz37lzN3wW+v7KWeTOGqBbP9CsQnKXhRA/XxsESO7WZijZESKwMQiQ3KUPNckdyZ1DgOQumgvYsSO5W/zXBMnd4seALVhzBGx2t8gqoSsx9K2WDR2x2+PJ2TKHktYZoQcsRIAIEIGmEUAImHvjjl0SrX3Dgg1hUa74YZk7EhK3NQm3QmjV0yePxLLgyhzeFquYG0dH4bnn/b5kCIy0cDfENkFr8HQ/L2UXcHCRL709duzsro/ViFj7hig80McPb5knch9zhnJYyIQ6jdyNTHbQKJT0YnhhQghdQRuTdj78C+M7IimbcmYj53QA5gywDudGSrQKQiqx+4L5ZcdI7AyU3YxNd2/nzdR4YdNH2QwAU2SbdgUhmW1V15y6b8IqtY3GqYS85f3ebslOo7ZSmlebi1wHVgVaDoL7OzUsE2MwCbcE2Yvt4pmwTBWL6W7AGQ1CBIDexTW7nEriUkSisg6Sluc9/wXBkQpv15CdPjoJPvXJT4T/hPmnrbJe8EUvlMyjVr+Indc//P1Ph7txWTt3iIYYjdzO3XWqHQV37orcWTx2rRAoEpa5Vh1nZ4gAEVhqBKCxS7IzMGGZOqGKt9CCXQGSn6AYvZ5KBAEhP0LowkV4ip2BD1CToZUtWWTCGw8F5G4kpCJv6oBUcic6wVNFOoYjIXfqJZ2vG0ybFJYY6uQGyzeFimSIzgqtPDq6IUk0In2m7i0W+/fvfy5cXNrkZZEVgjCOYEvI8LyLT+4w1klJ0ubdtjquh76MxvlesPjXg9el0+LOaou2Qshqq78bBZuEtJc3ur51sFF4+4/+7QBZMWeVD77/fcFb/sabEyH8K6/+tuCFX/zF5vNerxe8+6ffGfQmzyhL7tTLKBMaHT1zdFhmlpSI5C5rFvPztUWA5G5th5YdIwIrjQDJHcldmQlMchffuSO5i2YRyV2ZO2r2OSR39WHJmohA7QiQ3NUOKSskAkSgBgRI7kjuykwjkjuSu6R5Q3JX5o4iuasPNdZEBOaEADR48GNCgcYDITdFYsfn1ExehggQgTVHACncoZVzBem0dVimtkJAaNXhQRQCB12UDj3rSxiP1krhOee0NjjOWBRMirmu0kbhs6QwNugAkS6+joIITFEVRu0wtjX2z7rDMmFO7Qp0g+MrlW1OLqaDB01oqJcS3p2L8Cgdlgm9zLKF/GGMtGYyzf7HaDlFc+dS/CPUUusRrX5vdjZFq6mMvi9xnPY8ZFhmHXeJrUNr6oB7Xo2o3wKMp37GmPGd6C3NsdDgad2d1uN5lSFjo/Nqw0d4VuW1ioAmVOtCoe1c9nXXl734y4Mv/fKvCFG4fftOpDkUzKDVdI+NvmiYP//5z4XHfuwjvx38zkc/Ev79Pd//N4Ov+MqvNn9Dn/c//vf/XfBoYiPCsMz67hvWRASIABEgAkRgoQj4adi1nQEWYa3dvZCgYfF+rJKi+HYGsBzQhG2hHUu4+I70aTdh8VgnucMi9Hww25jaLJwvZYdQZW/Z3RWCnULuoLtzpS/15k1LvqgxqGKF8EgWnqenj2Y23XnkuWQsUwdRc1fLkGNujuSFCxKp1F1A9NJ8/a5T7gW/LUj0kfdeWEUbhcfe+Hjwuu94POw2NHXQ1qFEliL2wfGyl78ieOsPvz089if/3juCJ378HeHfOqTzgeij3/ymNwYPJjYiJHd1z3LWRwSIABEgAkRgQQiQ3EXAk9zVNwlJ7lY7oQrJXX33QpWaSO6qoMdziQARIAJEgAhsIAIkdyR3TUx7kjuSu6R5xZ27/HccyV1+rHgkESACRIAIEAEiIAhAr5KluXNWAbui7zjcjzR3iCrUoYXDy7Hx7VymAikPQjFdgd4uxVZLfPmiQDT0b5xmfGc8/Gx/reH7fmirAF3ceT85LPMa3nWTRlmvvXTNnQ7LRL2oHwX4L4NmGxpKnZI+i9wdHBwZfzvXB63VhDeX9ufS8wkwWU2oE0pex60PipoV1jRZK1kheJozY+VQxHCxZB/u3doP7t7en322NAEelW6Wnp5dBJ/+44clrxQ/zbcB2RVvQu2DVyQsE/q7vM8czEk9R6HzhO5umYq9j9phk+BN94IX/snw7//vN38juB/q6q5jIanPeOazgpe+7GvDYz/x8d8NPvF7Hw///qqveWlw7xnPNH9fiGXNB97/K+Y3ynRY5kXMX/D8HKHgVjONqan10z5+tEJYphnFthABIkAEiMDGI1AlW+Zp71y83FTSkCVAE8QUXnZlCojeKIWswrfPJXfAouxZ9+6J5tAmpzGauxRyV6Q9IHZT5E7qtwut66B3frbwxBBVsmUarGTxWKrI+GwlGJ6Xqq/kSVXInTH0niRYw+W3RI85D3L33OccB899jjW1zir3H/SC3/rXn8k6rNTnrZ1WLClKEXJX5IKYozox0zKSO3sfJRBur7PXQr7PxKcOv1HQt3318i0NG//cLBNz7XOXhTnJXRZC/JwIEAEiQASIwBwRILmLwCa5yz/xSO7KWyGQ3JHcuTuN5C7/M4dHEgEiQASIABEgAjkQMNky5U06ypbsKBzIm2AXMgUrhP1O9FYZ4UM6hOi015cMe5uzc3dx0ZcdOhvWBWsbf+cOqcnzFj8roQSPhqcOZOdOWyGYsMwJzgidO5eMgYuxRoja2GphxyEK2fXDMmGxgbTtZl7JbiqOdRkv0ZciWMUwXaKdO7dri/Yh02TeMbnGrp3aXTY7kXMIb97EnTudzXc0WpwuUoeh6vmMOdTtdnM9Nsyufe80nGe4v7rd6B5Mq8Q/1+6eR9YtsBu5uLAhmyh99czJahx37rIQ4udEgAgQASJABBpEAB5hbflxxbdCaLc6kRWCLB5uKCuEM1kM9CQU05VdqUf7SDXY7NxVVwnLxEXSpE9D8WfD7h4KtIu3bkTebVg85fXQArGD15srvi+YWWgpKwRYLGhy1+v1wmshTHSgFmW5gZIDsfDt7HVynwLyH469CSdLI3cHQu6glRPeIp6HDx8+DBelvl4vqwEmbFGn6J+DzNPagoinWIJgsy8hugMh+67stTthiO5Uf6QOQ+jCAfeOiPVHwk5Nf+sv607ufA9EEBSEUodjJHNdE/L6EZ5dY6fTCb1E/SNw/+J+z1MQWtnrnYX3UdGwTH1uFrkr8jwjucszejyGCBABIkAEiEBDCKx7tsyq5C4NdujxInK3FRwfgtwV1/eB3GmvLhAI7QOWRu6w6DqTBZ4jkmYXLMVfL60/CAlDWG7eUoTcgfg5vROI7P37nwsJrbluzh0HcLqtyW5p3nbWcRzGBC9BksgdDOuxg+qKDm+eSe52Z5u0Tx3bYH/Xn9zFk5OAzJyLPjUcI0QpCGGfd4GmziYFmi5+YpO0tpl7P6a5i79gKXJuluauCEYkd0XQ4rFEgAgQASJABGpGgOSuPKAkd/l37kju1DzDzh3JXQhIUwlVEEWgw8ZJ7qI56BNDkrvy3wM8kwgQASJABIjAUiEAnUZrNwrLhN7D7Rphl2JvrxsPyzw8Ctt/LpqycxXmtCNaPaejWmQntasAtGu7JXbT8rT/0tgZRFYInT3Z2Uk6URqV9BnquJLdrNAaQY7V9hQIYxyrlO0IAYSmC8VqZ0RzN8mY5+/cwXLBfYbjEaqWtPuEXYxuJ5/eB3XZnTvbK4Rc6t03X3OH8Dc3NxBO9ujRo1hY5l7ecNAGd7LSxtzfuQOmY7WDOBzFQ2enwjJ1OKdAFgvLTLtwg/1d2p07hKzqmyXNuyQFO5/cISwTP65gzs0jLNO/5/DMhUZ3VoEFSF/tAKdNDVhAgLDGs2Xm23n3zx1JlmN93eEQdiTDPI/BqWO4c1cKNp5EBIgAESACRKAZBKC5ckkHtre2g0MTamgXIiaTmwrb22vvCfnbCxuyDFYIWFi0ZOFUPDiyGp5Y7D86i0iWX5vJdl9ykXoohPpIaR11QhXzBl5ZIfgWDNDq6WQsaeGCZnwlVC1v2VIL1OlsmR2ZG5F+76mnngz1TsYT8OCw3IuABslOEXIHTE9OT8JT/B1wv67S6f0b7O+ykrsYdkV2OT3QfXKH3Skd/px3nlc9zr7oiJ6T1lbAvpzxi7+DlnZtu/t2GoZk+/dgkXOLXDcLD5K7LIT4OREgAkSACBCBOSJAclcObJI7P6EKyZ2eSSR3yfeVH5ZJcpfP85HkrtyzmmcRASJABIgAEdgoBEjuyg03yR3JHXaykwrJHcmdQ4A7d+WesTyLCBABIkAEiAARKIEAdFcuDBOZJhE+h/BMFD9sz4RlqgXtWGWP9C8N3dhQdB1NFLRTh2GmaeygVXN6tay2QPeWtmCP7cxIiBT86JKsExCRmTM/4lSzupJdDxn2XBkqfy5o6nrK5+5SUqkjbNMVE5apUqvDby4pUx+0lrnDMqU/NizTIo85o5NXICRTh2WenDwt4aGRhgdhjEnav9RxaTBMMWs+OG0TjsOuCXRLrqD/7r6ZVU9pcofKxPcuMcwYTUjz60jp1O3jbnD7OAqdxQuKJPuOs/Nh8Eefi8JQs7Aq8jnuMz0XtN4UHb+ehIWbOo3MMznoGiHl7mOjVZX7ISrynCgZGl2kP/6xuKa+rNWfuj5ci7ZtpLLdjiSjZ3T/IrNsvA9R7XVq7sYyx8pq7Kb6iylZBTCeSwSIABEgAkSACDSDgNFG7UMbZRciWeROe+T5LQKxgyavidISQRsIXp4CIoSfPGWvtRccHx3nObTRY4xZvCRrmVVmWSHAB88V30YhbYx8TWVWp7Z2d+KJL9QJPrnDgrUWvdOCyJ1JXKO0jSCnem6gbyDWSaUSuUsbCBC/mgzPjfH6JDFP1tg39Tle06T5CV4b8ers1yQm6Y16aWB0kScPw6YaXWTexD01dhBm4Fr3eufO3aAzSVyEFwbazqBI1so6wzJr7K7h3yR3dSLKuogAESACRIAI1IQAyR3JXdpUIrmLiD/JXT0PHZK7+M4diGGSqTnJXT1zjrUQASJABIgAEdgYBEjuSO5I7iwC3Lmbz2OP5I7kbj4zjVchAkSACBABIrChCCBUzyna8N/QbLnia+7SQv5Qx5Zoa1wZis6kLg3euodlQjt0dT2eOQNBwDEmLnR2luZOv/lPDcssqrmT+ZAkBhsO4lo/X1elfd6gQdJ6PWiQYiGcEna4pXVlNYUhFrulr02bwnAz+Q/ncYh62q22CSd05TLAmKngtIa8Fo3eTl3GhGjm1OAZTZqaV9Bv6j4Vw6eeo7PInRGvJZtJGo2si9C+FG/Ic9n5cgXecrBHmHfx9Zg6gnw6LFM0s2KV4Aq0cFfK4xLhndDh2RcOQcxSAT6SuwiVzlH8c3OckvsQhmXmhooHEgEiQASIABFYLAKG3KX43MEDLzFZh+ehdi6L/7781FHWndz5XnUas20hRndFw+PMmGf53OF8V4qMUerYYI1tyN3slfbp008HpydRAg7fX09r0Kw/V/TSwOgEVRKYrcur3ISljvmUpw7fLH6/eyD61IPw1OH1pRCn+SuPimCFFwFjRRzy9LvpYzLJXUoDfKP5sejZhgkvRZruh64/zefOhlZGRuRZfnM202YzianqwoTkri4kWQ8RIAJEgAgQgYYRILlrGOCE6knuSO7yzjySu3a4i01yl3fW1HscyV29eLI2IkAEiAARIAKNIVCU3JlwzsnGDnaWupMMcWggdu36F1Fq/CqNhvWBzpaZljdzFbNlIhRL2whorLYl1Oz2nTuSQNCGY+Gt/kCFooEY6l2wbrcbCx/UdfljlDUmW63knbsz2bU7O3kUVoHsgHpX19+5Q7tcQV9j/b2UMLSFhGImI4Bdr8GgHx6AnUltIzEKJIU9d+6yptDU51V37lqtVhhGLsYOS7Fzh5Bj7N650herEmdvgNDYXg87d3aXFyHJ+Dyp6J07e8r8d4ezBpXkLgshfk4EiAARIAJEYEkQKELuECKFxa7Tgl3Igv1pFaa3I/okeFLVUaBBgV4IxWjQ2vC6mk3xVpHcYeGX5D+Gfx9dDsPPsZA8OroRwuqTu1S7Chmj09OIkGWOTZrfmJBN+Oa5Yr2+1Jio/4SuaDhSoaOHh8G+/LgyOOsF44Y8EjP7qA643o18/bCoxsLcFZMtU6wEXDk8vBG0ZCzM8htjJN6ESWNYpA1Tx0KPqNqRttaHzUHMrsHTDVZqR40np3nR4SWG9sGDztH5C2I8Ts8ehXYOeL5oUmX88prSPqb0H/NCe8gdH98MNabWq+400efOrzZO7q6MJ14j86rCeJLcVQCPpxIBIkAEiAARmCcCRcndoRigu4VafzAI7j/1VNjcliSggO9UHQULa2cobTJ87snb+zUid2kY+Vkc4eN1+/bt8JQiPncDGaOHDx/UMSRmbPMawPv6taPj4+Do5s2wHf3Ts+ByGBGnWhpYopI0rzrfy+z4+FY4vzFG2H1tZBFewOcO5Gc0XjyOJaAPTwGx0y8NkMhGk7uHJw9C0u0/r9I88qq0KevcKj536eQOer2IGGa1Y16fk9zNC2lehwgQASJABIhARQRI7ioC2MDpJHcNgJpQJcnd/LBOuhLJXZRQxfe5W/zo2BaQ3C3LSLAdRIAIEAEiQARmIOCyMOKjXQmB0ro5kwVO7b7pTIzYOUPacRd9B+uDR5IVzhXUhZ86ypXsXrhdEWzYdUQLlrRzBz1a/yLSSqVdHyFfh/tReGAdba27DvR7IP1x/Yfm6EB2TF0x6e5VRsRd0T4iZfqsAr0P9D91lNauWANIW/IUhNVeDKOU9R3JnNlV2TNHg2FwNUn/nqe+2o7xwki1fYN/DYTdAT9XYE8R0xgq/V1amG3htm/gzp3bqQNWbZln0J2iYK5jJwvhpygmLFNHB0hIptm9cyUlrLjwOKSc4M+NQwk5RuSCLddGf+emR1a2zH6/J/PMZsuEjQLuVxe1gHmlbRPq7EORukjuiqDFY4kAESACRIAIzBGBKibmWLB/9v790JMJCy0k1WiiFLFCaOL6y1SnH+J4eHgkGryjsIkPHjyQBCsRkdJt93dmF9UvPzuob6Mwr3YZMldSo4VFuEtZDzJy69ZdFT44TkyQU7hvG0bufHy05m7ClXJDWGV8c19kxoF6buDl2b17z1RWJjAxj3zu/NPjmrt4WGYWMazS5iLnktwVQYvHEgEiQASIABGYIwIkd3MEu6ZLkdzVBKRUU2XxT3JX3zik1URylz8Zy3xGhGGZ88KZ1yECRIAIEAEiUBgBkrvCkC38BJK7+oaA5K4+LJuqieSO5K6pucV6iQARIAJEgAisBQIIzdueaLK2JJzsoHsQbE1C0/AZdHWu+Jq7S/Ejc9qvK9F/wMvO/Y3QtLo0dj7QDMuMEDEZEUX/5cqu6A+19msoWSeT9GvQSObVyTU52ZGufywZUF2BPknrrJq8dqxuaLS0LqtAiCbGQFsloA+uKmge9ZjgOH1sof4xLDM2NxAO7go881LnjT++PvAFxrvImOm5gRdoeI46jTB+a52zX69vhaA1d35YJrR8Go8ibaxyLMMyq6DHc4kAESACRIAI1IyA1jdhoaHtDKbIHdLdK3NeWB3A8gDF+M2BGM4haQHJXfIkWBb9Ws3TdCHVpWXLTGuQyWiqvMxgEwGrBFewKHf6vMIdI7kLCZz1fBxFL5SERGNnr1SR55b1NWy2+HMDuuQ7d+4mXtSSO5u4x2bLhAG6TSDjkztoa2GFMu9CcjdvxHk9IkAEiAARIAIpCJDcrdf0ILmrbzxJ7urDsq6adFgmyR2SsZyH0JLc1TXLWA8RIAJEgAgQgRVGgORuhQdvRtNJ7uobT5K7+rCsqyaSO+7c1TWXWA8RIAJEgAgQgbVEoAq5e/rRqfiVOb3XVkxX1CRY16JZCo2ioGERbWAd0aDjK4R5RdoveMTtTjy1muxPnXVP+9wlewDWed21qKuC5i7e/2sTdhlZ3V2r/xavtjY8AZ3vWWB8zxI1eFLJlszLsOA/lYdeGu7GB20Swofj8N95tX5ZWjBou5y+dp5jb7Ca9B8auw7CxCc3v9HcJXg65mpjiubO+OXV8ZARnzs9N1BlWrUI23R6Td/EPCssczi8mIsGj2GZuWYXDyICRIAIEAEiMB8EqpC70955MJwY7M6ntfYqWBw5I1+T4XOvVYvW71L0TH1JQOJKe3cn2JMEJSybgUCVbJlpCGER3u9H4XP7+4cx4/mhvCBJNKMWYrcl87KOYhLXKIP7tDqRmCRNvwatW16iWEfbXR0D0ZWB4KGgjTcOj+NJVBQPrvO685obfpuhx3N+odDaFdHc6WQsdWLh10Vy1yS6rJsIEAEiQASIQEEESO4iwEjuCk6eNTt8Xgt4krvyE4fkLn9YJsld+XnGM4kAESACRIAIrCwCq0nuxuGuAXbu9tXOHd4iFyn6Rf94xs5dW+3cFa27SDvSsoxWDX/TdVetq0ifVu3Y5sjdZTAY6J27gwAEz5V57dxh1w67d3mKsTLZSd61Rj2L2LlD0pDLif3BtoRKHh3eiKxcJCyzqTKvueG3/9atO7Jz1zH/DLz7/V4YDjsaxXeE/YQqPrlr6t7nzl1Ts471EgEiQASIABEogcAqkjt/kWK8nSYsbUc0cp2coZSopz+ENsqeDBK0rTR2CP00+r5J6bR3gx1Z9NZd4HO11xHtUEK5EP/Asv5VqNf5aKGfg/5gIVqpujFror6mFvDAXc9ZeAtqzd1IxuQqiXTVGGYorQjvE+BnCNpEkwe9GjwS8dt8JmGX5yqU1Me7JbrBHfFJLFO0tybadCmh3aZtOUocy2sJC5cw6sn9C8uJm0c3w1pMGKrywctRfeIh85obfgOsR5718oMv5a1bt8zvcIzEKsGVNHKHkE5k1myC4JHcVZlZPJcIEAEiQASIQM0IrCK50xBgsaITFCABSredz+vKeE5dKJ8s2QnQZtNYGGI3zxXU20SCFVyz07Vv52cVELKyvmioVydkOBedZBMLvJqn5UKqa2oB73cG47Gr/NgMuVOJfObVeaObc+ROXmxAY+d2eUEqTsWrL6l09jry0qCcHjUt42WRvpuXM7Ij6uYz2nT7+E5YBe6ZvDuVWded19zw24GdOnfv4yXNvXvPDF/W2IQqeckdPPJOG7n3Se6yZg8/JwJEgAgQASIwRwRI7kju5jjdlvpS81rAk9y1Eo3Ii0wQkjuSuyLzhccSASJABIgAEdgIBFad3GGQLi+jtOw7svuGLJd5CqK5LtS50PC4EEacb2wF1M4d6kX9rhQJ0YSGKUlXZ/RNWtuH8FAV/lll5w71urrMLidC4HKm0s+D4TodMy9yZ8J/dcp+mYPa3mBeWjbs2um5gNA9V6BrQ5hfUqkSlom+u/T/YTDm5D8Qnpl3fhoTc9lhdHXsib3EsQ7LrHvnTkv6arFFyL57MAYutBT38d27d0uGZXLnLhttHkEEiAARIAJEYA0QWAdyp4cBC2OQvTwF6zPsoqQlM9H1VLFg0OGRfttQr9Y37Yl2aA/+XZNShdwhbM2FdRnbCEnkkbe/eTBcp2PmRe6G/X4wHETE6fjoWLzv7HiDsAxBWOZAwNtChhzxR7KVJx/cD60SEHKJMMcmSlrGS9y/CBfNU6AP1KGk6Av6FBLUGsmd356yBvd5+pV0DO7bw8Po/mVYZhU0eS4RIAJEgAgQgTVFgOSO5G5Np3bhbpHckdzlnTQkdxFS1NzlnTU8jggQASJABIjAHBAguSO5m8M0W4lLkNyR3OWdqCR3JHd55wqPIwJEgAgQASIwVwSQlt2l1rZhewehHgghi/vd/bA9JlxwEj6GfxzDKmASPmb0a5KWPG84GfzjkjRrYwnNGoo2rEzB9YtolrTGLut6qFf3b1fp4hAS1hK8XIF+Dz+upIVCIgytP+gn4pwXU1Tgp92/uBAbhUkmxi1p4/7+frmwTBlfm5XUKpzQ352c2kYf12uZN2Wzf2aNUaXPZbyutZZKjZ8RdulQSQxtXt2Vd+5Y7hP8uKKtAVCnCRWeWBJAF1dkPqf1H2OmtX7IJOmsPqB1uxhehJYERhdY0uogawwQThj2Cf2VEFAH5Zbo8fLfk3JurI2wLlGWClJpUyHI15gbSXMlC4ACn5u5EXvORM8U63Ons2VexHSSsD4A1u65AD/FIs+SvM3kzl1epHgcESACRIAIEIE5I+BrsrLIHYifS7MPT7iTszNZtOXzqzo62Bd9zOxU6iB2p5Kyf5mLb8EAYnfQ7aoF+454mUWJXaCpSyI0RnOnTK59Eq1xzsIE2ilNBkZDWUhPksIYw3fBvcyCF/3VNgpZ9g1p7UR/oSNc9hLbnZF5vaWS65jFvfJETO2Ld65/rNZFYiF/6/h2uKDHWEKDV0cBidJWHyenJ8FQCB2Kf+8b7ds4n/atStv8jJfw/zs6OCpVJeZVX3nzQceoX0aVqjTPSXJfXe/W73+JS+NlTGRlciV2BmdC0GziG6u5i56TWSbmebpS5hiSuzKo8RwiQASIABEgAnNAgOQuP8gkd+nefCR3CgGSu8TpQHKX/swhucv/TOaRRIAIEAEiQASIgIcAyV3+KUFyR3LHnbv890vSkSR3JHfVZxFrIAJEgAgQASJABBIR0Hof/Hc3RXPnhwtub88Os5x1sWsJH4TOZ1aB3mhLaWkQ9w7wxgAAIABJREFUpjlUGqVlGT4d/mi0btInV7qdTiyV/HB0IeGS9nMca/RNEw1XnWGZvuYOqeKdzgp4Q2dVthhtlNKCIQS0TMFLhF01V9D/ZdXg6f7F9HgZmjsdwjml1/NAg48ZtHWuxHSdOztiixFZEiDEtizuflgmdJ5uPmBcd42G0mq6/Hk0vo6H+5YZ96RzTBuU4V2+wO7p2jDPMd9d2ZFniNar1dnmWF01hmW2JFR9V/VhDF1kqGv2wzIlnPs8WXNn/T+jedVU/xmW2RSyrJcIEAEiQASIQM0IGHLX8RKqKP+1ffnM6UGMB9NBfg+1NA2ar/U7H1xIwhGrDVrWgkXYQCVFAfE96B6Ezb0cI5mBXWhhsXZ2Du2MXcZm+dxpnIv2XxNwc91edN0idfnj67e5SF3++A4vhqL9qkdXVqQdhY4tsoCXYd3K6bXotwFj1FNzA7ox+OC5YohwSYLukzto+fIma8E1y5LKIjib+yjFPD2trtZueb1ekTZOHVtkbmRcCP6W2uMS5E0nRSmiuavUpwInk9wVAIuHEgEiQASIABFYJAIkd/nRJ7nLjxXJXTJWJHckdyR3+Z8lPJIIEAEiQASIABEogADe9Hc6UQZI81ZZWSGYXSE5BgXhT7BRyJuJ0d+50+fVvXOXt02IDdPZ7gtAFYDcIVudK9ht0zYSeucOuyU9SWGetnPXbrejuhTORdqEY/2du57sBOTdrdHX8se36M5d2vhy5y5C2mQlVXOjLdkjb9S4c6dtBmDBkXcuYNeu7I5hkTmLEFV9H2WeGzkDmJDMw/1ymTYzr5N2AHfuEgLsK6HKk4kAESACRIAIEIG6EbDat2j15KcW18TBhO3tFwzLnISXmRT9QoYcAaiT3HX22qJ9i4hSGkYj0fb1Sqbo9zVK+6K52+/uhZc7lRTmTjeIY4ejQSK5Aw6aDBWxQvD7p0M6bTgoSGVxHY4/vr5OMH3tmz6+K0Hu0EFFJK7hPaZ9DGGToN8MlBWOyWU04QIZ0y9UioRlWu/FSIMGjd3gQvspdnJ7yhl9rOoTiJ7WCdb17MF18nqx4fnU2pH+TcYFf89FY+d3luSO5K6uG4D1EAEiQASIABGYJwK1kjvxdXNJNHziUCe563b2hDhGJCsNrzr99fzrnpyehroyLF5Hl15CFeXPNUXQlJ9g0fGeJncVNHeKvBcld5r4r2RYpge873O3demRu6IDlXA8yAp271wpSu70udi1xa6gK9DTat+7Ik02u34lXhIUuUbWsYbcCXnNvzOfVWPJz0nuSO5KTh2eRgSIABEgAkRgoQiQ3OWHn+QuwiqLvK/Mzp0afpI7krtwOpDckdzl/2rgkUSACBABIkAElgcBvCVvtaIwL9gkuDf/SENeRHOHHYixaM9QtmVxpM/dkrp2EPY2KUPJPIhdtTzFpNnfic5tScbPVgsp3rPLWELrLoajxAMv5fOkkLGs65qwzEndCD2Drug6sP0HFv2UnTuNc3Yv4kf4O3dGc1dix8Uf3yI7d/65mEfdbqTlvJJdL2itXEFYYt7QvKJ41Ha8hGQagjcpW2OELVaIxUxoGOYV7g9Xil5BRZIGF5IdcygWHK7stfOHZfrNQ1imHqMycyrPWJgQZR0Pq0+Szml7jjz1NXIMyN2ORlr+W/9Z4KLMllkALB5KBIgAESACRIAI1IuADusqaoWQZqPQHwyC+089FTa2JWFp2DXMU9riE3V0ENk3XFxcGE+5PMUPF/TPOe2dJ5LMrOueqzBU35LAkDv5PKlUCZ9bBisEf24YnFMsNgaie1xK37s8k6jmY/y5sS/2GngRkqeAyJ2cnoSH+jvveerIc4wNMx4l+lbmqSPpGHjVuaRNVeqZ57n+rm6Ra5PcFUGLxxIBIkAEiAARIAK1IkByF8FJcpc8tUjuyt92JHckd/S5K3//8EwiQASIABEgAkSgAAIkdyR3eaYLyV0elGYfQ3JHckdyV/7+4ZlEgAgQASJABIhAAQSgv9uWsCkULOARLgZ91ayClO7aYystLHNwMQwenkThZPZc66eHgl0yrcnT10M7dpQWCiGZucMy5Rram87vx/gqOU171nW1rx/0SdC+Oc3SlXiIjUbJWj+Nc4HhMYfui0/h7iQdvn/dInX544sF57mk1k8qCKVzaelJ7oogHT8W+sORaOVcwb3g7rmsWmF5ocNbdyQctqkQR2gmjV1CzQVzKOmZUvOl6qsOGjz1DJKHY24NnjlUaSwx3u5vY3DfOxWrDIuzuQfPo3Bu6HgRhu4KPs/rY1il85AX1j/yVVrEc4kAESACRIAIEIHKCNjFf7LPHby6oCdxJY3cZVkSQFMHgjer+ObahcidpwXz60/zm8u6riZ3ZpF2Xs6SoOhA6d3VKtf1x7eITpDkruioJR+P+ayToqTVDG0jxp9lsQhcI8GTJnspzQFB0+N7587doCMvaFBA1s8kMZPzqcwid+fyAmke2lWSu8XOL16dCBABIkAEiEAjCJDcXYqHmHqL7u0YktxFxJ8JVcrfgiR35bFb1Jkkd4tCntclAkSACBABIkAESiNAckdypydPmh6T5K70bWZCjLlzVx6/RZxJcrcI1HlNIkAEiAARIAJEoDIC1vPOGjwhhXm73Q7rrBKW2RZtnw7DvBaNWpIPGvy3pnbQlA4lrZNZVggmLFNp/3RdWdeF1cFILA9suZ5LuJQZB6PZcTrIatfV44vQMO1N5+PaFLnb2d0JWp1O4jCOxEZjLL6I61qgoRrL/M9ToFXTOtc85/CY+hEoQu6gv4XfpisIZddjuCvz3xUTCi6hl674mjsdlonnpfHWbMKL0TzRWIgAESACRIAIEIG1RsDX+1Qhd93OniQGifR6OsTRB9E3167T507rBIteF+RuHvqXZZlUTZG73bYYoB8dJnazf3oWXKYY0S8LPmzH5iBQhNyloWK0q4dReLPV3OUnd2dnpyR3mzPt2FMiQASIABEgAvUiQHIXz9JJcleP5o7krt77lLU1jwDJXfMY8wpEgAgQASJABIhAwwggfNFlecOlEF6E3TtXdIgj0p3DRsGl/Eb44tn5IDy2s9cOOrJj48pAwot0SKAONcrauTPp2hNiiJoMyxyIbQBCNzeldCXDn7Ov8Md3SnPnzY2LwUViyOeOZEntHB4kwjg46wXjUYRzE2FomzKG695PbTnQ5DypQu50G/Hf+/v74XNyeudOXijJs9EV2CRoj7xer5kMvcyWue53CvtHBIgAESACREAQ2ML/VPrvNqwQfHJnNHrW1+lQ2ShAY4LjXen1ekL2okyUt46PpS6r58OiDGGabnGWRe4sMZxNskBIu6KrSypFrRB04otreORtkDIFY+oWpn6yHZ9Em5BdNd4dWcDCk21WAam/GEYLWP+YvXYn1ChhTiBME9izEAGNAOZkp9sJ56iZV/JSoYlShdx1RF9qta72WTeQ8O7Ysy4WlplM7nB+U553JHdNzBrWSQSIABEgAkRgyREoQu78xf/Jo0fByelp2MN7d+6If5dNqoGFzpl6I51F7tLCI7N8waqQuyUfnkabV5Tc7R8dBS2VjEc3zt+t8Bu+LzvAzrT9WpKP9E5EZyS/WYiAT+72xS/TvYDAc2PQT35pUAW9KuQOO3URuaPPXZVx4LlEgAgQASJABIhAjQiQ3NUI5opVRXK3YgO2Ac01IY4kd7WMNHfuaoGRlRABIkAEiAARWC0EWrutoCWWBq4g/NG9kUbKdq25w7Hdbjc8ti9v1PuS4t6VI8kY1xLtFQpC7noSmnQlqflR/J27odggwBvMFfx3Ugp/hIPq8EAfYd1m/zNct69MzEejkVgfjFZrkBpqrQmB24tC4LCzpse3I6GU0GS6si/ju9uKbDR0sxBSq3VF0PPhx5XtLVg/WDsO2dYNLi+GjeRpx45xkzqthoZio6vFPNGhwrt4hripIs+RS6XVxPNEh/PqcwFimg2ID7LZuZtcx3zm5meO0cAzM5rf17GQcjxj9DMnywqhSJtzNC08hOSuCFo8lggQASJABIjAmiJQJVW+tkIwYZnnUaIAQ+4UySpi+pwFtW7zTHInehiWbASmMqlKiC20Ra7YULToRUBajXtCGvHjyoPPf17C6/rmTyyKj2/dipG/7NblO2I8Ej+y0Lcw3zk8arEIQGOn9Ws6nNsPBR/KS4HhUF4MTIp/7nkv0r4V7dU1vOo02UupoN/vhRYqePl0794zQ00prRCKIs/jiQARIAJEgAgQgcYQILlrDNqlr5jkbumHaC0bSHJHn7u1nNjsFBEgAkSACBCBZUCA5G4ZRmExbSC5Wwzum35VkjuSu02/B9h/IkAEiAARIAKNIWC1JBKeJMUm3DgIoL1DyUqVb8IyJ3YGSO8NzV2UHnwUnIunnCsInavLX0632Qfm6mocQAPDko0AwiVbSlMHvZ0Oy+x2D0JNZVZtfljmUNLZX0laezevMGbaKyyrvryfY95dj6MsnFfy35ukwcM9GlqdiNMEwqFd/zG+Owg9nBRg05TeK+944bg0coc2t9Wc9MfSn0P6c2jz0P+kEsMK8ZgthY3Mo7Rz7XWslQfagHsl9AM1mrteeNkL6ItTfO4QZtrEHKXmrsgs5LFEgAgQASJABDYAgaLZFM9F2+YWRLOsEGB3wLI6CBiDe6WbK6a5889VVgiyMB5JIp4mFrQ+upfDkZDKzbFcSNOggczgc1d8/dqiZmYaufPbZLwXVZIfrfM1vpwHh7ltFPR1we224Fs3SapiNMLKw9NvB60QFjVbeF0iQASIABEgAkSgNAIkd6WhW4sTSe5WbxhJ7kju3Kzlzt3q3b9sMREgAkSACBCBRhEguWsU3qWvnORu6YdoqoEkdyR3JHerd9+yxUSACBABIkAE5oaATVFu84MbzV1nP7y2WfxLmJQrOkQKflTnxufO6lKu5e9l0PfMDbg1uBC0lzvwApuUfdFfupT1Wd2zmjvlkRc7d8voqJxGCTq5cUO6yGto8OwUnCr4bHxpdYDrUmKhhtDcTTSw6B/wRtp+V1YhLHMsmlltfWDCMvUzR4WC+xphaA93d6zv5qwylmeSzA7zkXnCyfGubInOeCftXMEVzzSUK3h69mD7ojw95dnniq+50zrIJucdd+6aRJd1EwEiQASIABFYAwSmsimm6F+gp+opn7s16P7Gd6Ga5i7yyMPC+VAM0fHbLI4l0cpIkk7Mu0CLB03eOpUYucvo2CqQO6N9U1rdLHJ3uB/t3PkJoHw4+sNBcCnkcVaBnyNeZiQVvLiCnx2K0RefaXInyaOUXs83MZ/XfCO5mxfSvA4RIAJEgAgQgRVFgORuRQeupmaT3NUEZIPVkNyR3LnpRXLX4I3GqokAESACRIAIrAMCCHHqdLphV9LCMvE2+1zSgc8jI+I6YLsKfeh2sfuWHOam09Kn6fVK7dxNshia9PMJYZZFMVzHnbu9zl5sjNLsJlZ1505bI+gMvbBsgXWL63Pmzt3oItGOpejOHcIyEV6MYjNtRmGZwyGsEOa/M01yV/SJwOOJABEgAkSACGwYAluiTAk9tKTvbU//0lc+d1iAQ3fHsj4IYNGcRBZMmn2f+CfYKBQld7vtdrA90YrhZcGlLJTremmg67kS/d2qa/AuhEjA2xEFHnG3bt02v2eVVSR3/hycskJAWOZEO4eXUfvyQiKpmLBMpUnUx1lyl3wuwi6TwzLj5A5zrK75WuRpQnJXBC0eSwSIABEgAkSACEyTO5XcgPBsFgJml0RplOrcuWtJYhZN7pryyBuPQO6STa9XYUThJem8JoHZ3Tt3Y0lUdB9Wkdz5Y5Dmc+cngPLPTSd38fk8dV2jubNzxWruTkMCB9KX5pE3r3lEcjcvpHkdIkAEiAARIAJrgsDUzh3J3ZqMbPFukNwVx6yJM0juPM2dyu5LctfEjGOdRIAIEAEiQASIwNog0JLQpVarFfYHIWG0O1ib4S3UEaTYh/2BK2lWCAgTPDiIsmXCqwC2BEllC2GFSnN3LVkuXTEhb+pcE7aXEIaI6zhdlDlfjtUhi+PRpVgyzN65g8wvrY2FwGrwYH0Pbkt44uHhUSyUWl/66nIx9iTPfs5zAvy48pk//MOgJztfKGYXzNgKWGGlny0T46fDvfv9fhgeiXBfo7mbhGW2dlpBtxtphH3Y+xfJYZl4rkFjmlQQgj6a2HeYzMBKc4dnIDJkLrpw527RI8DrEwEiQASIABEgAkRgTRBID8sE6YjIXZHkFVl6vR1ZlO+qFw4aTizCdUgnwhYR8unKpSzWk/z2rNZvtBDtVNkpkWVH4u+8l71O0fMee/xNwWOPf1d42tve8reCX//gB3KRO+MZJy+RXNE7ldbnrkC2zIEQw0TNXfmwzKJ4NHU8yV1TyLJeIkAEiAARIAJEgAhsGAIkd4sfcJK7jIQqJHeLn6RsAREgAkSACBABIkAEiMDyI0Byt/gxIrkjuavJNWTxk5ktIAJEgAgQASJABIgAEVgcAkiwoj3xut0D0WdajzyjjRLNHTRhKFlhmX4q+SvRNLkCzRzOd8Ucm2KEty12Hk6/5x9rrD5CbZ9YeUg2RJ3C3tgkTLRg+Hf45C1zMWGoo2FiKOkOxkjsAuZdXvq1Lw/+/Ze/IrzsP/vlXwr+6A9+3/ydpbnLCststdoYxcm8Sid38Mgb12SFMBwm4zxvfN31GJa5KOR5XSJABIgAESACRIAIrDkC8AxzJAwEKq65S9c3wWLBnQsPtwdPPhl6uSFxy7F4ubmCRBZJySx8vZ5NWR+ZTdskMFFSmJHouzSR1EO0jgboi5qCnW4nfBFQhdz57cfLhW5atsyU7L5+9le/bswbZ4WwKNyyrktyl4UQPycCRIAIEAEiQASIABEohQDJXSnYNuIkkrtmhpnkrhlcWSsRIAJEgAgQASJABDYeAZK7jZ8CiQCQ3DUzN0jumsGVtRIBIkAEiAARIAJEYOMR2BFtl9PYzdbcJXuK2bBMpw2L6+KMR57S2BlNVoLHmH9d/A1/PlfgW3Yp2ilX4OOoffD0IFp/vShdBcI3F6HB2223g912pDmE1YPRBs4o2zvbQVuOd+VSPP2WIbTw6175yuDZX/iFplkX0v5//k/+32AgmSxRjM+deMq5AhsEjLEr2goBY4LPnU4S4b+Yd0kFejutqdTH4VytGfXrQLuSzl2Wm53kbllGgu0gAkSACBABIkAEiMAaI1Bcc6f1etsxvZ6vm7Oau2jx7y/Y0/z1YKTtzLRxHkglCF6eMh6NhVTNNkDPc37ZY9qiV9vbj4y6+6dnQlBHM6sDWcEumSvDi2GARCCLLn/5ta8NXviiF5lm9M7Ogv/tiZ80v1Fmkjvlcwfi5whqVnbQRfdz3tcnuZs34rweESACRIAIEAEiQAQ2EAGSu/oGneSO5C5pNpHc1XefsSYiQASIABEgAkSACBCBBARA7mCF4GwHrBVCvrBMhEnac7cnOzvxjJd+WKa2NpgmlbjuQdhK7Nqd9+yOEcp+N9oxzBpMhEKOJcxxHkX3qdXdC9qdaDducNZLbMfO7k7QUcdi1w67d/Mu7fZe0FKhpN/0rX8h+BPPf55pxnmvF/yjd/20+Y3Cnbvyo0NyVx47nkkEiAARIAJEgAgQASJQAAGtZStC7iI7A+tlZhb/ys7AJ3edTjfUTmWRu5GQHa25w/GaSKV2z2j/ojIeXopdQ/0+eDviFdg5iAjp6HJovOxc2Wt3EnVmsPDT/bnoD4Kh/My7/Cd/7TXBX3r1q8PL/tj/9KPBR/7lvzR/I7RyLBYVTs9Gcld+dEjuymPHM4kAESACRIAIEAEiQARKIpDlKZaWadNq7lTCDU9zl56lM75zdykJVcbyU0eB7q2JBCtIntI9Ogyb6Pv6aU/ArH5cnPcXQu4ee/xNwWOPf1fYvLe8+XuCD73vfeZvkM/9g/2QhJLcZY1i8uckd+Wx45lEgAgQASJABIgAESACJREgucsPHMmdZMtkQpVcE4bkLhdMPIgIEAEiQASIABEgAkSgTgRgR7C3F+nG/Lq1FUKkuZsdlon09mOxJXClK7q5VstmvLRav6OYJYO2QgjE2uC6plBK6O+0VYLukzFvUDYKRbDMInfAMS39v74W2qh3Kq9EN6jT+2tsbty8GTzvBS8IT/93n/lMgJ9ZBXi/6MteHOrqTh4+HXzi478bHsqduyIjXv5Ykrvy2PFMIkAEiAARIAJEgAgQgYYQKBKWube3FyOK8XPjNgoIaTx5+CBsNYhRJ4Vk1tU9hGsm2RVkXSOL3GWdrz9HfzWp1jYKfnjkf/B1Xx+89e0/Ep7+xDv+bvDEO35s5uXu3L0X/PjPvDu4e++e+fxD7/uV4C1v/l6SuyKDU8OxJHc1gMgqiAARIAJEgAgQASJABOpFgOQuwpPkjmGZee8ukru8SPE4IkAEiAARIAJEgAgQgbkhQHJHcucQgN6Omrt8tx7JXT6ceBQRIAJEgAgQASJABIjAHBFotdqiI7O+drBCgM/d9rbV3I1EN9bvW080FBtquBf+3e0eiOZuN3au88i7vpbwSJUdc0c89LYn/nlNdg+6NujbyhRYIewpT0A/W+ZI+oN+5SnAqi3WCWGB5k5rDi3Epjz3+S8IvulV3xL+DR+63sSLzr8WQjqPjm7IGNkx+/QnPxH84s/94/AwX3OHz3AMyqDfD97/T/9JMBj0zd/MlplnJGcfQ3JXHjueSQSIABEgAkSACBABIjAHBHyvOt8KIV1ztxUcHkYG6NZfL/KMq9MKoSkotiX5TEuRV5/cwfMPhChP8bHqCtHb3d4xp4KAnomhu0uwYjKaSnIaV17z2OuD17zuDTMv89ST94M3/rW/Gjx5//7Mz31ypw968NRTwfe94a8HD558kuQuzyCmHENyVxFAnk4EiAARIAJEgAgQASLQLAI24yUIWpQt0+3y4MpZ5M7u+tkdJWSV7IrJuStjIUX4mUuZtH/CpNIvqY5F23fb7fD4aXJ3LuQun1ff1C6nR+56QhSdEbtP7v7Kt702wI8rex0hhkIAUR4KQfve1z8WPHgqImjYkXPFJ3cYv/FkJ/PhgwfBD3zvm0wdKEV37s5lF1dn/JzLWC7pRUjulnRg2CwiQASIABEgAkSACBCBCAFHzixBi9soZJG7w8MjE9qJMhoOg7PTR2HFbSFNbQkBbbpg900TNNgRJJFKkNhd2alzZBbHDS4ionRxIRo0yfrpCgzdK5E7IbwoZufuXO3cyb/rnbs7d+4G+HHle3/gLcFLvvprzJ+worj/uc/Jb0uUf+vDHw5+5IfeFh7rk7v/+UfeHvz2b/6m+Rxk7g/+4NPh7qMhdwNtUh/X3PX70t/JdcRhQtws8oWkNj3Gy1A/yd0yjALbQASIABEgAkSACBABIpAbAd8AfRWsEPzQyrRwUJC6luyKRTuVowChl67YnbsLRe4qhmUmkTuEZXaisMy9NiwnIm0jbBJglzCrZFkhvO0tfyv49Q9+wJzqh4NmkjshfnnDUHNPqjU5kORuTQaS3SACRIAIEAEiQASIwKYgQHJHckdyN/tuJ7nblKcg+0kEiAARIAJEgAgQgRVGAKGYbicri9zpbJmSazPYxc7UJAvk2Mu0iaycTYVlmlBSp52T31sT3Z8ZBslQmaYT2zKZQp3G0N+5i4dlIkwRGTPzlKmEKntdwSdKqDKQXcFYQpWSO3e/89v/KviJ/+XvhE368q/66uAlX2NDOFHe9fd/PPg3H/sd89/cucszcvmOIbnLhxOPIgJEgAgQASJABIgAEVgQAn62zCxyh2yYyIppOdTYZGHEbxT8+4HKltlUl7JCK21iE2VJoBoCW4OzM2jfrJbMzw5aJSyzjdBK+XEFmjqXFMXHwuBcktz5dT3xjr8bPPGOHwv/udONkrGQ3NU3C0nu6sOSNREBIkAEiAARIAJEgAg0gADJHXbudIKR8mGZJHcNTNAlqpLkbokGg00hAkSACBABIkAEiAARmEaA5I7k7mIYJZDpM6FK4mOC5I5PUCJABIgAESACRIAIEIGlRqAKubsWbdvpo5MAv1F2JNSwo4y5Uzsu1gBFPPCQETPU1cm5oqqT0Ep7BYRW9sWPzRWEZLbFY25WQThmz5iJ2zaPPJ2gb4UwFHsH502XNZDw+TMaxEnpdrtBaxLC6p+LsMyuCsvsSKZMWEe48k2v+tbguc9/ftYlzee/8Wu/GvwL+QnLRAOJvxGWaf31LFiXY2ClrB+E2OnsoKPL/P3N1bg1Oojkbo0Gk10hAkSACBABIkAEiMA6IlCJ3AlxGA2iJCG+JUEaXiAd+twsbFtCflC/JSzpujk/sYmu254LY+58mrusdqV9DvKWqrlTRNhYIeTU62W16RxedRPzeN9fb5aJ+VDt3GXVvcmfk9xt8uiz70SACBABIkAEiAARWAEESO7SwzKrDCHJXRX0lu9ckrvlGxO2iAgQASJABIgAESACREAhQHJHcsedu3yPBJK7fDjxKCJABIgAESACRIAIEIEFIoDQwcjnrhXs7++HrbG2AlF6f9/nDj527lxYIoxE/5avbBkPvOjcq2Cs/OQQggkNnyvwmru6tpYL0I+l6eb8Nuv2QD/X60Vhmb7mbjwe59bYZfXT+gfCU2+6TFkhCMY6LNPo9Xas5UTRcq6SolxBYyiau2uluTtXmjuMWV5NYdF2rNvxJHfrNqLsDxEgAkSACBABIkAE1hyBbJ876Mgs6QBxOTw8DAmM9YyLEpukQeWfeyWkanQRZW3cabWCXflxBfWifpQs3Vy25g4JVSYJRkybIyuEeQ2vn1DFaO4UiYYHXpJeL6uNmtzN8rlDRkyW4giQ3BXHjGcQASJABIgAESACRIAILBABkrv5gE9yNx+c67wKyV2daLIuIkAEiAARIAJEgAgQgcYRMKRDZ3H0wjL39w/CHaVad+4kPPByGIV0IiRTh2XGd+5sWKYLJzQZINWOYVpYprEG8M7tS3b68AeGAAAFQUlEQVTJeRdYJnQ63fCyZrfRz5apbBWKtM/fubNWCDY76Hh8GfQHkRVCkXo3/ViSu02fAew/ESACRIAIEAEiQARWDAFo4JwODk33iVKc3G0FBwdHwfa2NVbzSVZa13ENfS484jTZQZKP0WgYVoHQSReW6WvuipA7/1yQPReiOc+hEpTFty8ypGs3aIXQO4/CUBfV33li29S1SO6aQpb1EgEiQASIABEgAkSACMwFAV+/hmQrkeZua4bmLt8u2HSWTiRyOQj7dHExEHPtgSJ30Nxdmr8jn7vZurkimru5gJjjIvMidzmawkMSECC549QgAkSACBABIkAEiAARWGkESO7mM3wkd/PBucpVSO6qoMdziQARIAJEgAgQASJABBaOQEsyVrbEssAVvXOHcMyDAz9bZr6dO/9c7Aam79xFYZnYuYOdQaQjG8d2+fw2axARljgQzdkiQjHTBrMl/Ue7XYHusWy2TGgIo11O6a/sgC5bfxc+sUs0gOSuBGg8hQgQASJABIgAESACRGB5EWguLHN3BrmLrBFsQpXZYZnLi1b5lnUrWCHA6sBhVb4FPNNHgOSOc4IIEAEiQASIABEgAkRgrRAguZvPcJLczQfnIlchuSuCFo8lAkSACBABIkAEiAARWHoESO7mM0Qkd/PBuchVSO6KoMVjiQARIAJEgAgQASJABJYeAejvtre3TTvr1NxBb6b99S4uLmI6OujIRiPng3cdDIfDtdaRQYPncC46KUaXo1CPWPRcHp+MAMkdZwcRIAJEgAgQASJABIjA2iLg2xnAhw5+dHnKtBVCfs1dnvp5DBGoGwGSu7oRZX1EgAgQASJABIgAESACS4MAyd3SDAUbMgcESO7mADIvQQSIABEgAkSACBABIrAYBEjuFoM7r7oYBEjuFoM7r0oEiAARIAJEgAgQASIwJwTgxQaShwLfufF4nPvK+lzrc7cfnutr7pDan15tuaHlgQ0gQHLXAKiskggQASJABIgAESACRGD9EADRmzYxj3zu1q/H7NGqIUByt2ojxvYSASJABIgAESACRIAILAQBkruFwM6LFkCA5K4AWDyUCBABIkAEiAARIAJEYHMRALnTVgjDIawQuHO3uTNi+XpOcrd8Y8IWEQEiQASIABEgAkSACCwlAlvGN88V6OuosVvKgdrYRpHcbezQs+NEgAgQASJABIgAESACRIAIrBMCJHfrNJrsCxEgAkSACBABIkAEiAARIAIbiwDJ3cYOPTtOBIgAESACRIAIEAEiQASIwDohQHK3TqPJvhABIkAEiAARIAJEgAgQASKwsQiQ3G3s0LPjRIAIEAEiQASIABEgAkSACKwTAiR36zSa7AsRIAJEgAgQASJABIgAESACG4sAyd3GDj07TgSIABEgAkSACBABIkAEiMA6IUByt06jyb4QASJABIgAESACRIAIEAEisLEIkNxt7NCz40SACBABIkAEiAARIAJEgAisEwIkd+s0muwLESACRIAIEAEiQASIABEgAhuLAMndxg49O04EiAARIAJEgAgQASJABIjAOiFAcrdOo8m+EAEiQASIABEgAkSACBABIrCxCJDcbezQs+NEgAgQASJABIgAESACRIAIrBMCJHfrNJrsCxEgAkSACBABIkAEiAARIAIbiwDJ3cYOPTtOBIgAESACRIAIEAEiQASIwDohQHK3TqPJvhABIkAEiAARIAJEgAgQASKwsQiQ3G3s0LPjRIAIEAEiQASIABEgAkSACKwTAiR36zSa7AsRIAJEgAgQASJABIgAESACG4vA/w/iHSe+TS0YFwAAAABJRU5ErkJggg==;" parent="iJsYBSRhtJNTG5tVJpyb-20" vertex="1">
          <mxGeometry x="228.14" y="25" width="197.74" height="140" as="geometry" />
        </mxCell>
        <mxCell id="3L-2WKxO310W-JA4WiVi-8" value="" style="edgeStyle=orthogonalEdgeStyle;rounded=0;orthogonalLoop=1;jettySize=auto;html=1;" edge="1" parent="1" source="iJsYBSRhtJNTG5tVJpyb-25" target="3L-2WKxO310W-JA4WiVi-7">
          <mxGeometry relative="1" as="geometry" />
        </mxCell>
        <mxCell id="iJsYBSRhtJNTG5tVJpyb-25" value="Methane Liquifier" style="shape=process;whiteSpace=wrap;html=1;backgroundOutline=1;fillColor=#ffe6cc;strokeColor=#d79b00;" parent="1" vertex="1">
          <mxGeometry x="100" y="490" width="120" height="60" as="geometry" />
        </mxCell>
        <mxCell id="pbiRxgmzWkfBwBTZQI0s-14" value="" style="edgeStyle=orthogonalEdgeStyle;rounded=0;orthogonalLoop=1;jettySize=auto;html=1;" parent="1" source="pbiRxgmzWkfBwBTZQI0s-9" target="pbiRxgmzWkfBwBTZQI0s-13" edge="1">
          <mxGeometry relative="1" as="geometry" />
        </mxCell>
        <mxCell id="pbiRxgmzWkfBwBTZQI0s-9" value="Concrete Press" style="shape=process;whiteSpace=wrap;html=1;backgroundOutline=1;fillColor=#ffe6cc;strokeColor=#d79b00;" parent="1" vertex="1">
          <mxGeometry x="860" y="500" width="120" height="60" as="geometry" />
        </mxCell>
        <mxCell id="pbiRxgmzWkfBwBTZQI0s-40" style="edgeStyle=orthogonalEdgeStyle;rounded=0;orthogonalLoop=1;jettySize=auto;html=1;exitX=0;exitY=0.25;exitDx=0;exitDy=0;entryX=1;entryY=0.75;entryDx=0;entryDy=0;" parent="1" source="pbiRxgmzWkfBwBTZQI0s-13" target="3AthHkXCR67KAWAovLi--43" edge="1">
          <mxGeometry relative="1" as="geometry" />
        </mxCell>
        <mxCell id="pbiRxgmzWkfBwBTZQI0s-13" value="Makeshift Concrete" style="rounded=0;whiteSpace=wrap;html=1;fillColor=#f5f5f5;fontColor=#333333;strokeColor=#666666;" parent="1" vertex="1">
          <mxGeometry x="860" y="610" width="120" height="60" as="geometry" />
        </mxCell>
        <mxCell id="3L-2WKxO310W-JA4WiVi-3" value="" style="edgeStyle=orthogonalEdgeStyle;rounded=0;orthogonalLoop=1;jettySize=auto;html=1;" edge="1" parent="1" source="pbiRxgmzWkfBwBTZQI0s-18" target="3L-2WKxO310W-JA4WiVi-2">
          <mxGeometry relative="1" as="geometry" />
        </mxCell>
        <mxCell id="pbiRxgmzWkfBwBTZQI0s-18" value="Neptunium" style="rounded=0;whiteSpace=wrap;html=1;" parent="1" vertex="1">
          <mxGeometry x="1200" y="490" width="120" height="60" as="geometry" />
        </mxCell>
        <mxCell id="pbiRxgmzWkfBwBTZQI0s-21" value="" style="shape=image;verticalLabelPosition=bottom;labelBackgroundColor=default;verticalAlign=top;aspect=fixed;imageAspect=0;image=data:image/png,iVBORw0KGgoAAAANSUhEUgAAACAAAAAgCAYAAABzenr0AAAAAXNSR0IArs4c6QAAAXVJREFUWIXllrFqAkEQhvdsUwoxRcBCkSD2R7rDJ/A58gY+gW/gWwg+gdgFayWEEAvBQoWUqU216+7szOzs7SoBfzg4deb+z9nZvVHq3lVIA1cfx7P9uey3xLnJANA8J0TwAZR5Lgg2ebZYo+bPT4/ZIMhEyjw3BJr083smzZerDQrRbbtAzYdCBOQF6TWHD7wWhBMAG+4WEA19M5nOvbJ/705kYlUOzP3+cImDOdxyGgBtvli+ewEchK394WQuKA6isAG0htWr2JSSXSEtbDkaXpTCKxFjrpTbI1pYJVCAEAQ0r8qBuWIhSAAKAprDA0kC4QGM30bkVrEhKHPYqDEQjjG2FbV6Lx3vO/jv4RkAjTWY3YzOEnCV+PrcUj8Z1amE1wMxENhOiIVAm/DaEEGAW0IE31YxjQmbEhOcG9hzQKn0xuTMRQC5IKiJSQSQCsGNa2KAuhChWbHWIMk1pi0OOAlAAiExTwLgIKTmyQAYRIz5v9AfKrDU9+tewooAAAAASUVORK5CYII=;" parent="1" vertex="1">
          <mxGeometry x="2570" y="40" width="32" height="32" as="geometry" />
        </mxCell>
        <mxCell id="pbiRxgmzWkfBwBTZQI0s-30" value="" style="shape=image;verticalLabelPosition=bottom;labelBackgroundColor=default;verticalAlign=top;aspect=fixed;imageAspect=0;image=data:image/png,iVBORw0KGgoAAAANSUhEUgAAACAAAAAgCAYAAABzenr0AAAAAXNSR0IArs4c6QAAAZZJREFUWIXVl7FKA0EQhidibSd2ItikCN4bCBaCYGFrE9/AysJnsPAlksY2hSBYCL5BgoWNEOzELi8QC9ljd+6f2Zk5UziQ4vb+m/+72d25DdF/jvXj5bpvjsFfmA/OH8J5Qg+iN49CuB/Syh6B2OpjPn//VO9bwkysmTfD/TKpoxIm4eR61JofHexATRSiKsrNNwFRXQPP8+/O2GK5gtrImjAtwk1CVEs0Pt5rE0xuT0ymRPbpcG3Dq7sXOM7NEJRUCRUgf3siuQISBA8EIQJ4zK0QaBq2I+ZaE/KYE4EKeMxRoN2h9YMCoK+5BKFtxXYKuPnNxaHZUIJohiUEqgRchKfNrtho+oRrFxDJ3c4a06e3KkS1ES2Wq85Pi/HZqLhG05hDQADU+zmUZpAg0ldTg2gBpq9fxQLxQvA2XatE0hcViELczz6KpCl4k0oQua4zBV6IZJ6iBsHvwzVghZDGJQgOKwJYIPg113MIbp70rgMJ0W+T0sxRO+cwud50cuVJpWQRvfn8jpIic6/e9VcqT6qZe/Q/9HkZzdRonMEAAAAASUVORK5CYII=;" parent="1" vertex="1">
          <mxGeometry x="2610" y="40" width="32" height="32" as="geometry" />
        </mxCell>
        <mxCell id="pbiRxgmzWkfBwBTZQI0s-31" value="" style="shape=image;verticalLabelPosition=bottom;labelBackgroundColor=default;verticalAlign=top;aspect=fixed;imageAspect=0;image=data:image/png,iVBORw0KGgoAAAANSUhEUgAAACAAAAAgCAYAAABzenr0AAAAAXNSR0IArs4c6QAAAZZJREFUWIXVl7FKA0EQhidibSd2ItikCN4bCBaCYGFrE9/AysJnsPAlksY2hSBYCL5BgoWNEOzELi8QC9ljd+6f2Zk5UziQ4vb+m/+72d25DdF/jvXj5bpvjsFfmA/OH8J5Qg+iN49CuB/Syh6B2OpjPn//VO9bwkysmTfD/TKpoxIm4eR61JofHexATRSiKsrNNwFRXQPP8+/O2GK5gtrImjAtwk1CVEs0Pt5rE0xuT0ymRPbpcG3Dq7sXOM7NEJRUCRUgf3siuQISBA8EIQJ4zK0QaBq2I+ZaE/KYE4EKeMxRoN2h9YMCoK+5BKFtxXYKuPnNxaHZUIJohiUEqgRchKfNrtho+oRrFxDJ3c4a06e3KkS1ES2Wq85Pi/HZqLhG05hDQADU+zmUZpAg0ldTg2gBpq9fxQLxQvA2XatE0hcViELczz6KpCl4k0oQua4zBV6IZJ6iBsHvwzVghZDGJQgOKwJYIPg113MIbp70rgMJ0W+T0sxRO+cwud50cuVJpWQRvfn8jpIic6/e9VcqT6qZe/Q/9HkZzdRonMEAAAAASUVORK5CYII=;" parent="1" vertex="1">
          <mxGeometry x="2410" y="38" width="32" height="32" as="geometry" />
        </mxCell>
        <mxCell id="pbiRxgmzWkfBwBTZQI0s-32" value="" style="shape=image;verticalLabelPosition=bottom;labelBackgroundColor=default;verticalAlign=top;aspect=fixed;imageAspect=0;image=data:image/png,iVBORw0KGgoAAAANSUhEUgAAACAAAAAgCAYAAABzenr0AAAAAXNSR0IArs4c6QAAAXVJREFUWIXllrFqAkEQhvdsUwoxRcBCkSD2R7rDJ/A58gY+gW/gWwg+gdgFayWEEAvBQoWUqU216+7szOzs7SoBfzg4deb+z9nZvVHq3lVIA1cfx7P9uey3xLnJANA8J0TwAZR5Lgg2ebZYo+bPT4/ZIMhEyjw3BJr083smzZerDQrRbbtAzYdCBOQF6TWHD7wWhBMAG+4WEA19M5nOvbJ/705kYlUOzP3+cImDOdxyGgBtvli+ewEchK394WQuKA6isAG0htWr2JSSXSEtbDkaXpTCKxFjrpTbI1pYJVCAEAQ0r8qBuWIhSAAKAprDA0kC4QGM30bkVrEhKHPYqDEQjjG2FbV6Lx3vO/jv4RkAjTWY3YzOEnCV+PrcUj8Z1amE1wMxENhOiIVAm/DaEEGAW0IE31YxjQmbEhOcG9hzQKn0xuTMRQC5IKiJSQSQCsGNa2KAuhChWbHWIMk1pi0OOAlAAiExTwLgIKTmyQAYRIz5v9AfKrDU9+tewooAAAAASUVORK5CYII=;" parent="1" vertex="1">
          <mxGeometry x="2560" y="160" width="32" height="32" as="geometry" />
        </mxCell>
        <mxCell id="pbiRxgmzWkfBwBTZQI0s-33" value="" style="shape=image;verticalLabelPosition=bottom;labelBackgroundColor=default;verticalAlign=top;aspect=fixed;imageAspect=0;image=data:image/png,iVBORw0KGgoAAAANSUhEUgAAACAAAAAgCAYAAABzenr0AAAAAXNSR0IArs4c6QAAAMtJREFUWIXtlrENgzAQRb9RNgAxXQZIlymyQCqk9DQpU9EzQ+gS6ghmgAoJiLHvjM8p4t9Zsv2efTrLQMy/R+1Z/KjqgTP/9W4X4/PpqJJfwac4CfiCOwn4gjfPhi/gG84SkIADwMEH3FRjExwg3IAUvO8+dgFpuFEgBHxTIBRcKxAS/iXAbbU98Ht5U8CqDSmns22eZrl1jwkOMF9CXR9zM4ezBHTwrbpS4WQBKThZQAruLMBJcb0Yf12iAja4qAAFLiZAhcfExADACAy8niFxJ99zAAAAAElFTkSuQmCC;" parent="1" vertex="1">
          <mxGeometry x="2610" y="160" width="32" height="32" as="geometry" />
        </mxCell>
        <mxCell id="pbiRxgmzWkfBwBTZQI0s-34" value="" style="shape=image;verticalLabelPosition=bottom;labelBackgroundColor=default;verticalAlign=top;aspect=fixed;imageAspect=0;image=data:image/png,iVBORw0KGgoAAAANSUhEUgAAACAAAAAgCAYAAABzenr0AAAAAXNSR0IArs4c6QAAARxJREFUWIXtlUEOgkAMRb/Ec5B4A/bcgbWeUNfcwT0BDkDwHKALg5KZTtspoBv+irDoezNpO8CeP+ewVqFnUTy94mUp1l9FgIJrJRYLcHCNxHFteNs0UTWSf8LNAjHwdhjYWtE9YIVf+p5kRQlY4ecse8OIZlQLNKeT2O0c/AN0JFQ9sBaciiiwJRww7gGps7VwwDCGFvijrm0C7vUvgYckglOggU/AW1WREhQ07Tp5CmLg7vckQ8Hv4+j98wRi4ZyEBCcFLHDgfeI8+ZabA0NwViAWPsWV4OBBASuckpiHepC8RUTB8yRhZ1kT1Wt4TVNv7YZOw8W99hAcEJpwazgr8As4wDxGUvdK0cABYhVTfbAVnBRYKhED3wMAL8z/xL69M4JgAAAAAElFTkSuQmCC;" parent="1" vertex="1">
          <mxGeometry x="2764" y="38" width="32" height="32" as="geometry" />
        </mxCell>
        <mxCell id="pbiRxgmzWkfBwBTZQI0s-35" value="" style="shape=image;verticalLabelPosition=bottom;labelBackgroundColor=default;verticalAlign=top;aspect=fixed;imageAspect=0;image=data:image/png,iVBORw0KGgoAAAANSUhEUgAAACAAAAAgCAYAAABzenr0AAAAAXNSR0IArs4c6QAAASdJREFUWIXlVjEOwjAMbAo7Un/BzmcY8roO/Ux3foHETlUmV8a1L4lJCxK3NW7s89mJ0zQMU4xzszNaGXxrEtJ/sIIe+j5sGZz8B5SxRiKlkEXcSjJbgdLSpMgvCiCjJ3CKyBTjzNegsVZDon4yDbVPg0Wi1Rbvl+tu94HKigiczkdzo6dJNRVWCzJ7SQLV03NEkwQ4CZQ12UpJ2BozPG7PlRIykLdp35oQNd8WV/OKQC5qHlEXgZr4LwJaH31dgax7gNCNg3tQFc2CTxxq/6F/iwhIdZBjK7D0AYeRBV6KEnC/5MNVAs+4lnvo28wkN4imBu0lG/IFpazxMEEkunEIcBh5a42IyO9lUWsQi5g3KPni61AebbM3sIUsBTTkki7Cnq/hn8ELgEPNzTObzuoAAAAASUVORK5CYII=;" parent="1" vertex="1">
          <mxGeometry x="2796" y="280" width="32" height="32" as="geometry" />
        </mxCell>
        <mxCell id="pbiRxgmzWkfBwBTZQI0s-37" value="" style="shape=image;verticalLabelPosition=bottom;labelBackgroundColor=default;verticalAlign=top;aspect=fixed;imageAspect=0;image=data:image/png,iVBORw0KGgoAAAANSUhEUgAAACAAAAAgCAYAAABzenr0AAAAAXNSR0IArs4c6QAAARxJREFUWIXtlUEOgkAMRb/Ec5B4A/bcgbWeUNfcwT0BDkDwHKALg5KZTtspoBv+irDoezNpO8CeP+ewVqFnUTy94mUp1l9FgIJrJRYLcHCNxHFteNs0UTWSf8LNAjHwdhjYWtE9YIVf+p5kRQlY4ecse8OIZlQLNKeT2O0c/AN0JFQ9sBaciiiwJRww7gGps7VwwDCGFvijrm0C7vUvgYckglOggU/AW1WREhQ07Tp5CmLg7vckQ8Hv4+j98wRi4ZyEBCcFLHDgfeI8+ZabA0NwViAWPsWV4OBBASuckpiHepC8RUTB8yRhZ1kT1Wt4TVNv7YZOw8W99hAcEJpwazgr8As4wDxGUvdK0cABYhVTfbAVnBRYKhED3wMAL8z/xL69M4JgAAAAAElFTkSuQmCC;" parent="1" vertex="1">
          <mxGeometry x="2740" y="160" width="32" height="32" as="geometry" />
        </mxCell>
        <mxCell id="pbiRxgmzWkfBwBTZQI0s-38" value="" style="shape=image;verticalLabelPosition=bottom;labelBackgroundColor=default;verticalAlign=top;aspect=fixed;imageAspect=0;image=data:image/png,iVBORw0KGgoAAAANSUhEUgAAACAAAAAgCAYAAABzenr0AAAAAXNSR0IArs4c6QAAAY5JREFUWIXllz9KQ0EQxr/kEiJikSLGYGdnE0NADyB2ljZiQNscwVYhYmNpJx5AIUQbOzuJMYWFiHgKrTa8t/NnZ9+uIDjVvmV2v9/Ozgz7gP9uNavj2fPbNzd/tNYw71EZQBLPARFcGBJPhVAXWcVTIMQFu8PLoHin20uGYJ0t4rkgiGOMeA6IklP/5pYVb7dXydx4dFf6XlhcJj7Dne0gRN0NNo4H4sknkxcy1+1tlb6/Pt+Jj3SgotV88fVNGk5nvxEJApADgrPr/j4LwQIAwN7BYXDTHBB1zhEAri7OowD8nOCMqzAxAs5SIxEq0flAg7DmhHQNGsT8Ch5PT8RMfbofiQCuRLUceBjL60s5UBWCC7t/agmCJGEshN+AisIWCLYKrBC+ONeEQhBqr9YSc2mlKYq3Wk3fnQi7niD2AUCPxMfrjBUHgOl05ruzlQAY34RVS1SKRLEjmh8OsRCcOEDfCVHPJyuEVTwawAIRI14JIATBmZbMlX8orBCaeBKABSIkngygQVjE/4T9AAIlsm2LhEEsAAAAAElFTkSuQmCC;" parent="1" vertex="1">
          <mxGeometry x="2796" y="160" width="32" height="32" as="geometry" />
        </mxCell>
        <mxCell id="pbiRxgmzWkfBwBTZQI0s-39" value="" style="shape=image;verticalLabelPosition=bottom;labelBackgroundColor=default;verticalAlign=top;aspect=fixed;imageAspect=0;image=data:image/png,iVBORw0KGgoAAAANSUhEUgAAACAAAAAgCAYAAABzenr0AAAAAXNSR0IArs4c6QAAARhJREFUWIXt1isSwjAQBuAtg8RjEMAJUCDAcQBuwaG4RQ+AAwGqJ+AxUwSDrQ+qHWi32Uc2NRCZafp/kGS7AL8+Eu6D6TV32PxmMmK/Qw1oC7dAkAup8FCEdxE3PATRuiArnCi8HLNBIkKgD2vDNYhefWK3PwSFA8h+wBfAIlyKqACW4RJEH5u8vx5miPSaO9/taJyBGMN3nVHA83LrDIFuQYmYL5amiKxwrn5FvVtwPh1NASWCDYiFEAFiIyrAdr3yls9YiEYoVZCG03Fw6GddaGwB9U9YX1H0DHSJ8AZR26GpE/U6QH63LRFYn8BqHCwQbU0Ku3MJQfg6JFH/pukZqAMt7mIlCCpcBeAiOOFqAIXghv8HAMAbrqV9cVOHUJEAAAAASUVORK5CYII=;" parent="1" vertex="1">
          <mxGeometry x="2538" y="188" width="32" height="32" as="geometry" />
        </mxCell>
        <mxCell id="3L-2WKxO310W-JA4WiVi-5" value="" style="edgeStyle=orthogonalEdgeStyle;rounded=0;orthogonalLoop=1;jettySize=auto;html=1;" edge="1" parent="1" source="3L-2WKxO310W-JA4WiVi-2" target="3L-2WKxO310W-JA4WiVi-4">
          <mxGeometry relative="1" as="geometry" />
        </mxCell>
        <mxCell id="3L-2WKxO310W-JA4WiVi-2" value="MPA (Modular Particle Accelerator)" style="shape=process;whiteSpace=wrap;html=1;backgroundOutline=1;fillColor=#ffe6cc;strokeColor=#d79b00;" vertex="1" parent="1">
          <mxGeometry x="1200" y="610" width="120" height="60" as="geometry" />
        </mxCell>
        <mxCell id="3L-2WKxO310W-JA4WiVi-4" value="Technetium" style="rounded=0;whiteSpace=wrap;html=1;fillColor=#f5f5f5;fontColor=#333333;strokeColor=#666666;" vertex="1" parent="1">
          <mxGeometry x="1200" y="730" width="120" height="60" as="geometry" />
        </mxCell>
        <mxCell id="3L-2WKxO310W-JA4WiVi-7" value="Liquid Methane" style="whiteSpace=wrap;html=1;fillColor=#E6F3FA;" vertex="1" parent="1">
          <mxGeometry x="100" y="600" width="120" height="60" as="geometry" />
        </mxCell>
      </root>
    </mxGraphModel>
  </diagram>
</mxfile>
